<?xml version="1.0" encoding="UTF-8"?><svg id="a" xmlns="http://www.w3.org/2000/svg" viewBox="0 0 863.1 1220.5"><defs><style>.b{fill:#ea188c;}.c{fill:#aa1d54;}.d{fill:#ec1870;}.e{fill:#ed1957;}.f{fill:#ec1b66;}.g{fill:#ed1964;}.h{fill:#190d3d;}.i{fill:#ec1c5b;}.j{fill:#701b55;}.k{fill:#ed1774;}.l{fill:#fff;}.m{fill:#ec1585;}.n{fill:#ed1a5d;}.o{fill:#ed196a;}.p{fill:#ec1580;}.q{fill:#ed167b;}</style></defs><path class="l" d="M863.1,0v1220.5H0V0h863.1ZM57.3,190.7c-.2,13.9.1,27.9,0,41.8,0,.8-.3,4,.4,4.1h281.3s.7,0,.7,0c1.1-.7.7-2.6.7-3.7.6-53.1,0-106.3,0-159.4,0-5.4,0-10.8,0-16.2,0-18.9,0-37.8,0-56.6H57.9s-.7,190.1-.7,190.1ZM57.9,482.5h117.2c0,3.4,0,6.7,0,10.1H57.3v236.6h240.5c-.4,2.3-.4,6.1-.7,8.8-53,.5-106-.6-159,0-.4,0-.9,0-1.3,0-2.2,0-7.4-.9-6.7,1.3-.7,0-1.3,0-2,0,.6-2.1-2.1-1.3-4-1.3s-1.8,0-2.7,0c-21.3-.3-42.7.2-64,0v236.6h283v-232.5c3,0,11.4.6,13.5-.3,3.1-1.4,10.7-12.5,13.8-13.1l96-.4,78.5-78.5c6.1-3.7,15.2,1.7,20.5-1.7l67-67.1c6.5-1.7,13.9.2,20.6-1l38.1-38.1c.4-.5.3-.8,0-1.3s-7.1-7.4-7.7-7.8c-1-.6-1-.8-2.4-1-7.9-1-18,.9-26.2,0-1.2.3-2.7,7.7-3.2,8-1,.6-6.3-.3-8,0l3.4-8.1h-15.2c-.4,0-3.5,4.6-5.1,5.7-6.2,4.3-15.8,4.2-21.9-.3s-4.2-5.1-4.8-5.3-9-.3-9.5,0-1.6,3-2.5,3.9c-5.5,5.3-16.6,5.9-23,2.2s-5.5-6.2-5.9-6.2h-9.8l-.4,8.1h-7c-.7-3.5,2-8.2-2.4-8.7-10.1-1.2-26.1.6-37,.6s-3.8-1.5-5.7.3c-51,51.3-102.6,102-153.7,153.3v-96.4c3,0,11.4-.6,13.5.3,2.7,1.2,9.1,10.1,12.5,12.5s4.6.7,8.1.6c16.1-.3,32.2.3,48.2,0v-13.8c-27.6-27.3-54.8-55.1-82.2-82.6v-14.2s-14.1,0-14.1,0l-8.8-8.8,22.9-.7v-30.3c18.4-12.2,15.9-37.3,0-50.5v-155.7H57.3l.7,236.6ZM578.8,531.1h-12.8c-.3,1.6.2,1.1.9,1.5,3,1.9,10,2,11.9-1.5ZM619.2,531.1h-12.1c0,2.5,4.6,2.8,6.4,2.7s5.9-.4,5.7-2.7Z"/><path class="n" d="M175.2,492.6c0,3.5-.7,13.6.6,15.9l80.4,80c27.9,1.2,56.1.1,84.1.5v96.4c-13.8,13.9-27.4,28.1-41.5,41.8-.7.6-.8,1.2-1,2H57.3v-236.6h117.9ZM181.2,644.3c.3-.3,0-3-1.1-3.3s-4.2,1.2-5.7.6c.1.7-.2,2.5,0,2.7.2.2,6.5.2,6.7,0Z"/><path class="h" d="M340.3,685.4c51.1-51.2,102.7-101.9,153.7-153.3,1.8-1.8,3.6-.3,5.7-.3,11,0,27-1.9,37-.6,4.5.5,1.7,5.2,2.4,8.7h7s.4-8.1.4-8.1h9.8c.4,0,3.7,4.9,5.9,6.2,6.4,3.8,17.6,3.1,23-2.2s2.3-3.8,2.5-3.9c.5-.3,8.6-.3,9.5,0s3.4,4.2,4.8,5.3c6,4.5,15.7,4.6,21.9.3,1.6-1.1,4.7-5.7,5.1-5.7h15.2l-3.4,8.1c1.7-.3,7,.5,8,0s2-7.7,3.2-8c8.2.9,18.3-1.1,26.2,0s1.4.4,2.4,1,7.5,7.3,7.7,7.8.4.8,0,1.3l-38.1,38.1c-6.7,1.2-14.1-.7-20.6,1l-67,67.1c-5.3,3.4-14.5-2-20.5,1.7l-78.5,78.5-96,.4c-3.2.6-10.7,11.7-13.8,13.1s-10.5.3-13.5.3c-13.2.2-26.8.6-40,.4s-2.1-.5-3.1-.5c0-1.3-.2-2.7,0-4,.3-2.7.3-6.4.7-8.8s.3-1.5,1-2c14.1-13.7,27.6-27.9,41.5-41.8ZM579.5,602.5h-51.2c.4,2.2-1.3,6.9,1.7,7.4,6.5-1.1,46.2,1.6,48.9-.3s.4-5.4.6-7.1Z"/><path class="h" d="M193.4,396.3c2.9,0,7.2.7,10.8.7s.9,0,1.3,0c1.8,0,3.6,0,5.4,0s3.6,0,5.4,0c4.8,0,10.1.3,14.8,0,6.2,7.2,13.5,13.5,20.2,20.2l.7.7.7.7c4.9,4.9,9.9,9.9,14.8,14.8,16.6,16.6,33.2,33.3,49.9,49.9l8.8,8.8c4.7,4.7,9.4,9.4,14.1,14.2,27.4,27.5,54.6,55.3,82.2,82.6v13.8c-16.1.2-32.1-.3-48.2,0s-4.4,1.9-8.1-.6-9.8-11.2-12.5-12.5c-2-.9-10.5-.3-13.5-.3-28-.4-56.2.7-84.1-.5l-80.4-80c-1.3-2.3-.6-12.4-.6-15.9s0-6.7,0-10.1c-.2-28.5.1-57.1,0-85.6.2,0,.4,0,.7,0,.9,0,1.8,0,2.7,0s1.8,0,2.7,0c1.6,0,3.1,0,4.7,0,2.6,0,4.8-.7,7.4-.7Z"/><path class="o" d="M57.9,482.5l-.7-236.6h283v155.7c-.2-.1-.9-.3-1.3-.7v-22.2c0-.9,0-1.8,0-2.7v-2c0-11.9,0-21.8-1.3-33.4s-.3-10.5-.7-11.1c-1.8-.6-1.2,1.1-2,1.6-1.8,1.1-4.7,1.8-6.7,1.1,0,1.9.3,3.4-.6,5.1-1.9,3.3-3.9-.3-4.7.3s-2.9,6.2-1.3,7.3,7.7-1.5,8,3.5c-1,.2-5.8-.2-6.1,0s.3,2.4,0,2.7-3.6.5-4.4.6c-2.1.3,0-2.6-.4-4.2s-1.9-1.7-2.3-2.5c-.6-1.3,0-3.2-.6-4.1-1-1.5-6,.8-3.7-4.3,0-.6-1.4-.5-1.7-.4-.6.2-2.6,7.4-3.3,8.1-1.3,1.3-4.1.4-4.4.6s1,4.6-1.1,5.3-6.2.3-7.3,0c-2.4-.5-2.7-3.8-7.3-2.7s-.4,4.1-2.1,3.4.8-6.5-2-6.1c-5,.7.8,8.6-4.7,8.2s-1-4.3-2.7-6.1-3-1.3-4.4-1.4c-.5.5,3.3,4.6-1.2,5.9s-4.9-2.6-8,.1-1.2,3.1-2.3,2,.5-4.3-5-3.4-1.8,2.7-2.9,3.4-4,.9-4.2.7c0-2.7,2-4.8,1.2-7.6s-4.9-1.5-5.3-1.8.2-5,0-6.1c7.8,3,4.7-1.3,5.1-6.8-2.7-2-4.4.3-6.4,1.1s-2.1.1-2.9.5c-1.7.7-1.5,2.8-1.9,3.1-.8.5-3-.2-4.2,0s-1.4,3.8-4.8,1.3,0-3.8-3.4-4.1c-5.2-.3-3.7,1.9-4.5,2.6s-1.8,0-2.6.5-1.3,2-2.7,1.7c-2-4.8,5-9.4,5.4-11.8s-3.4-2.8-2-6.4c-1.1.7-6.5,1.1-6.7,1.3s.1,2.6,0,3.4c1.9-1,5.4-.1,5.4,2.4s-4.1.1-5.5,2,2.1,4.4-3,4.5-4.5-2-6.4,1l3.8,1-.4,3.4c-1.6.3-1.9-1.5-3.2-1.9s-3.5.3-4.2-1.2,3.6.2,2.7-2.3c-3.8-1.1-8.6.7-11.9.5s-2.2-1.6-3.8-1.2-.7,1.5-1.5,2c-1.6,1-6.3,2.8-7,4.5s5.6,0,6.1,1.7c-1.4,0-7.7.2-8.1,0s.2-.9-.5-1.3c-2-1.2-5.3-.2-7.1-.7s-.5-2.3-2.8-2.1-4.1,2.6-4.3,2.9c-.9,1.6,1,5.1-3.9,5.9s-4-1.5-5-4.3c1.4-1.4,2.9-.7,4.8-2s3.9-5.1,3.3-5.8c-4.4.3-3.3-2.6-4.4-4.1s-2.4-.5-3.1-1c-1.4-1,.4-4-2.2-3s-2.9,10.1-2.4,12.4,2.9,2.5,1.7,4.4-3.3,3.2-3.5,3.3c-1.1.4-2.7-.2-3.6.4s0,5-4.7,4.1-1.7-4.3-2.7-6.1c2.8-.1,3.6-.9,2.6-4s-3-1.4-4.2-1c-3.3,1.1.8,5.3.8,5.6,0,1.1-3,1.9-3.5,2.3s-1,3.7-2.5,2.7-2.1-4.1-2-4.3c.2-.9,2.3-1.1,2.6-2.2s-.6-2.3-.5-3.2,2.1-2,2.7-3.3c1.9-3.9-1.4-2.2-3.3-3.4s-2-2.9-4.2-3.5-4.5-.2-4.7-.4.1-1.7,0-2c-1.1-1.3-1.4,1.3-1.8,1.4-3,.8-2.4-2.3-3.9-2-2.7,2,1.7,2.8,1,5.4-3-.7-4.4-1.2-4,2.7.8.8,4.6-2.2,3.4,3.7s-1.5,1.9-1.9,2.9-1.9,5.9-2.3,6.2c-2.1,1.3-2.3-1.2-1.9-2.8s1.9-.5,2.1-2.2-.8-5.5-1.1-5.8c-4.6-3.4-4.7,4.5-6.7,4.1s-3.1-4.4-5-5.1c-3.6-1.2-8.1.6-11.8-.2-6.6,2-.6,3.5-.4,4.5.5,2.2,0,5.6,1.3,8.3-5.7,1.8-4.4-7.3-6.7-9.8s-6.1.3-6.7-.3c1.4-2.6-.3-7.5,0-9s2.7-.6,2.1-2.8-3.1,0-3.9-.4c-2.2-1.2-.6-5.2-.9-6.2s-1.8-1.8-2.5-3-1.7-6.6-2.2-2.6.1,5.9,0,8.7-1,2.5-1.1,3.6c-.3,3.4,3.4,7.9-1.5,8.9,0-1.6,0-3.1,0-4.7.2-13-.1-26.1,0-39.1-.9-1.1-1.2,0-1.3,1-.6,4.6-.3,9.5-.7,14.2-1.7,20.5-1.3,39.4-.8,60s-2.4,6.4,1.5,7.1c-.3,3.9-1.9,2.8-2.1,4.4v103.5ZM280.9,252.8c-1.3-1.3-4.6.3-5,.4-1.3,0-7.5-3.2-5.7,2.6s8.7,0,10.7,1.1c-.2-.9.3-3.7,0-4ZM185.3,252.7c-.4-.4-8.9,0-10.4,0s-1.8,3.4.1,4,2.1-.4,3.2-.4c5.4.4,9.6.1,14.2,0s6,1.6,5.8-1h.7c-.3,2.8,3.4,0,5.6.6s.5,2,2.2,2.1.1-1,.8-1.3c2.6-1.1,5.7.2,8.3.6v-4.7s-2,0-2,0c.1.9,1.8,2.7-.3,2.7s-.2-3.3-2.4-2.7l-.3,2.7c-.7,0,.6-3-3.4-2.8s-1.9,1.6-2.5,1.9c-2,1.3-3.4-1.7-4.9-1.9s-.7,1.4-1.4,1.4,0-1.3-.8-1.4-1.4.5-2,.5-2.8-.6-2.9-.4c-.3.3.5,2.4-.3,2.7-.3,0-2.3-6.7-2.4,0-1.7-.9-3-.9-4.7,0-.1-.6.2-2.5,0-2.7ZM177.9,312c-1.8-1.7-6.8,2.4-2.2,3.9s2.4-3.7,2.2-3.9Z"/><path class="q" d="M57.9,35.7c0,6.1,0,12.1,0,18.2,0,8.6-1.1,21.4,0,29.4s2.4,5.5,2.7,7.4-.3,4.5,0,6.7,2,3,1.3,5.1c2,.8,1.5-3.3,1.4-4.4-.3-2.3-3.3-7.1.6-7.7-1.2,2.1,2.5,9,4,9.8s2.8-1.6,4.3-1.7c3.3-.2,6.3,2,8.8,2.6s5,.8,5.3.7c.9,0,1.1-4.3,3.4-3.4s-.7,4.2,1.4,5.4c1.9.4,2.7-4,2.4-5.4,2.1-.5,1,1.9,3,2.1s2.6-.7,4-.7c3.3,0,8.6-.2,11.5,0s4.6,2.1,6,2,2.1-1.2,3.3-1.2c2.9,0,5.4,5.5,9,2.6s.1-4.6,2.6-3.4.9,2.7,4.2,3.2,7.4-1.3,7.8-1.2c.9.3,1.7,3.1,3.6,3.3,1.8,0,1.9-3.4,3.8-3.2s2.6,2.9,3.6,3.2,1.8-.5,2.5-.4c2.6.4,3.1.3,5.4.5s7.4,1.3,10.2,1.3.8-.9,1.5-1.3,1.5,0,2.1-.4c1.1-.7.5-2.4,3-2.4s3.8.6,4.2.9c.9.6,2.1,4.5,2.6,4.6,1.4.2,2.9-1.5,4.6-1.4s5.6,3,7.6,3.2,2.4-.7,3.7-.4,2.1,1.7,3,1.8,4.7-1.8,8-1.2,4.8,4.2,6.8,4.5,4.3-1.2,5.9-1,2.1,1.6,4.1,1.9c7.5,1,4.9-3.1,7.6-3.9,5.2-1.6,13.8,2.5,16.8-3.5l12.2,3.2c1.6.7,0,2.7,3.2,3s3.5-2.7,5.4-2.7c2.9-.1,4.6,3.3,9.4,2.6s9.5-2.4,10-2.7c.8-.4,1-1.9,1.5-2,1.4-.4,3.7,4.4,6.7,4.8,6.7.8,2.7-3.1,4.8-4.1s.6,1.5,2,1.4,2.6-1.7,3.9-1.3,2.7,3.4,6.2,3.4,3-1.1,4.2-1.3,2,.5,3,.4c2.8-.4,5-2.7,8.1-1.9l3.1,7.4c0,18.9,0,37.8,0,56.6-2,.4-1.4-1.1-1.4-2.4s.9-6.3-1.1-7-7-.4-8,1.9c-1.6,3.8.6,5.8-6.4,6,.7-10.2-3.4-1.5-5.9-.8-3.7,1.1-3.9-3.2-7.3-2.6s-2.1,3.5-4.6,3.3-2.6-3-3.8-3.6-7.3-.2-9,.5-1.3,3-2.5,1.9.1-3.8-2.4-4.1c-3.8-.4-.7,4.8-4.6,3.3s-.7-2.5-1.2-3.2-2.9-.5-3.9-1.2-1.1-2.6-2.4-2.3c-2.3.5,1.1,6.3-1,7.8-3.5,2.5-4.5-2.6-5.2-3.1-2.8-2.1-4,.8-5.4,1.3s-2.5-.2-3.6.5-.7,1.8-1.8,2.2-2.2,0-2.9.4c-1.5,1,.6,4.4-2,3.7.9-3.9-2.1-3.9-3.5-6.6-1.5,1.2-10-.9-10.6-1.5s.2-3.6,0-4.6c-1.8-.7-1.3,1.2-2,1.7-3.3,2.2-.8-3.8-4.4-3.1s-.6,1.5-1.3,2.1c-1.1.9-2.9.9-4.1,2s-1.5,3.3-2.1,3.4-3.5.1-3.6,0c-.3-.3,1.2-3.8-3-3.4s-2,2.5-3,3.7c-2.2,2.6-6.1,1.4-9.1,1.7-.2-1.4-1.4-3.4-1.5-4.5s.8-2.6.5-2.9c-1-1.2-11.3-.6-13.5,0-.7-1.9,1.8-1.4,2-2.4,1-4-5.4.3-5.7.3-.9.2-7.4.2-7.7,0-1.5-1.2,1.6-1.1,1.3-2.3-1-4.2-5.8-2.7-2,1.6-.4.4-9.2,1.3-10.4,1.4-3.2,0-6.9-.9-10.8-.7s-5.9,1.4-8.1,1.4-.9-2.4-3.3-2.1-1.7,3.9-2.8,4.1c-2.3.5-2.9-1.7-4.7-2.1s-7.7,0-8.4-.7c-.4-1.6,2.3-2.4,2-3.7-.6-2.7-9.1-.2-10.8,1.3s-.5,2.3-1,3c-.8,1.2-13.8,2.9-11.1-3.4-.3-.4-7.3,1.3-8.6,1.2-2.6-.2-4.2-.5-7.3-.4s-4.1,1.2-6.1-3.5c-1.9-.3-3.6,2.7-5.5,3.2s-3.5,0-5.2.2c-4.5.7-7.4,4.2-5.8-4.1-2.2-.7-1.3,2.5-2.4,2.7-4.6,1-4.5-7.8-4.3-10.8-.8-1.1-1.2,0-1.3,1-.5,4.2-.3,9.5-.7,13.8h-2v-29.7c-2.8-.3-1.4,3.4-1.7,4.7-2.8,16.1-2.2,34.8-2.4,51.2L57.9.7c0,11.7,0,23.4,0,35ZM181.3,118.6c-9.8-1.4-10,4.7,0,3.4v-3.4ZM181.3,140.9c-3.3.5-7.8-1.8-6.7,2.7,3.3-.5,7.8,1.8,6.7-2.7Z"/><path class="b" d="M57.9.7h282.3c0,18.9,0,37.7,0,56.6-3.2-.2-1.3-4.4-3.7-6.1s-7-.6-9,.6-1.6,2.5-3.2,2.9-3.8.2-4.6-.1c-1.8-.6-.5-3.9-5.3-1.8s-6.2,2.6-10.9,2.6c-7.3,0-4.6-3.2-5.7-4.1s-2.7.8-3.7.7c-5-.2-8.6-.1-13.4-.1s-9.4-1.3-12.2-1.3-5.6,2.5-7.3,2-.7-2.4-1.5-2.7c-1.3-.5-8-1-9.2-.7-2,4-6.9,10.5-5.8,1.4-2-.2-3.8.6-5.7.7s-2.1-.8-2.7-.7-.5,2.8-3.4,2.8-3.4-4.1-4.1-4.1c-1.3-.1-2.4,1.2-4,1.4-5.1.7-12.1-.4-17.5,0s-5.5,1.8-7.3,1.4-.8-1.9-1.5-2.7c-3.2-3.7-3.6,1.3-5.5,1.9-2.8.9-9.3-.2-12.7,0s-2.5,1.4-3.2,1.3-1.3-1.4-2.8-1.3c-2.2.1-2.2,3.3-4,3.4s-3-1.4-4.8-1.4c-2.6,0-4.3,1.7-8.7,1.3s-5.4-3.3-8.2-3.3-2.3.6-3.4.6-3.3-1-3.7-.5,1,2.7-1.7,2-1.3-3.3-2.7-4.7-1.7-.6-2.3-1.1-1-1.9-1.9-2.2c-2.9-1-3.3,2.5-4.1,2.7-1.4.3-7.1-1.4-6.9-3s2.9-3.7.2-4.5-2.2,2.2-3.5,2.6-3.9-1.1-5.8-.6-.8,1.7-1.5,2c-1.4.6-1.1-1.7-2-2.7-2.7-2.7-20.1-.5-24.7-.8-4.6-1-2.3-5-2.5-5.3-1.4-1.4-5,1.7-5.9,1.9s-9.5.3-10.6.2-.5-2.6-1.8-1.4-1.1,6-1.3,7.1.7,2-1.4,1.6c0-3.2,1.7-10.5-3.4-9.4,0-11.7,0-23.4,0-35Z"/><path class="i" d="M121.3,738c-.1,3-3.6.8-2.7,4,7,0,14.1,1.7,20.9-.7l-1.3-3.4c53-.6,106,.5,159,0-.1,1.3,0,2.7,0,4,1,0,2.1.4,3.1.5,13.2.2,26.8-.2,40-.4v232.5H57.3v-236.6c21.3.2,42.7-.3,64,0ZM116.6,740c-.2-.2-5-.7-5.7-.7-5.6.1-3.7,1.3-9.6-.5s-3.2.6-4.2,2.7-1.6.1-1.3,1.2c2.5-.1,6-1.3,8.4-1.2s11.4,2.4,12.5,1.2,0-2.6,0-2.7ZM192,740.7c-.3-.4-8.1-1.3-9.2-1.3-2.6,0-6.1,1.1-8.7,1.3s-5.1-.9-9.1.3-1.6.1-1.3,1.7c6.6-.8,13.3-.9,19.9-.7s10.6,1.8,8.4-1.3ZM62.7,740.7c-.2-.2-3.5.2-4.4,0-1.9,4.7,6.5,2.2,4.4,0ZM174.5,793.9c0,0-1.1.3-1.3-.5-.4-1.2-.2-5.7-.6-5.9-1.1-.6-2.5,0-3.6-.5s-1.4-1.8-3.5-1.9-7.3.6-8,.8-.4,1.2-.9,1.3c-5.1,1.2-7-.7-8-5.4-5,1.8-13.6-2.6-10.4,5.8.8.6,10.9-2.1,6.4,4.3-3,4.4-6.9.3-10.3-.7v-2.6c-3-.2-3.5,3.3-6.8,1.7s0-4,.5-5.6c.9-2.8-.8-2-1.9-3.1s-1.5-2.4-2-2.7c-.9-.5-6.9-.8-2.7-2.7s7.3-2.9,4.3-5.2c-5.6-4.1-3.9.4-7.8,1.6s-4.1.2-6.6-.2c-.3,3.7,2.7,8.8,1,12.1s-2.8.9-3.9,1.4,0,1.9-3.4,1.2-4.1-2.9-5.2-5.6,2.2.2,2.5.2c3,.9,2.5-5,2.2-5.3-1.3-1.3-3,2.2-3.9,2.5s-7.6,2.2-8.3,1.5c-1.2-4.2,7.4-2.5,6.7-5-2.9-2.2-6.8-7.7-10.4-8.4s-.4,1.9-.5,3c-.5,4.3-6.5,1.2-7.2,3.5s3.1,3.3,3.7,4.4c2.2,3.7-2.5,3-4.5,3.6-3.9,1.2-2,2.8-2.5,5.5s-7,1.4-9.4,1.7c-1.3-4,2-3.2,2.1-3.7.7-3.5-1-13.6-5.7-13.1-1.9,1.1.2,5.9-2.4,5.4v-31.9c-.7-1.3-2.2-1.6-3.1-.4s1.2,15.9.3,18.6c2.1,4.4-.9,6.8-1.3,10.1-1.1,8.1-.1,23.6.2,32.2s1.9,6.5,1.9,8.3-2.2,4.4-2.1,6.8,1.4,2.4,1.5,4-1.3.6-1.5,2c-.8,6,2,11.2,0,16.9v130.4c2,0,3.7-.6,5.7-.7,88.6-2.7,179,1.3,267.5.7,1,0,5.7-.5,6.6-.6,1.9-.4,1.1-19,1.1-22,.6-59.1,2-123-1.4-181.2-.1-2-1-4.5-1.3-6.5-3.9,2.1-2.4-2.9-6.7-2,1.3,3.6-2.7,5.4-3.3,7.2s1.3,1.3,2.4,2.4,2.2,4,2.2,4.2c0,1.5-2.3,2.2-2.6,3.5s-.8,6-.8,6.6c0,2,2,7.4-1.6,6.4s-.1-3.1-.3-3.4c-.5-.7-5.9,0-4.4-4.7l3.7-5.7c-2-2-9.2-2.1-10.4.3s0,2.6-1.3,4.1-4.3,1.8-4.4,2c-1.4,1.9,3.2,1.9,3.3,2.1s.8,5.6.4,6.1-1.8.4-2.2.8-.3,2.7-2,3.1c-3.2.8-4.2-7.4-9-5s-3.2,4.5-4.5,4.9c-2.1.7-5.3,0-6.6-1.9s-2.4-5.4-2.4-5.7,2.4-.7,1.4-3c2.4-.7,1.9,1.2,2.7,1.7,2,1.3,4.6-.5,5.7-.2s.9,1.5,1.5,2c3.2,2.2,9.2-4.7,2.6-4.1s-2.6,1.6-3.9,1.3-3.7-2.5-3.8-2.7c-1.1-1.6,3.2-3.9,3.5-4.8,1-2.2.6-5.1-2.2-5.2.1,1.4,0,4.3-1.3,5.1-3.1,1.9-3.5-2.5-4.2-3.9s-1.8-1.6-1.9-2.8c.8-1.6,3.1-.6,3.9-1.1s1.1-5,.8-5.3c-1.4-.3-2.9.7-4.2.6s-4.6-4.3-5.2-1.5,3.2,7.1-2.7,6.4l.7-4c-2.7-2.6-3.8,8.1-4.2,8.6s-2.2.4-2.5.9.2,2-.2,2.5-1.6.1-2.3.8-.8,2.4-1.1,2.6c-.8.5-2.9-.2-4.2.2s-2.2,4.3-4.5,3.9c1.1-2.4-3.2-6-4.7-4.7s3,3.6,1.4,5.7c-2.3,3-6.2,1.8-7.5,2.6s-.5,2.6-1.7,3-2.2-.6-3.2-.4-3.2,2.5-3.8.1,4-3.6-1.7-8.4c-.7-.6-2.2-.4-2.4-1.1s.6-6.1,1.1-7c.9-1.6,4-1.1,3.7-3.4-4-.2-7.5-1.9-11.4-.7,1.7-6.7-2.5-2.5-4.1-3.6l-.6-3.8c-2.4-1.2-4.2,2-4.5,2.1-1.1,0-2.4-1-3.6-.7v4c-6.8,1.1-6.3-6-11.5-6.7-1.6,6.5,7.3,4.5,6.1,10.8-4.8,1.5-3.8-4.2-7.1-4s-1.4,2.1-2.9,2.4-3-.9-4.8,0c-3.2,1.6-.2,7.7,4.3,5s1.2-3,3.1-2.6c-1.1,2.5,2.9,4.6,2,6s-4.8,1.8-5.6,2.1c-.7-6.1-5.8-2.6-9.5-2.7s-8.1-4-7.3,2c1.1-.2,4,0,3.7,1.7s-5.8,2.2-5.4,4,1.6,1.7,2.3,1.7c2.2,0,3.2-3.5,4.4-2.7s-1,1.9,2.7.6c-1.4,3.4,1,2.3,1.4,4.7-.2.1.4,1.4-.3,1.4-1.7-3.2-2.9-1.1-2.4,2-.9-.2-2.8.7-4,.7-.5-4.8-3.2-4-7.4-4l2.7-1.4c.2-1.3-1.2-1.8-1.4-3.1s.8-4.1.7-4.3-6-2.7-6.4-2.7c-1.5-.3-1.3,1.4-.9,2.3s2,.9,2,1.5c0,2.3-4.6,5.4,2,3.7.3.3-1,3.6-1.3,4s-1.9-.3-1.3,1.3ZM278.9,763.6h-1.3v2h1.3v-2ZM64.7,766.9c-.7-.7-2.1.6-1.3,1.3s2.1-.6,1.3-1.3ZM188.7,790.5h-2v1.3h2v-1.3Z"/><path class="g" d="M60,374.7c.1-1.8,0-3.6,0-5.4h1.3s0,45.5,0,45.5c0,.4,1.6,2.8,2.7,2.4-1.3-5-.8-9.4-.6-14.5s-.2-8.8,0-12.8,1.1-5.1.7-7.8c3.7-.8,1.5,3.1,1.3,5.7-.4,8.7.6,9.8,8.8,5.8,1.7,2.6-2.2,4.7.4,6.7,1.7,1.1,4.9-6.1,5-6.5.1-1.4-2.2-2-1.9-3.2s3.2-1.3,3.9-1.9c1.8-1.4.3-5.7,3.8-4.5s-.7,5.4.8,8,3.8,2.6,4.4,2c.2-.7-1-2.3-.7-2.7.7-.9,6.7-1.9,7.4-2.4,1.1-.8,1.3-5.8,3.7-5.8s2.2,2.8,2.7,2.8c.9,0,2.1-1.2,3.4-1.4s4.8.2,5,.3c1.9,1.3-1.5,4.3-1.3,6.7s1,1.9,1.2,2.9-.1,3.4.4,4.3c.9,1.3,4.5.3,6,.6s.4,3.3,5.5,2.8,4-3.1,6.4-3.7,2.6.6,3.4,0,1.9-4.4,2-4.8c.3-1.7-4.5-.9-5.1-3-1.2-2.5,1.9-4.3.2-7.6-2.9-5.7-5.8,3.6-3.2,6.9-3.3-.8-3.8,3-6.7,2.7-.6-2.7,1.4-4.5,1.4-7.1s-1.4-3.7-1.3-4.6,2-2.7,1.2-4.5h2c-.7,9,6.6.3,8.1,1.4.6,1.1,0,5.5.7,6s2.3-.2,2.6,0,.1,2.2.5,3.2c1.5,3.3,3.1,3.9,1.5,8.3,3.9,1.5,5-3.4,6.4-4,2.4-1,1.1,2,2.7,2.6,5.1,1.8,4.8-2.6,6.1-3.3s4.6-.8,6.3-2c-.5,1.8,2,3.1,2,4.4s-2.4,5-2.7,6.8.6,5.9-.7,6.7c-2.2,1.5-5.1-1.3-4.1,5.7l4-.7.7,8.1c2.1.9,3.8-1.8,5.1-1.9s2.2,1.7,3.6,1.2l.7-3.4c5.3.7,3.4,7.4,4.2,11.6s0,3,1.8,2.5l-.7-33c.7,0,1.4,0,2,0,.1,28.5-.2,57.1,0,85.6H57.9v-103.5c.1-1.5,1.7-.5,2-4.4Z"/><path class="k" d="M57.3,190.7c.2-16.4-.4-35.1,2.4-51.2s-1.2-5.1,1.7-4.7v29.7h2c.3-4.3.1-9.6.7-13.8s.5-2.1,1.3-1c-.2,3-.3,11.8,4.3,10.8s.2-3.4,2.4-2.7c-1.6,8.3,1.2,4.8,5.8,4.1s3.5.2,5.2-.2,3.6-3.6,5.5-3.2c2,4.7,2.1,3.7,6.1,3.5s4.7.2,7.3.4,8.2-1.5,8.6-1.2c-2.7,6.3,10.3,4.6,11.1,3.4s0-2.2,1-3c1.7-1.5,10.2-4,10.8-1.3s-2.5,2-2,3.7c.7.6,7.1.4,8.4.7s2.4,2.6,4.7,2.1.4-3.9,2.8-4.1,1.7,2.1,3.3,2.1,5.7-1.2,8.1-1.4c3.9-.3,7.6.7,10.8.7s10.1-1,10.4-1.4c-3.8-4.4,1-5.9,2-1.6s-2.8,1.1-1.3,2.3,6.9.2,7.7,0,6.7-4.4,5.7-.3-2.7.5-2,2.4c2.2-.6,12.4-1.2,13.5,0s-.6,2.1-.5,2.9,1.3,3.1,1.5,4.5c2.9-.3,6.9.8,9.1-1.7s.7-3.5,3-3.7c4.2-.4,2.7,3.1,3,3.4s3.1.1,3.6,0,1-2.5,2.1-3.4,3-1.1,4.1-2,.8-2,1.3-2.1c3.6-.7,1.1,5.2,4.4,3.1s.2-2.3,2-1.7c.2,1-.4,4.1,0,4.6s9.1,2.7,10.6,1.5c1.4,2.8,4.4,2.7,3.5,6.6,2.6.6.5-2.7,2-3.7s2.1-.1,2.9-.4c1.2-.5,1.2-1.8,1.8-2.2,1-.6,2.5-.1,3.6-.5s2.6-3.3,5.4-1.3,1.7,5.6,5.2,3.1-1.3-7.3,1-7.8,1.5,1.7,2.4,2.3,3.5.6,3.9,1.2-.3,2.6,1.2,3.2c3.9,1.4.8-3.8,4.6-3.3s2.1,3.8,2.4,4.1c1.2,1.1,1.5-1.5,2.5-1.9,1.6-.7,7.5-1.2,9-.5s1.6,3.4,3.8,3.6,2.7-3,4.6-3.3c3.3-.6,3.6,3.7,7.3,2.6s6.6-9.4,5.9.8c7-.3,4.8-2.2,6.4-6s6-2.6,8-1.9,1.1,5.3,1.1,7-.7,2.8,1.4,2.4c0,1.8,0,3.6,0,5.4-2.6-.2-1,1-.7,2,.9,3,.6,5.1.7,8.1-2.1,4.7-.8,9.9-.7,14.8-1.7-1-5-1.8-6.3-2.8s-1.2-3-3.5-2.6-.3,1.4-.7,1.4c-.8,0-1.8-.7-2.7-.7-1.2,0-3.2,1.9-5.7.6v2.7c-.4.4-6.7-2-7.4-2.4s-1.1-2.6-2.4-2.3-1.4,2.3-1.8,2.5-5.3,1.4-5.6,1.4c-2.7.1-2.9-3-4.1-3.3s-1.9,1.4-2.9,1.7c-6.6,1.9-11.7-.5-17.9.3-10.3,1.3-17.6,1.8-28.2.6s-3.7-2.1-6-.6-1.2,1.9-1.8,2.3c-2.3,1.4-8.7-1.3-11.2-1.6s-10.8-1.4-13.6-.2-1.7,2.2-3.9,2.3-4.8-2-7.5-2-6.6,1.6-7,1.2,0-2.3-1.1-2.7c-1.9-.6-2.6,2.3-4.4,2l1.3-4c-3.4-2.1-7.1-7.8-8.7-.7-.4,0-1.1-.1-1.3,0,1.7-1.9-1.1-1.6-1.3-2-.6-.8.3-5.3-3.4-3.1s-.5,4.3,0,5.1c-3.1.1-2-1.5-3-2-2.1-.9-1.4.8-1.7,1.3-1.6,3.7-4,1.9-4.6,2.8s0,2.5,0,3.3c-2,.4-2.5-2.7-3.1-2.8s-1.8.7-2.6.7-2.7-2.1-4.2-1.1-.3,1.5-1.2,1.8-4.1.6-4.8.6c-2,0-2.8-2.4-5.1-1.7s-2,2.6-3.5,2.6-3.8-2.6-5.1-3c-2.9-1-11.8,1.2-15.7,1.8s-5.3,2.5-3.5-.8,5.4-.9,4.4-4c-2.8.8-7.6-.9-9.8-.7s-.2,1.8-.7,2.7c-1.4,2.3-3.7,4.8-6.6,4.1s-1.7-4.4-4.5-5.1-5.6,0-6.1,0c-1.4.2-6.6,2.5-7,2.4s-4.2-5.4-6.1-5.3c-1.8.9-1.7,3.1-2.7,4.5-4.3,6.2-9.1,1-15.2,1.5-.4-.4-1.2-12.7-3.4-10.1.8,3-1.1,5.3-1.4,7.7s.7,5.4,0,8.8.5,1.2-1.3,1v-18.2c-2.3-.5-1,2-1.5,3.6s-1.6,1.4-1.9,2.8c-1.8,8.9.4,24.8-.7,35.4.1-13.9-.2-27.9,0-41.8ZM187.3,187.4c2.8-2.8-9.5-4.7-7.1,0,1.5-1.4,6.8.2,7.1,0ZM194.7,196.1c-.9-.5-1.8.4-1.3.7.9.5,1.8-.4,1.3-.7Z"/><path class="d" d="M57.3,232.5c1.1-10.6-1.1-26.4.7-35.4s1.6-1.9,1.9-2.8c.5-1.6-.8-4.1,1.5-3.6v18.2c1.8.1,1.1,0,1.3-1,.7-3.4-.3-5.8,0-8.8s2.2-4.8,1.4-7.7c2.2-2.6,3,9.7,3.4,10.1,6.1-.5,10.9,4.6,15.2-1.5s.8-3.6,2.7-4.5c1.9,0,5.7,5.2,6.1,5.3s5.6-2.2,7-2.4,5.8,0,6.1,0c2.8.7,3.9,5,4.5,5.1,2.9.7,5.3-1.8,6.6-4.1s0-2.6.7-2.7c2.1-.2,7,1.5,9.8.7,1,3.1-3.1,1.6-4.4,4s3,.9,3.5.8c3.8-.6,12.7-2.8,15.7-1.8s3.9,3,5.1,3,2.2-2.3,3.5-2.6c2.3-.6,3.1,1.7,5.1,1.7s4.3-.4,4.8-.6c.9-.3.9-1.6,1.2-1.8,1.5-1,3,1.1,4.2,1.1s1.9-.7,2.6-.7,1.2,3.2,3.1,2.8c0,2.6.4,1.7.7,2.7s0,1,0,1.3c0,1-2.2,3.8.7,3.4-.2,0-1.2,1.1-1.3,1.3-2.3,3.6,4,3,6.1,2.7-.4-.9-.6-1.6-.7-2.7s0-1.5,0-2,1-1.2.7-2c.7.2,2.4-.2,2.7,0s-1.1,1,.7,2,5.5-.2,6.1-.7c2.1-2.1-4.7-.2-4.7-3,6.8.4,3.7-3.9,4.7-8.4,1.6-7,5.3-1.4,8.7.7l-1.3,4c1.8.3,2.4-2.6,4.4-2s.9,2.5,1.1,2.7c.4.4,5.5-1.3,7-1.2,2.7,0,5.4,2.1,7.5,2s2.5-1.6,3.9-2.3c2.8-1.2,10.3-.3,13.6.2s8.9,3.1,11.2,1.6.9-1.7,1.8-2.3c2.4-1.6,3.8.3,6,.6,10.6,1.2,18,.6,28.2-.6s11.3,1.6,17.9-.3,2.1-1.8,2.9-1.7c1.2.2,1.5,3.4,4.1,3.3s5.3-1.3,5.6-1.4c.4-.2,1-2.3,1.8-2.5,1.3-.3,1.5,1.7,2.4,2.3s7,2.8,7.4,2.4v-2.7c2.5,1.3,4.5-.6,5.7-.6s1.8.7,2.7.7.5-1.4.7-1.4c2.2-.4,2.1,1.7,3.5,2.6s4.7,1.7,6.3,2.8c.1,3.3.6,7.1.7,10.1s0,5,0,7.4c-1.1.7-1.1,3.4,0,4,0,.9,0,1.8,0,2.7-1.5,1.8-.4,5.1-.7,7.4H57.7c-.7,0-.5-3.3-.4-4ZM186,211.6h-6.1s0,4,0,4c3.8,0,6.8,1,6.1-4ZM175.3,223c-.1-.2,1-2.3-.5-2.6s-4.1,1-4.3,1.7c-.9,3.1,5.7,2.7,6.1,2.4,1.4-1.2-1.1-1.4-1.2-1.4ZM187.3,221.7c-1.5-.2-2.9.6-4.4.7s-3.8-1.6-3,.3,7.4,2.6,7.4-1ZM153.6,227.8c-.9-.5-1.8.4-1.3.7.9.5,1.8-.4,1.3-.7ZM65.4,230.5c-.7-.7-2.1.6-1.3,1.3s2.1-.6,1.3-1.3Z"/><path class="m" d="M57.9,35.7c5.1-1,3.3,6.2,3.4,9.4,2,.3,1.1-.5,1.4-1.6s1.1-6.9,1.3-7.1c1.3-1.2,1.3,1.3,1.8,1.4,1.1.2,9.6,0,10.6-.2s4.4-3.3,5.9-1.9-2.1,4.2,2.5,5.3c4.6.3,22.1-1.9,24.7.8s.7,3.3,2,2.7.7-1.8,1.5-2c1.9-.5,4.4,1.1,5.8.6s1.3-3.3,3.5-2.6-.2,4-.2,4.5c-.3,1.6,5.4,3.3,6.9,3s1.2-3.7,4.1-2.7,1.1,1.6,1.9,2.2,1.7.5,2.3,1.1c1.4,1.5.2,4.2,2.7,4.7s1.3-1.7,1.7-2,2.8.6,3.7.5,2.1-.6,3.4-.6c2.7,0,3.6,2.9,8.2,3.3s6-1.3,8.7-1.3,3.5,1.4,4.8,1.4c1.8,0,1.8-3.3,4-3.4s2.1,1.2,2.8,1.3,1.8-1.1,3.2-1.3c3.5-.3,9.9.8,12.7,0s2.3-5.5,5.5-1.9.8,2.5,1.5,2.7c1.8.4,5.2-1.2,7.3-1.4,5.5-.4,12.4.8,17.5,0s2.7-1.5,4-1.4.7,4.1,4.1,4.1,2.8-2.7,3.4-2.8,1.7.8,2.7.7c1.9,0,3.7-.9,5.7-.7-1.1,9.1,3.9,2.6,5.8-1.4,1.2-.3,7.9.2,9.2.7s.3,2.3,1.5,2.7,5.4-2,7.3-2c2.8,0,8.6,1.3,12.2,1.3s8.4,0,13.4.1,3.5-.9,3.7-.7c1.2.9-1.6,4.1,5.7,4.1s7-.8,10.9-2.6,3.5,1.1,5.3,1.8,3.7.3,4.6.1c1.6-.3,1.7-2,3.2-2.9s7.1-1.9,9-.6.4,5.9,3.7,6.1c0,5.4,0,10.8,0,16.2-1.2,2-.7,5.5-.7,8.1-2.7.2-1.7-3.9-2.2-5.6s-1.1-3.2-1.6-3.8c-2.6-3.7-8.7-1.9-5.7,1.6s3.2,1.5,2,3-8.5,1.2-9.8,2.7l-1.4-2.7c-2.8-.5-3.9,2.8-5.9,2.6s-3.8-3.1-5.5-3.2-6.4,1.9-8.1,2c-4,.3-8.3.3-11.9.5s-11.2-1.9-15-1.2-2.1,1.8-2.8,1.9c-1.2.2-3.1-3.6-7-.9s-.8,2.2-2.4,2.4c-5.1.7-7.2-3-11.5-2.7s-1.9,1.5-3.2,1.2-1.6-1.9-2.5-2.3c-4-1.9-11.6,1.6-15.8,1.7s-3.7-1.3-5.4-1.4-3.1,1.1-4.7,1.3c-2.3.2-11.4,1.1-10.3-2.2s6.1-2.7,4.7-3.8-16.4.4-6.7,4.4c-4.1,6.4-3.5,1.9-5.1-.3s-2.8,1.6-4.1,1.9-1.6-.6-2.5-.4c-5.2,1.1-6.5,0-10.2.5s-7.3,5.9-3.8-2.7c-.9-.8-6.2,2-7.1,2-1.3,0-3.5-1.9-5.4-1.9s-3.6,1.2-5.2,1.1c-2.4-.2-4.5-2.9-5.6-3.1s-5.9,2.4-7.3,2.5c-3.2.4-5.7-.7-8.1-.7s-5.1,2.5-8,1.4l-1.5-4.8c-2.5-.4-4.8,2.8-6,2.7-1.7,0-5.7-3.3-6.1-3.4-1.4-.3-1.3,1.8-2.1,2-3.5.9-6-1.6-8.6-1.4s-3.9,3.7-5-1.9l2.7-1.3c-5.8-1.3-4.2,2.8-4.8,3.3s-2.5.1-2.6,0c-.2-.2.3-2.4-.7-3.1s-3,.1-4-.4-.6-2.5-2.5-2.5c-5,0-3.1,4.2-3.8,5.3s-7.6.9-9.1-.5,0-4.8-4-4.1-1.7,1.6-3.1,1.4c1.9-4-7.7-4.6-9.7-3.9s0,3.8-2.4,3.3v-10.4c0-1-2.1-4-3.4-3.7,0-6.1,0-12.1,0-18.2Z"/><path class="g" d="M252.7,418.5c3.1,1.1,7.4,9.1,10.4,8.8s.9-2.5,2.4-1.4-1.2,1.5-1.5,2.2c-1.5,4.2,7.3-.3,5.3-2.9s-2.2-.5-3-1-.8-1.6-1.4-2c-1.2-.8-3.2.5-2.7-1.7,3.9,2,4.4-2,6.5-2.6s4.4-.8,7.6-1.8,5.4.7,5.5-5.4-4-10.5,3.4-8.1,3.2,3.7,4.7,2.8c3.8-2.4-.9-5.7-1.2-6.9-1.4-4.5,3.3-3.2,4.3-4.9s-1.1-4.7,3.3-3.3,1.4,7.1,1.1,7.3c-.5.4-5.7-1.2-4.7,2.7.7.7,6-2.9,5.4,3.6s-2.7,4.6,0,5.8c-7,9.3-5,17.5-3.4,28.3.2,1.1-.3,2.5,0,3.6s1.7.9,1.9,1.1,1,1,1.3,1.3.6.4.7.7c.2.4-.3,1.6,0,2s1.1,0,1.3,0c.3.2.4.5.7.7s.4.5.7.7.4.5.7.7.4.5.7.7c11.1,8.6,25.4,10.9,37.7,2.7v30.3s-22.9.7-22.9.7c-16.6-16.6-33.2-33.3-49.9-49.9,1.4,1.3,4.3-1.6,4-3.4-1.9-1.1-5.3,2.2-4,3.4-4.9-4.9-9.9-9.9-14.8-14.8Z"/><path class="h" d="M327.5,396.9c1.9.2,6.3,1.4,8.1,2l.7.7c.2,0,.5,0,.7,0l.7.7c.4.2,1,.4,1.3.7s1.2.5,1.3.7c15.9,13.3,18.4,38.3,0,50.5s-26.6,5.9-37.7-2.7l-.7-.7c-.2-.2-.4-.5-.7-.7l-.7-.7c-.2-.2-.4-.5-.7-.7l-1.3-2c0-.2-.5-.5-.7-.7.5-1.6-1.3-1.2-1.3-1.3-.4-.6-.3-4-2-4.7-1.7-10.8-3.7-19,3.4-28.3,7.2-9.6,17.7-14,29.6-12.8ZM340.3,444.8c10.9-10.1,10.7-25.6,0-35.7s-27.8-9.2-36.9,2.5c-18.6,23.9,13.7,55,36.9,33.2Z"/><path class="b" d="M339.6,236.6c0-2.5,0-5,0-7.4s0-1.8,0-2.7c0-1.3,0-2.7,0-4,0-2.5,0-5,0-7.4-.2-8.3.3-16.7,0-24.9s.2-5.1-.7-8.1c.9-.3.6-1.3.7-2,0-1.8,0-3.6,0-5.4,0-18.9,0-37.8,0-56.6,0-12.1,0-24.3,0-36.4s-.6-6.1.7-8.1c0,53.1.6,106.3,0,159.4,0,1.1.4,3-.7,3.7Z"/><path class="f" d="M326.1,492h14.2s0,14.2,0,14.2c-4.7-4.7-9.4-9.4-14.1-14.2Z"/><path class="e" d="M124,738c-.6,2.1,2.1,1.3,4,1.3s1.3,0,2,0c2.5,0,6.8,1.7,6.7-1.3.4,0,.9,0,1.3,0l1.3,3.4c-6.8,2.4-13.9.6-20.9.7-.9-3.2,2.6-1,2.7-4,.9,0,1.8,0,2.7,0Z"/><path class="h" d="M578.8,531.1c-1.9,3.5-8.9,3.5-11.9,1.5s-1.2,0-.9-1.5h12.8Z"/><path class="h" d="M619.2,531.1c.2,2.3-4.1,2.7-5.7,2.7s-6.5-.2-6.4-2.7h12.1Z"/><path class="i" d="M136.8,738c0,3.1-4.2,1.4-6.7,1.3-.7-2.3,4.5-1.3,6.7-1.3Z"/><path class="i" d="M124,738c1.9,0,4.6-.8,4,1.3-1.9,0-4.6.8-4-1.3Z"/><path class="q" d="M339.6,236.6h-.7c.3-2.3-.8-5.6.7-7.4,0,2.5,0,5,0,7.4Z"/><path class="h" d="M181.2,644.3c-.2.2-6.5.2-6.7,0s.1-2,0-2.7c1.5.6,4.9-.8,5.7-.6,1.1.3,1.4,2.9,1.1,3.3Z"/><path class="l" d="M579.5,602.5c-.2,1.7.6,6.2-.6,7.1-2.7,1.9-42.4-.8-48.9.3-3-.5-1.3-5.2-1.7-7.4h51.2Z"/><path class="f" d="M60,374.7c-3.8-.6-1.4-4.7-1.5-7.1-.5-20.6-.9-39.4.8-60,.4-4.6.1-9.6.7-14.2s.5-2.1,1.3-1c-.1,13,.2,26.1,0,39.1-1.8-.4-1.4.9-1.6,2.1-.3,2-.9,3,0,5.1,1.5,3.4,1.5-1.2,1.5-2.5,4.9-1.1,1.2-5.6,1.5-8.9s1.1-2.3,1.1-3.6c.2-2.8-.3-6.1,0-8.7.5-4.1,1.9,2.1,2.2,2.6.6,1.1,2.3,2.2,2.5,3s-1.3,5,.9,6.2,3.4-1.5,3.9.4-2,2-2.1,2.8c-.2,1.5,1.5,6.4,0,9,.6.6,4.7-1.8,6.7.3s1,11.5,6.7,9.8c-1.3-2.7-.8-6-1.3-8.3s-6.3-2.5.4-4.5c3.7.8,8.2-1,11.8.2s3.7,4.8,5,5.1c1.9.4,2.1-7.5,6.7-4.1s1.2,5.1,1.1,5.8c-.2,1.6-1.9,1.4-2.1,2.2-.4,1.6-.1,4.1,1.9,2.8s1.9-5.1,2.3-6.2,1.6-1.4,1.9-2.9c1.2-5.9-2.6-2.9-3.4-3.7-.3-3.9,1-3.4,4-2.7.7-2.5-3.7-3.4-1-5.4,1.6-.3.9,2.8,3.9,2s.7-2.7,1.8-1.4-.2,1.7,0,2,3.4,0,4.7.4c2.2.6,3.3,3,4.2,3.5,1.9,1.2,5.2-.5,3.3,3.4s-2.6,2.5-2.7,3.3.8,2.1.5,3.2-2.4,1.3-2.6,2.2,1.8,4.2,2,4.3c1.4,1,1.8-2.2,2.5-2.7s3.5-1.2,3.5-2.3-4.1-4.5-.8-5.6,3.7-.4,4.2,1c1,3,.2,3.8-2.6,4,.9,1.8.6,5.7,2.7,6.1,4.7.9,3.4-3.3,4.7-4.1s2.6,0,3.6-.4,3.4-3.1,3.5-3.3c1.2-1.9-1.3-2.6-1.7-4.4s.2-11.5,2.4-12.4.9,2,2.2,3,2.4,0,3.1,1c1.1,1.4,0,4.4,4.4,4.1.6.7-2.4,5.1-3.3,5.8-1.8,1.3-3.4.5-4.8,2,1,2.8,1.5,4.9,5,4.3s3-4.4,3.9-5.9,3.9-2.8,4.3-2.9c2.3-.2,2,1.9,2.8,2.1,1.8.4,5.2-.5,7.1.7s.4,1.3.5,1.3v.7c-1,.9-.9,1.2,0,2,2,1.8,5.8.2,8.1,0,4.1-.5,8.3,1.7,12.1-.7.4,0,.9,0,1.3,0s.7,1.4,2,0,1.2-1.9-.7-2c-3.9-1.1-9.6-1.1-13.5,0-.4,0-.9,0-1.3,0-.4-1.6-7,.4-6.1-1.7s5.4-3.5,7-4.5,1-1.9,1.5-2c1.6-.3,2.6,1.1,3.8,1.2,3.3.2,8.1-1.6,11.9-.5.9,2.5-3.7.4-2.7,2.3s3,.8,4.2,1.2,1.6,2.1,3.2,1.9l.4-3.4-3.8-1c1.9-2.9,3.9-1,6.4-1,5.1,0,1.4-2.4,3-4.5s5.5,1.2,5.5-2-3.5-3.3-5.4-2.4c.1-.7-.2-3.2,0-3.4s5.7-.7,6.7-1.3c-1.4,3.6,2.4,4.5,2,6.4s-7.4,7-5.4,11.8c1.4.3,1.7-1.2,2.7-1.7s2.2-.1,2.6-.5c.8-.7-.7-3,4.5-2.6s1.5,2.6,3.4,4.1c3.4,2.5,4.2-1.2,4.8-1.3,1.2-.3,3.3.4,4.2,0s.2-2.5,1.9-3.1,2,0,2.9-.5c2-.8,3.7-3.1,6.4-1.1-.4,5.5,2.7,9.8-5.1,6.8.2,1-.2,5.8,0,6.1.3.3,4.4-1,5.3,1.8s-1.2,4.9-1.2,7.6c.2.2,3.7-.3,4.2-.7,1-.6.2-2.9,2.9-3.4,5.5-1,4.2,2.5,5,3.4s1.7-1.5,2.3-2c3.1-2.7,4.5.9,8-.1s.7-5.5,1.2-5.9c1.3,0,3.4.4,4.4,1.4,1.8,1.8,0,5.9,2.7,6.1,5.5.4-.2-7.4,4.7-8.2s0,5.2,2,6.1.8-3.1,2.1-3.4c4.6-1.1,5,2.3,7.3,2.7s6.4.2,7.3,0c2.1-.7.7-4.9,1.1-5.3s3.2.6,4.4-.6,2.8-7.9,3.3-8.1,1.7-.2,1.7.4c-2.2,5.2,2.8,2.8,3.7,4.3s0,2.8.6,4.1,2,1.4,2.3,2.5c.4,1.6-1.7,4.5.4,4.2s4.3-.5,4.4-.6c.3-.3-.2-2.4,0-2.7s5,.2,6.1,0c-.3-4.9-6.6-2.6-8-3.5s.6-6.8,1.3-7.3,2.8,3,4.7-.3.6-3.2.6-5.1c2,.7,4.9,0,6.7-1.1s.2-2.2,2-1.6c.5.6.5,9.5.7,11.1,1.3,11.6,1.3,21.5,1.3,33.4-5.6-3-3.3,0-4.4.7s-4.3,0-5.7,2.3.9,3-1,4.3c-3.2,2.2-6.2-1.4-7-.6s.2,3.1-2.2,4.2-2.6-.9-4.5-.9l.7,5.4c1.5-.2,2.8-1.4,4,.3l-4,2.4c.5,4.5,5.3.3,6.9.8s3.9,3.7,5.9,4c-12-1.2-22.5,3.2-29.6,12.8-2.7-1.2-.2-3.9,0-5.8.7-6.6-4.7-3-5.4-3.6-1-3.9,4.3-2.2,4.7-2.7s.5-6.8-1.1-7.3c-4.4-1.4-2.2,1.5-3.3,3.3s-5.6.4-4.3,4.9,5.1,4.5,1.2,6.9-2.9-2.2-4.7-2.8c-7.4-2.4-3.3,4.5-3.4,8.1,0,6.1-1.9,4.2-5.5,5.4s-5,1.1-7.6,1.8-2.6,4.6-6.5,2.6c-.5,2.2,1.5.9,2.7,1.7s.7,1.6,1.4,2,2.5.3,3,1c2.1,2.6-6.8,7.1-5.3,2.9s2.6-1.3,1.5-2.2-2.2,1.4-2.4,1.4c-3,.3-7.3-7.7-10.4-8.8l-.7-.7c-.2-.2-.4-.4-.7-.7-6.7-6.7-14-13-20.2-20.2,1.1,0,2.5.4,2-1.3h-4.7c-.7-.7,2.6-4.7,4.1-3s1.2,4.4,6,3.6c.3-2-.4-1.1-1.5-1.3s-.6-1.9-.5-2c.4-.5,2.4.7,3,.7s0-2,2-1.3,2.1,3.8,3.1,2.6-1-5.2,3.6-4.1.8,1.6,1.4,2.1,2.2.4,2.4,1c1.2,2.9-6.8,2-2.9,5s4.1,0,7.3,0,3.5,3.2,7.1,1.4l-4,8.8c2.3.8,4-2.1,5.7-2s1.7,1.6,3,1.3l.7-14.5c-2.5-3.4-3.3-6.3-2.1-10.5-3.2-.2-8.2,3.3-5.2,6.6s4.3.7,3.9,2.5-4.3,1.7-5.1,1.7c-2.8,0-1.6-6.9-2.9-7.8s-5.8-.9-6.3-.8c-1.7.3-2.2,2.4-4.5,1.6s-5.5-3.5-5.7-3.8c-.8-1-1.4-5.7-2.4-2.4-1.6,5.3-1.1,2.6-5,3.8s-.5,2.3-4.5,2.6c-.6,3.3-5.9,2.6-8.8,2.7-.6-1.3,1.9-2.4,2.5-2.5,2.1-.4,4.2,0,6.2-.2.1-.7.1-2.7,0-3.4,3.7.1,2.2-.9,3.4-1.7,1.7-1.1,3.3,1,2.7-3.1-2.1,0-3.9-.4-5.8.6-3.2,1.8-.5,3.1-.3,4.1-4.1-.2-3.7-2.4-5.7-2.7s-.8,1.2-1.8,1.6-3.2.2-3.9.8-1.4,3.6-1.2,4c.2,1.1,2.6.5,2,2.4h-23.6v.7h24.6c.3,0,1.2,1.7,2.1,1.9,1.6.3,5.2-2.1,5.6,2.2-1.5.2-3.5-.3-4.9,0s-.4,1.2-.9,1.3c-1.5.3-3.8-.7-4.9.7-1.8,0-3.6,0-5.4,0-1.1-1.6-6.1-2.4-5.4,0-.4,0-.9,0-1.3,0-2.6-2.3-5.2-2.2-8.5-2s-2.7-.7-2.3,1.3c-2.7,0-4.8.6-7.4.7l5.1-2c-2.7.2-5.5-.2-8.1,0s-1.7-.3-1.7,2c-.9,0-1.8,0-2.7,0-.2-1-2.4-1-2.7,0-.2,0-.5,0-.7,0-.7,0-1.4,0-2,0l.7,33c-1.7.5-1.6-1.4-1.8-2.5-.8-4.2,1.1-10.9-4.2-11.6l-.7,3.4c-1.4.5-2.6-1.3-3.6-1.2s-3.1,2.8-5.1,1.9l-.7-8.1-4,.7c-1.1-7,1.9-4.2,4.1-5.7s.4-5,.7-6.7,2.7-5.9,2.7-6.8-2.6-2.5-2-4.4c-1.7,1.2-5.1,1.2-6.3,2s-.9,5.2-6.1,3.3-.3-3.6-2.7-2.6-2.5,5.5-6.4,4c1.6-4.4,0-5-1.5-8.3s-.4-3-.5-3.2c-.3-.3-2.1.3-2.6,0-.7-.5-.1-4.9-.7-6-1.5-1.1-8.7,7.6-8.1-1.4h-2c.8,1.9-1,3.6-1.2,4.5s1.3,2.7,1.3,4.6-2,4.4-1.4,7.1c3,.3,3.5-3.5,6.7-2.7-2.6-3.3.3-12.6,3.2-6.9s-1.4,5.1-.2,7.6c.6,2.1,5.4,1.4,5.1,3s-1.8,4.6-2,4.8c-.8.6-2.1-.4-3.4,0-2.5.6-4,3.5-6.4,3.7-5.1.6-4.6-2.5-5.5-2.8-1.5-.4-5.1.7-6-.6s-.2-3-.4-4.3-1.1-1.8-1.2-2.9c-.2-2.4,3.2-5.4,1.3-6.7s-4.7-.3-5-.3c-1.3.2-2.5,1.4-3.4,1.4s-.8-2.8-2.7-2.8-2.5,5-3.7,5.8-6.7,1.5-7.4,2.4.8,1.9.7,2.7c-.6.5-4-1.3-4.4-2-1.4-2.6,1.7-7.1-.8-8s-2,3-3.8,4.5-3.6.6-3.9,1.9,2.1,1.9,1.9,3.2-3.3,7.6-5,6.5c-2.5-2,1.3-4.1-.4-6.7-8.2,4-9.2,3-8.8-5.8.1-2.6,2.3-6.5-1.3-5.7.4,2.7-.7,5.1-.7,7.8-.1,4,.2,8.7,0,12.8s-.6,9.5.6,14.5c-1.1.5-2.7-1.9-2.7-2.4v-45.5h-1.3c-.1,1.8.1,3.6,0,5.4ZM195.4,335.6l-4,1c.9,1.6,4.5,1.1,4-1ZM224.4,339c-1.4-.4-1.8,1.3-2.7,1.7s-2.6.2-3.7,1-.9,1.6-1.7,2.4-3.8.8-2.5,3,5.5,4.4,6.6,3.4c.5-5.7.5-3.7,3.9-5.2s-.3-3.6.2-6.2ZM202.8,341h-2.7s0,1,0,1c.7,1.1,1.4,1.2,2.7,1v-2ZM205.5,343c-3.9.7-1.8,5.4-2,8.1,3.9-.7,2-5.4,2-8.1ZM237.2,345.1c-1.6-1.6-4.7,2.9,0,3.4-.1-.7.2-3.2,0-3.4ZM173.9,351.7c-.7-.4-1.3-5.5-5.5-3.9-1,.8,2.8,3.4,3,4.1.4,1-.8,2.4.3,3s7,.3,7.4-.4c1.9-3.1-4.4-2.3-5.2-2.8ZM61.3,349.1h-1.3v3.4h1.3v-3.4ZM188.1,355.7c-.3-.2-.4-1.2-1.3-1.7-4-2.4-6.7,1.2-1,3.7s2.1,0,2.7.3.5,2.8,1.9,3.2,3.6-1.2,3.6-2.9c-.1-4.4-4-1.5-5.9-2.6ZM287.7,358.5c-.1-.1-2.8,0-3.7,0-1.4,0-1.1,0-1,1.3l4.7.7c0-.6.2-1.8,0-2ZM336.9,366.6c-4.7-.9-5.3-.9-4,4,1.4.4,1.3-.8,1.9-1.2s2.9-2.3,2.2-2.9ZM219,368.6h-1.3v2h1.3v-2ZM112.5,370.7c-8-1.9-6.8,9.4-1.7,9.4s.9-2.9,1-4.4,1-3.3.7-5.1ZM65.4,372h-1.3v2h1.3v-2ZM159,372.7c-1,.4-5.8,1.1-6.1,1.4-1.8,1.9,4.4,3.7,5.6,3.3,2-.6.4-3.3.4-4.7ZM142.8,381.4c1.5-3.2-5.4-3.1-6.1-1.7-1.2,2.9,4.7,1.3,6.1,1.7ZM150.2,379.4c-4.4-1.4-5.3,7-3,8.1s1.1-1.3,1.3-2,2-5.7,1.7-6ZM158.3,387.5c1.8.3,3.8-2.6,1.7-3.4s-1.6,1.5-1.7,3.4ZM202.1,384.1c-1.3-.9-4.1,2.8-1.3,4.4,4.4,2.6,2-3.9,1.3-4.4ZM312.6,384.1h-2.7v1.3h2.7v-1.3ZM194.7,388.9c.1-3.4-2.8-4.6-4.7-1.7l4.7,1.7ZM283.7,390.9c1.5,1.4,6.7-4.6,3.7-5.4s-4.2,4.9-3.7,5.4ZM274.9,392.9c-.4-.3-.6-6-4.5-4.2s2.2,3.6,2.5,4.6c.5,1.7-1.7,2.5-1.9,3.4s1,1.8,1.1,2.7c.3,1.8-1.5,4.4,3.2,4.3s5.3-3.3,5.1-6.5-1.3-4.8-1.5-5c-.5-.5-3.4,1.1-4,.6ZM169.8,390.2h-2.7s0,1,0,1c.7,1.1,1.4,1.2,2.7,1v-2ZM179.9,390.2h-2c-.2,1.2,0,2,1,2.7h1s0-2.7,0-2.7ZM164.4,390.9c-.6-.7-2.7,1.4-2,2,1.2,1,3-.9,2-2ZM311.9,391c-3.6-2.3-1.6,5-1.3,6.7,3,.2,2.7-5.8,1.3-6.7ZM172.5,394.9c-8.8-2.8-3.2,3.4-5.2,7.9s-4.1,1.9-5.2,2.8c-2.9,2.3,4.1,3.3,6,1.4.6.1,1.4,5.1,3.4,2s-1.3-6.2-1.1-8.4,1.7-3.5,2-5.7ZM303.9,396.9c.7-.6-1.4-2.7-2-2-1,1.2.9,3,2,2ZM309.3,395.6c-.6-.5-4.5.8-4,2.7.6.2,5.3-1.6,4-2.7ZM245.9,399.6c-.2-.3-1.7.7-2.4.6-1.1,0-1.8-1.4-2.6-1.3-3.6.7,3.7,6.8,5,3s.2-2.2,0-2.3ZM161,400.3c-.7-.7-2.1.6-1.3,1.3s2.1-.6,1.3-1.3ZM257.4,412.4c.5-.5,0-4.8-2-4v4c.5,0,1.9.1,2,0ZM163.1,411.8c-.5-.5-3,.3-2.7,1.7.5,2.5,4-.4,2.7-1.7ZM272.2,415.1c.5.5,3-.3,2.7-1.7-.5-2.5-4,.4-2.7,1.7Z"/><path class="g" d="M229.1,384.1c-.2-1-2.8-2.3.3-4.1s3.7-.6,5.8-.6c.6,4.1-.9,2-2.7,3.1s.4,1.8-3.4,1.7c.1.7.1,2.7,0,3.4-2.1.2-4.1-.3-6.2.2s-3.1,1.2-2.5,2.5c2.8-.1,8.2.6,8.8-2.7,4-.3,3.2-2.2,4.5-2.6,3.8-1.2,3.3,1.5,5-3.8s1.5,1.4,2.4,2.4,5.4,3.7,5.7,3.8c2.3.7,2.8-1.4,4.5-1.6s6,.7,6.3.8c1.3.9.1,7.7,2.9,7.8s5-.9,5.1-1.7c.4-1.9-3.2-1.7-3.9-2.5-2.9-3.3,2.1-6.8,5.2-6.6-1.2,4.1-.4,7.1,2.1,10.5l-.7,14.5c-1.4.3-1.8-1.3-3-1.3s-3.5,2.8-5.7,2l4-8.8c-3.5,1.8-3.8-1.4-7.1-1.4s-3.9,2.6-7.3,0,4.1-2.1,2.9-5-1.7-.4-2.4-1-.7-1.9-1.4-2.1c-4.6-1.2-2.6,3-3.6,4.1s-1.9-2.2-3.1-2.6c-2-.7-1.5,1.3-2,1.3s-2.6-1.2-3-.7-.4,1.9.5,2,1.8-.6,1.5,1.3c-4.8.7-4.2-1.4-6-3.6s-4.8,2.3-4.1,3h4.7c.5,1.7-.9,1.3-2,1.4-4.8.3-10,0-14.8,0,1.1-1.4,3.4-.3,4.9-.7s.4-1.2.9-1.3c1.4-.3,3.4.2,4.9,0-.4-4.3-4-1.9-5.6-2.2s-1.8-1.9-2.1-1.9h-24.6v-.7h23.6c.6-1.9-1.7-1.3-2-2.4s.8-3.7,1.2-4c.8-.5,2.7-.3,3.9-.8s.5-1.8,1.8-1.6c2.1.3,1.7,2.6,5.7,2.7Z"/><path class="g" d="M204.2,396.9c-3.6,0-7.8-.7-10.8-.7-.4-2,1-1.3,2.3-1.3,3.2-.1,5.9-.2,8.5,2Z"/><path class="g" d="M181.2,396.9c0-2.4-.4-1.9,1.7-2s5.4.2,8.1,0l-5.1,2c-1.6,0-3.1,0-4.7,0Z"/><path class="g" d="M210.9,396.9c-1.8,0-3.6,0-5.4,0-.7-2.4,4.2-1.6,5.4,0Z"/><path class="g" d="M178.6,396.9c-.9,0-1.8,0-2.7,0,.3-1,2.5-1,2.7,0Z"/><path class="g" d="M252,417.8l-.7-.7c.2.2.4.4.7.7Z"/><path class="g" d="M338.9,374v2c-2-.7-2.2,3.3,0,2.7v22.2c-.4-.3-.9-.4-1.3-.7s-.3-.5-.7-.7-.5,0-.7,0-.2-.5-.7-.7c-1.8-.7-6.2-1.8-8.1-2-2-.3-4.9-3.7-5.9-4-1.7-.4-6.4,3.8-6.9-.8l4-2.4c-1.2-1.8-2.5-.5-4-.3l-.7-5.4c2,0,2.4,1.8,4.5.9s2-4.1,2.2-4.2c.9-.8,3.8,2.8,7,.6s-.2-2.4,1-4.3,4.4-1.3,5.7-2.3-1.2-3.7,4.4-.7ZM333.5,393.6c-1.7-.2-3.5,0-3.4,2h3.4s0-2,0-2Z"/><path class="c" d="M185.3,252.7c.2.2-.1,2.1,0,2.7,1.7-.9,3-.9,4.7,0,.1-6.7,2,0,2.4,0,.8-.3,0-2.4.3-2.7s2.2.4,2.9.4,1.5-.6,2-.5,0,1.4.8,1.4-.3-1.6,1.4-1.4,2.9,3.2,4.9,1.9,0-1.8,2.5-1.9c4-.3,2.6,2.8,3.4,2.8l.3-2.7c2.1-.6,1.8,2.7,2.4,2.7,2.1,0,.5-1.8.3-2.7h2s0,4.7,0,4.7c-2.6-.5-5.7-1.8-8.3-.6s-.3,1.3-.8,1.3c-1.6,0-1.2-1.8-2.2-2.1-2.2-.6-5.9,2.2-5.6-.6h-.7c.3,2.6-3.9,1-5.8,1-4.7,0-8.9.3-14.2,0s-2.2.6-3.2.4c-1.9-.6-1.1-4-.1-4,1.5,0,10.1-.4,10.4,0Z"/><path class="h" d="M182.6,341.7c.4,0,.9,0,1.3,0,4.5,0,9-.2,13.5,0s2.1.5.7,2h-2c-.4,0-.9,0-1.3,0-4.4,0-8,.2-12.1.7s-6.1,1.8-8.1,0v-2.7c.4.2,6.7,0,8.1,0Z"/><path class="c" d="M280.9,252.8c.3.3-.1,3.1,0,4-2-1.2-10.1.7-10.7-1.1-1.8-5.7,4.4-2.5,5.7-2.6s3.8-1.6,5-.4Z"/><path class="h" d="M177.9,312c.2.2,1.2,5.1-2.2,3.9s.5-5.7,2.2-3.9Z"/><path class="g" d="M61.3,331.6c0,1.6,0,3.2,0,4.7s0,5.9-1.5,2.5-.3-3.2,0-5.1-.2-2.5,1.6-2.1Z"/><path class="f" d="M338.9,376.1c0,.9,0,1.8,0,2.7-2.2.6-2-3.4,0-2.7Z"/><path class="p" d="M57.9,53.9c1.3-.3,3.4,2.7,3.4,3.7v10.4c2.5.5.4-2.6,2.4-3.3s11.6,0,9.7,3.9c1.3.2,1.8-1.1,3.1-1.4,3.9-.7,2.3,2.6,4,4.1s8.2,1.9,9.1.5-1.2-5.3,3.8-5.3,2,2.3,2.5,2.5c.9.5,2.9-.3,4,.4s.4,2.8.7,3.1,2.5.1,2.6,0c.6-.6-1-4.7,4.8-3.3l-2.7,1.3c1.2,5.6,2.5,2.1,5,1.9s5.1,2.3,8.6,1.4.7-2.4,2.1-2,4.4,3.4,6.1,3.4,3.5-3.1,6-2.7l1.5,4.8c2.9,1.1,6.1-1.4,8-1.4s4.9,1.1,8.1.7,6.9-2.6,7.3-2.5c1.1.2,3.2,2.9,5.6,3.1s3.4-1.2,5.2-1.1,4.1,2,5.4,1.9,6.2-2.8,7.1-2c-3.6,8.6.7,3.1,3.8,2.7s5,.5,10.2-.5,1.8.5,2.5.4c1.3-.2,2.2-4.6,4.1-1.9s1,6.7,5.1.3c-9.7-3.9,5.3-5.5,6.7-4.4s-4.2,2.4-4.7,3.8c-1.1,3.4,8,2.4,10.3,2.2s3-1.3,4.7-1.3,3.2,1.4,5.4,1.4c4.3-.2,11.8-3.6,15.8-1.7s1.5,2,2.5,2.3,2-1.1,3.2-1.2c4.3-.3,6.4,3.3,11.5,2.7s1.1-1.5,2.4-2.4c3.9-2.6,5.8,1.1,7,.9s1.2-1.6,2.8-1.9c3.8-.8,10.8,1.4,15,1.2s8-.2,11.9-.5,6.7-2.1,8.1-2,3.9,3.1,5.5,3.2,3.1-3.1,5.9-2.6l1.4,2.7c1.2-1.5,9.4-2.3,9.8-2.7,1.2-1.5-1.6-2.6-2-3-3-3.6,3.1-5.3,5.7-1.6s1.3,2.9,1.6,3.8c.5,1.6-.5,5.8,2.2,5.6,0,12.1,0,24.3,0,36.4l-3.1-7.4c-3.1-.8-5.3,1.5-8.1,1.9s-2-.5-3-.4-2.1,1.3-4.2,1.3c-3.5,0-4.5-2.9-6.2-3.4s-2.3,1.3-3.9,1.3-.7-2-2-1.4c-2,.9,1.9,4.9-4.8,4.1s-5.3-5.1-6.7-4.8-.7,1.6-1.5,2-9.1,2.5-10,2.7c-4.8.7-6.5-2.8-9.4-2.6s-1,3.1-5.4,2.7-1.6-2.3-3.2-3l-12.2-3.2c-3,6-11.6,1.9-16.8,3.5s0,5-7.6,3.9c-2-.3-2.8-1.7-4.1-1.9s-4.4,1.2-5.9,1-5.1-4.2-6.8-4.5c-3.3-.6-7.1,1.3-8,1.2s-1.8-1.6-3-1.8-2.5.6-3.7.4c-2-.2-5.7-3.1-7.6-3.2s-3.2,1.6-4.6,1.4-1.7-4-2.6-4.6-3.6-.9-4.2-.9c-2.5,0-1.9,1.7-3,2.4s-1.6.2-2.1.4c-.7.4-.4,1.3-1.5,1.3-2.8,0-7.2-1.1-10.2-1.3s-2.8-.1-5.4-.5-1.7.6-2.5.4-1.6-3-3.6-3.2-2,3.2-3.8,3.2c-1.9-.1-2.7-3-3.6-3.3s-5.5,1.5-7.8,1.2c-3.3-.5-3.2-2.7-4.2-3.2-2.5-1.1-1.1,2.2-2.6,3.4-3.5,2.9-6-2.5-9-2.6s-2.1,1.1-3.3,1.2-3.6-1.8-6-2-8.2,0-11.5,0-2.9.8-4,.7c-2-.1-.9-2.6-3-2.1.3,1.3-.4,5.8-2.4,5.4-2.1-1.2,1-4.4-1.4-5.4s-2.5,3.3-3.4,3.4-4.8-.6-5.3-.7c-2.6-.6-5.6-2.8-8.8-2.6s-2.7,2.5-4.3,1.7-5.2-7.7-4-9.8c-4,.6-.9,5.4-.6,7.7s.6,5.2-1.4,4.4c.7-2.1-1.1-3.6-1.3-5.1-.3-2.1.3-4.5,0-6.7s-2.4-5.3-2.7-7.4c-1.1-8,0-20.7,0-29.4ZM175.9,102.4h-1.3v2h1.3v-2Z"/><path class="j" d="M181.3,118.6v3.4c-10,1.3-9.8-4.7,0-3.4Z"/><path class="j" d="M181.3,140.9c1.1,4.5-3.5,2.2-6.7,2.7-1.1-4.5,3.5-2.2,6.7-2.7Z"/><path class="e" d="M192.7,792.5c-.4-2.4-2.8-1.3-1.4-4.7-3.7,1.2-2.3-.3-2.7-.6-1.2-.9-2.2,2.6-4.4,2.7s-2.2-1.2-2.3-1.7c-.4-1.9,5-2.2,5.4-4s-2.5-1.9-3.7-1.7c-.7-6,5.3-2.1,7.3-2,3.7.1,8.8-3.5,9.5,2.7.9-.3,5.5-1.8,5.6-2.1.9-1.4-3.1-3.5-2-6-1.9-.4-1.4,1.6-3.1,2.6-4.5,2.7-7.5-3.4-4.3-5s3.2.4,4.8,0,1.4-2.3,2.9-2.4c3.3-.1,2.3,5.5,7.1,4,1.2-6.2-7.6-4.2-6.1-10.8,5.2.7,4.6,7.8,11.4,6.7v-4c1.2-.2,2.6.8,3.6.7s2-3.2,4.5-2.1l.6,3.8c1.6,1.1,5.8-3.1,4.1,3.6,3.9-1.3,7.5.5,11.4.7.3,2.3-2.8,1.7-3.7,3.4s-1.3,6.1-1.1,7,1.7.5,2.4,1.1c5.7,4.9,1.2,6.4,1.7,8.4s3.2,0,3.8-.1c1-.2,2.2.8,3.2.4s.9-2.5,1.7-3c1.3-.9,5.2.4,7.5-2.6s-2.2-5.1-1.4-5.7c1.5-1.3,5.8,2.3,4.7,4.7,2.3.4,3.1-3.5,4.5-3.9s3.4.3,4.2-.2.4-2,1.1-2.6,2-.5,2.3-.8c.4-.5-.2-1.9.2-2.5s2-.3,2.5-.9,1.5-11.2,4.2-8.6l-.7,4c5.9.7,2.4-4.5,2.7-6.4.6-2.8,3.7,1.3,5.2,1.5s2.8-.8,4.2-.6c.3.3-.2,4.9-.8,5.3s-3.1-.5-3.9,1.1c0,1.2,1.4,1.7,1.9,2.8s1,5.8,4.2,3.9,1.5-3.7,1.3-5.1c2.9.2,3.2,3,2.2,5.2s-4.7,3.2-3.5,4.8,3.6,2.6,3.8,2.7c1.4.4,2.6-1.1,3.9-1.3,6.6-.6.6,6.3-2.6,4.1s-.8-1.8-1.5-2c-1.2-.3-3.7,1.5-5.7.2s-.3-2.4-2.7-1.7c1,2.3-1.4,2.9-1.4,3,0,.3,2.1,5.3,2.4,5.7,1.3,1.9,4.5,2.6,6.6,1.9s3.5-4.4,4.5-4.9c4.8-2.4,5.8,5.8,9,5s1.4-2.6,2-3.1,1.7-.2,2.2-.8-.2-5.8-.4-6.1-4.7-.2-3.3-2.1,3.2-.5,4.4-2,.7-2.9,1.3-4.1c1.2-2.5,8.4-2.3,10.4-.3l-3.7,5.7c-1.5,4.7,3.9,4,4.4,4.7s-1.5,2.9.3,3.4c3.6,1,1.5-4.5,1.6-6.4s.8-6.2.8-6.6c.3-1.3,2.6-2,2.6-3.5s-2-4-2.2-4.2c-1.1-1.1-3.2,0-2.4-2.4s4.6-3.6,3.3-7.2c4.3-.9,2.8,4.2,6.7,2,.3,2,1.2,4.5,1.3,6.5,3.4,58.2,2,122.1,1.4,181.2,0,3,.8,21.6-1.1,22s-5.6.6-6.6.6c-88.6.6-178.9-3.4-267.5-.7-2,0-3.7.7-5.7.7v-130.4c1.9-5.7-.8-10.9,0-16.9s1.5-.7,1.5-2-1.4-2.4-1.5-4c0-2.3,2.1-4.6,2.1-6.8s-1.8-5.5-1.9-8.3c-.4-8.6-1.3-24.1-.2-32.2s3.4-5.7,1.3-10.1c.8-2.7-1-17.6-.3-18.6s2.4-.9,3,.4v31.9c2.7.5.6-4.3,2.5-5.4,4.7-.5,6.4,9.6,5.7,13.1s-3.3-.3-2.1,3.7c2.5-.3,8.8,1.7,9.4-1.7s-1.4-4.4,2.5-5.5,6.7.1,4.5-3.6-4.4-2-3.7-4.4,6.7.8,7.2-3.5-1.5-3.3.5-3c3.6.7,7.6,6.3,10.4,8.4.6,2.5-7.9.9-6.7,5,.7.7,7.1-1,8.3-1.5s2.5-3.9,3.9-2.5.8,6.1-2.2,5.3-3.4-2.6-2.5-.2,2.2,4.9,5.2,5.6,2.5-.8,3.4-1.2,3,.4,3.9-1.4c1.7-3.4-1.3-8.5-1-12.1,2.5.4,4,1.1,6.6.2,3.9-1.3,2.2-5.8,7.8-1.6s-3.1,4.6-4.3,5.2c-4.2,1.9,1.7,2.1,2.7,2.7s1.3,2,2,2.7c1.1,1.2,2.8.4,1.9,3.1s-3.6,4-.5,5.6,3.9-1.9,6.7-1.7v2.6c3.5,1.1,7.4,5.1,10.4.7,4.5-6.4-5.6-3.7-6.4-4.3-3.2-8.4,5.5-4,10.4-5.8,1,4.7,2.9,6.7,8,5.4s.4-1.2.9-1.3,7.3-.8,8-.8c2.1.1,2.3,1.6,3.5,1.9s2.5-.1,3.6.5.2,4.7.6,5.9,1.3.4,1.3.5c.2.4-.2,2,0,2.7,2.2,0,3.1.5,2.7-2,1.1-.3.3,1.1,1.1,1.4s1.2-.1,1.6,0,.4,0,.7,0c2.1.4,2.9.7,5.4.7s3.1-.9,4-.7c4,1,4.1.2,8.1,0s.5,0,.7,0,1,.8,1.6.7-.2-1.1,1.7-1.4c-.4,2.5,1.1.4,2.7,1.3.2.3,1.6.7,2,.7.8,0,1.3-.7,1.3-.7,3.5-.3,5.6,1.2,4.7-3.1s-.4-.7-.7-1c-.7-.8-2.6-.4-2-1.7.9-2,3.9,0,5.4-.4.2-4.3-2.3-2-4.4-2s-2.1-.7-3.3-.6c-2.7.1-6.9,1.7-7.8,4.7-.2-.1-.9,0-1.3,0s-.5,0-.7,0c-.9,0-5.2-.2-5.4,0ZM222.3,771c.7-.6-1.4-2.7-2-2-1,1.1.9,3,2,2ZM227.7,784.5c-.3-.3.8-2.7-1.1-4s-4.6-.2-6.4-1-1.2-2.1-2-2.7-3.2-1.5-3.7-1.7c-1.9-.8.1,5.2.4,5.4s1.7-.9,2.7-.4,1.1,2.7,1.4,3c1.1,1,6.8-1.1,7.3-.6.3,1.8-1.3,2.6-1.4,4.3,0,2.4,2,5.7,2.1,8.1s-1.8,7,2.3,7.1c2.2,0,2.3-3,3.1-4.3,1.6-2.5,7.3-9.4,2.6-11.6s-2.1.6-2.7,0-.5-2.3-.7-2.4c-.5-.4-3.6,1.1-4,.7ZM231.8,782.4c5.8.9.7-9-.7-7.4l.7,7.4ZM122,780.4c-.7-.7-2.1.6-1.3,1.3s2.1-.6,1.3-1.3ZM121.3,782.4c-2.4,1.6-3.2-.2-5.4-.7-.4,1.3.2,5.9,2,4.7s-.1-1,.5-1.4c1.6-1,3.6.4,2.9-2.7ZM97.6,783.2c-.5-.8-7.4-2.1-5.1,1.8s2.3.2,1.9,2.5c-2.8.5-.1,3.5,1,5l2.2-4.5c.2-1.1.5-4.1,0-4.8ZM215.6,783.1c-1,0-2.1.1-3,.7-4,2.9,2.9,4.4,3-.7ZM196.1,784.5c-7.3-2.3-1.4,4.6,0,1v-1ZM64,785.8c-4,.4-2.4,5.3-2.7,8.1,2.6,0,1.9-5.9,2.7-8.1ZM223.7,788.5c-.6-.7-2.7,1.4-2,2,1.2,1,3-.9,2-2ZM262.8,788.5c-.5.5.3,3,1.7,2.7,2.5-.5-.4-4-1.7-2.7ZM161.7,789.2h-2v1.3h2v-1.3ZM270.2,793.9c.2.6-.4,1.9.4,2.1,2.3-.4,4.5.3,6.7.5s1.9-.7,2.3-.5,2.8,3.1,3.4.3-1.5-1.7-2-2.3.2-1.3-1-1.8-2.7.3-3.5.2c-1.3,0-2.5-.8-4.3-.5-.9-1.9,0-3.2-2.7-2.7-.5,2,.3,3.2.7,4.7ZM274.9,789.2c-.7-.7-2.1.6-1.3,1.3s2.1-.6,1.3-1.3ZM159,795.2c.7-.8-1.9-4.6-3.4-3.4s2.8,4.1,3.4,3.4ZM167.8,791.9c-5.5.4-5,.7-4.7,6.1h4.7s0-6.1,0-6.1ZM258.7,791.9c-.7-.7-2.1.6-1.3,1.3s2.1-.6,1.3-1.3ZM154.3,793.9l-6.7-1.3c-.7,6.1,2.9,3.3,6.7,3.4v-2ZM215.6,792.5c-2.3-.5-1.2,3.4-2,4.7,3.5.7,2-2.5,2-4.7ZM116.6,793.2c-.4-.5-5,2.4-4.7,3.7s2.3,1.4,2.7,1-.3-2.2,0-2.7,2.7,1,2-2.1ZM299.8,793.9c-1.6-1-2.4,3-2,3.4,1,1.1,2.7-2.1,2-3.4ZM62.7,795.2h-1.3v2h1.3v-2ZM108.5,795.9c-.4-.4-3.7.7-2.7,2,1.3.7,3.5-1.2,2.7-2ZM162.4,797.9c-1.2-1.2-3.7,1.3-2,3.4,1.8.7,2.6-2.8,2-3.4ZM192,816.1c-.3-.5-1.3-.9-.7-2.7-1.8-.7-1.1,1.2-1.8,1.4-2.4.6-3.2-1.4-3.6,1.3-1.5-.2-.2-2.3-.7-2.7s-9.8.3-11.5,0l.7,4c2-1.1,10.6.6,11.5,0s0-1,0-1.3c1.1.1,2.5-.2,3.6,0s.6,1.3.8,1.3c2.2.6,1.4-.6,1.7-1.4,0,.2,1,1.4,1.1,1.4,2.7.3,10.1-1.8,11.3-1.4s.1,1.8.4,2.1c.4.4,8.4-1.8,10.4,0,.8,0,1-4.3.4-4.7-1.6-1.1-1.8,1.2-2.7,1.3,1-3.5-3.5-1.5-5.7-1s-1.3-.4-1.9-.3-.1,1.2-1.4,1.4c-4.5.8-2.7-1.6-3.1-2.1s-2.9.7-3.7.7c-3.7.1-3.3-2.3-5,2.7ZM270.2,816.8h11.5c-.8-3.8-1.5-7.1-2.4-.7-.8,0,.1-2.3-1-3.1s-7.2-.2-7.4,0c-1,.8-.6,2.6-.7,3.8ZM281,833.7c.8-6.5-2.2-4.1-6.4-4s-3.7-1.5-4.3.4c-1.8,5.9,7.5,2,10.7,3.6ZM185.4,831.5c-.3-.2-.3-1.3-1.2-1.7s-8.6-.3-9.3,0c-1.6.5-1.1,2.6-1.1,3.9,4,0,7.7-.5,11.6.5.7-1.2,4.3-.6,3.9-2.2s-2.9.1-3.9-.5ZM204.7,830.7c-2.3,1.1-3.5-1-5.5-1.2s-6.3,1.1-9.1,0v4c2.9,1.3,13.2-1.4,14.7-.5s.6,1.8,1.1,1.9,1.2-1.2,3.3-1.4c3.2-.3,5.1,1.4,5.4,1.4,2.2,0,1.6-7.6-1-5.4s1,2.5.7,3.4c-1.6-.4-1-2.8-2.4-3.3s-5.6-.3-6.5,0-.5,1-.6,1.1ZM176.5,837.7c-.3,0-1.8-.7-2.7,0,0,.1.5,2.3.7,2.7s.2.5.7.7.9,0,1.3,0c1.8.4,6.1.9,7.8.7s2.7-1.6,4.7-1.5.9,1.3,1.5,1.4c3.4.8,11.4-2,13.9-1.4s.7,1.8,1.5,2,3.3-.7,4.7-.6c2.8,0,5.6,2.2,5.8-1.6s-2.6-1.7-3.8-1.7-.2-1.2-.8-1.4c-.9-.2-4.3-.2-5.3,0-1.6.3-1.9,2-4,2s-.6-1.7-1-2.1c-1.4-1.2-2.2,1.3-2.4,1.4-1.6.3-.7-1.3-1.4-1.4s-6.9.1-7.2.2c-.9.2-3.3,2.6-5.1,2.5.6-3.9-6.2-2.4-8.8-2ZM279,839.7c.2-4.7-5.8-1.3-8.8-2.7,0,.9-.2,2,0,2.9s5.7,1.7,5.6-.2c1.3,1.9,3.7.7,5.7,1.3-1.2-1.3.4-4.6-2-4l-.7,2.7Z"/><path class="e" d="M192,740.7c2.3,3.1-7.6,1.3-8.4,1.3-6.6-.2-13.3,0-19.9.7-.3-1.5.1-1.3,1.3-1.7,4-1.2,6.1-.1,9.1-.3s6.1-1.3,8.7-1.3,8.9.9,9.2,1.3Z"/><path class="e" d="M116.6,740c0,0,.1,2.6,0,2.7-1.1,1.2-10.5-1.2-12.5-1.2s-5.9,1.1-8.4,1.2c-.3-1,.9-.4,1.3-1.2,1.1-2.1-.2-4,4.2-2.7s4,.6,9.6.5,5.5.5,5.7.7Z"/><path class="e" d="M175.9,792.5c.3-.4,1.7-3.7,1.3-4-6.6,1.8-2-1.4-2-3.7s-1.6-.5-2-1.5-.5-2.6.9-2.3,6.2,2.5,6.4,2.7-.9,2.9-.7,4.3,1.6,1.7,1.4,3.1l-2.7,1.4c-.9,0-1.8,0-2.7,0Z"/><path class="j" d="M175.9,792.5c.9,0,1.8,0,2.7,0,4.2,0,6.9-.7,7.4,4-2.5,0-3.3-.3-5.4-.7.3-1.9-.9-1.9-.7,0-.4-.1-1.1.2-1.6,0-.8-.3,0-1.6-1.1-1.4.4,2.6-.5,2.1-2.7,2-.2-.7.2-2.3,0-2.7-.5-1.7,1.3-1.2,1.3-1.3Z"/><path class="c" d="M190,795.9c-.5-3.1.6-5.3,2.4-2,.7,0,.2-1.2.3-1.4s4.5,0,5.4,0v3.4c-4,.2-4.1,1-8.1,0Z"/><path class="e" d="M62.7,740.7c2.1,2.2-6.3,4.7-4.4,0,.9.2,4.2-.2,4.4,0Z"/><rect class="e" x="277.6" y="763.6" width="1.3" height="2"/><rect class="e" x="186.6" y="790.5" width="2" height="1.3"/><path class="e" d="M64.7,766.9c.7.7-.6,2.1-1.3,1.3s.6-2.1,1.3-1.3Z"/><path class="d" d="M175.2,197.5c.2-.6-.4-2.2,1.7-1.3s0,2.1,3,2,4-.5,3.4-2c.3.4,3,0,1.3,2-.3.2-.5.9-1.2,1.3s-3.2.5-3.5.8c-1.8,1.7,4.1,1.4,4,2.3-5.4.3-4.4.6-4,5.1l-4-.7c0-.2,0-.5,0-.7-.1-.6.1-1.4,0-2-.5-2.2-1.1-2.1-3.4-2,.4-1.4,2.9,0,3.8-1.3s.3-3.1-1.1-3.4Z"/><path class="j" d="M186,198.1c-1,4.6,2.1,8.9-4.7,8.4,0,2.8,6.9.9,4.7,3s-5,1.3-6.1.7c0-.9,0-1.8,0-2.7-.4-4.5-1.4-4.8,4-5.1,0-1-5.8-.6-4-2.3s2.7-.4,3.5-.8,1-1.1,1.2-1.3,1,0,1.3,0Z"/><path class="j" d="M172.5,202.2c-.2-.2-.7.1-.7.3,0,.7,1,0,.7-.3,2.3,0,2.9-.2,3.4,2l-.7,2h-4c-.3-1-.8,0-.7-2.7s-.2-3,0-3.3c.7-.8,3.1.9,4.6-2.8,1.4.3,1.8,2.3,1.1,3.4s-3.4-.1-3.8,1.3Z"/><path class="q" d="M339.6,215c0-3.1-.6-6.8-.7-10.1-.2-5-1.4-10.1.7-14.8.3,8.3-.2,16.6,0,24.9Z"/><path class="j" d="M179.9,198.1c-.6-.8-.5-4.8,0-5.1,3.7-2.2,2.8,2.3,3.4,3.1.7,1.5-2.1,2-3.4,2Z"/><path class="c" d="M187.3,187.4c-.3.3-5.6-1.3-7.1,0-2.5-4.7,9.8-2.8,7.1,0Z"/><path class="q" d="M339.6,179.9c0,.7.2,1.7-.7,2-.3-1.1-1.9-2.3.7-2Z"/><path class="d" d="M194.7,196.1c.5.2-.4,1.1-1.3.7s.4-1.1,1.3-.7Z"/><path class="j" d="M186,211.6c.8,5.1-2.2,4.1-6.1,4v-4.1s6.1,0,6.1,0Z"/><path class="j" d="M175.3,223c0,0,2.6.3,1.2,1.4s-7,.8-6.1-2.4,3.8-1.8,4.3-1.7c1.5.3.4,2.4.5,2.6Z"/><path class="j" d="M175.9,212.3c0,1.1.2,1.8.7,2.7-2.1.3-8.3.9-6.1-2.7h5.4Z"/><path class="j" d="M171.8,207.6c-.2,1.9.6,2,.7,0,2,.5,1.8,2.9,3.4,0,0,0,.6.7.7.7.3.8-.6,1.7-.7,2-1.2,1-3,.4-4,.7-2.9.4-.8-2.3-.7-3.4h.7Z"/><path class="j" d="M187.3,221.7c0,3.6-6.4,3.6-7.4,1s2.3-.3,3-.3c1.5,0,2.9-.9,4.4-.7Z"/><path class="f" d="M175.9,212.3h-5.4c.2-.3,1.2-1.3,1.3-1.3,1-.3,2.9.4,4-.7,0,.6,0,1.4,0,2Z"/><path class="o" d="M179.9,207.6c0,.9,0,1.8,0,2.7-1.8-1-.6-1.9-.7-2-.3-.2-2,.2-2.7,0s-.6-.6-.7-.7c0-.1,0-.4,0-.7l4,.7Z"/><path class="q" d="M339.6,226.4c-1.1-.6-1.1-3.4,0-4,0,1.3,0,2.7,0,4Z"/><path class="k" d="M65.4,230.5c.7.7-.6,2.1-1.3,1.3s.6-2.1,1.3-1.3Z"/><path class="k" d="M172.5,206.2c0,.4,0,.9,0,1.3-.2,0-.5,0-.7,0h-.7c0-.4,0-1,0-1.3h1.3Z"/><path class="k" d="M153.6,227.8c.5.2-.4,1.1-1.3.7s.4-1.1,1.3-.7Z"/><path class="f" d="M267.5,433.3c-1.3-1.2,2.2-4.4,4-3.4.2,1.8-2.6,4.7-4,3.4Z"/><path class="n" d="M296.5,442.8c0,0,1.9-.3,1.3,1.3-.3-.3-1.2-1.2-1.3-1.3s-1.5,0-1.9-1.1,0-2.5,0-3.6c1.7.7,1.6,4.2,2,4.7Z"/><path class="n" d="M299.8,446.8c-.1-.1-1,.2-1.3,0s0-1.5,0-2l1.3,2Z"/><path class="c" d="M302.5,449.5c-.2-.2-.4-.5-.7-.7l.7.7Z"/><path class="c" d="M301.2,448.2c-.2-.2-.4-.5-.7-.7l.7.7Z"/><path class="g" d="M340.3,409.1v35.7c-23.3,21.7-55.6-9.3-36.9-33.2,9.1-11.7,26.3-12.6,36.9-2.5ZM321.2,420c-6.7,1.5-7.3,12.9.6,14,11.3,1.6,10.5-16.4-.6-14Z"/><path class="l" d="M340.3,444.8v-35.7c10.7,10.1,10.9,25.6,0,35.7Z"/><path class="f" d="M336.2,399.6l-.7-.7c.4.2.6.6.7.7Z"/><path class="f" d="M337.6,400.3l-.7-.7c.4.2.5.6.7.7Z"/><path class="g" d="M274.9,392.9c.6.4,3.5-1.1,4-.6s1.4,4.3,1.5,5c.2,3.1-1.7,6.4-5.1,6.5s-2.9-2.5-3.2-4.3-1.3-1.8-1.1-2.7,2.4-1.7,1.9-3.4-7.1-2.5-2.5-4.6,4.1,3.9,4.5,4.2Z"/><path class="o" d="M224.4,339c-.5,2.7,3.2,4.8-.2,6.2s-3.3-.5-3.9,5.2c-1.1,1-6.4-3.1-6.6-3.4-1.3-2.2,1.8-2.3,2.5-3s1.1-1.9,1.7-2.4c1.1-.8,2.5-.5,3.7-1s1.3-2,2.7-1.7Z"/><path class="g" d="M172.5,394.9c-.3,2.2-1.8,3.4-2,5.7s1.3,8.1,1.1,8.4c-2,3.1-2.8-1.9-3.4-2-1.8,1.9-8.8.9-6-1.4s4.5-1.3,5.2-2.8c1.9-4.5-3.6-10.7,5.2-7.9Z"/><path class="o" d="M188.1,355.7c1.9,1.1,5.8-1.8,5.9,2.6s-1.8,3.4-3.6,2.9-1.4-2.9-1.9-3.2-1.9,0-2.7-.3c-5.6-2.5-3-6.1,1-3.7s1,1.6,1.3,1.7Z"/><path class="g" d="M112.5,370.7c.3,1.8-.6,3.4-.7,5.1s1.7,4.4-1,4.4c-5.1,0-6.3-11.4,1.7-9.4Z"/><path class="o" d="M173.9,351.7c.8.5,7.2-.4,5.2,2.8s-6.3,1.1-7.4.4.1-2.1-.3-3-4-3.3-3-4.1c4.2-1.6,4.8,3.5,5.5,3.9Z"/><path class="g" d="M159,372.7c0,1.4,1.6,4.1-.4,4.7s-7.5-1.4-5.6-3.3,5.1-.9,6.1-1.4Z"/><path class="g" d="M150.2,379.4c.3.3-1.4,5.1-1.7,6s0,2.7-1.3,2c-2.3-1.1-1.4-9.5,3-8.1Z"/><path class="o" d="M205.5,343c0,2.7,1.9,7.4-2,8.1.3-2.7-1.9-7.4,2-8.1Z"/><path class="g" d="M311.9,391c1.4.9,1.7,6.9-1.3,6.7-.3-1.6-2.4-9,1.3-6.7Z"/><path class="g" d="M245.9,399.6c0,.1,0,1.8,0,2.3-1.3,3.9-8.5-2.3-5-3s1.6,1.2,2.6,1.3,2.2-.9,2.4-.6Z"/><path class="g" d="M283.7,390.9c-.5-.5,1-6.1,3.7-5.4s-2.2,6.8-3.7,5.4Z"/><path class="g" d="M142.8,381.4c-1.3-.4-7.3,1.2-6.1-1.7s7.5-1.5,6.1,1.7Z"/><path class="g" d="M202.1,384.1c.6.5,3.1,7-1.3,4.4s0-5.3,1.3-4.4Z"/><path class="g" d="M336.9,366.6c.8.6-1.8,2.5-2.2,2.9s-.5,1.6-1.9,1.2c-1.3-4.9-.6-4.9,4-4Z"/><path class="g" d="M194.7,388.9l-4.7-1.7c1.9-2.9,4.8-1.7,4.7,1.7Z"/><path class="o" d="M194.7,343.7c-3.8,2.4-8,.2-12.1.7,4.2-.4,7.7-.8,12.1-.7Z"/><path class="o" d="M197.4,341.7c-4.5-.2-9,0-13.5,0,3.9-1.1,9.6-1.1,13.5,0Z"/><path class="g" d="M257.4,412.4c-.1.1-1.5,0-2,0v-4c2.1-.7,2.5,3.6,2,4Z"/><path class="g" d="M158.3,387.5c0-1.8-.7-4.2,1.7-3.4s.1,3.6-1.7,3.4Z"/><path class="o" d="M237.2,345.1c.2.2-.1,2.6,0,3.4-4.7-.4-1.6-4.9,0-3.4Z"/><path class="o" d="M287.7,358.5c.2.2,0,1.5,0,2l-4.7-.7c0-1.3-.3-1.4,1-1.3s3.6-.2,3.7,0Z"/><path class="o" d="M195.4,335.6c.4,2.1-3.1,2.6-4,1l4-1Z"/><path class="g" d="M309.3,395.6c1.3,1.1-3.4,2.9-4,2.7-.5-1.9,3.5-3.2,4-2.7Z"/><path class="g" d="M163.1,411.8c1.3,1.3-2.1,4.2-2.7,1.7s2.2-2.2,2.7-1.7Z"/><path class="g" d="M272.2,415.1c-1.3-1.3,2.1-4.2,2.7-1.7s-2.2,2.2-2.7,1.7Z"/><path class="o" d="M202.8,341v2c-1.2.2-2,0-2.7-1v-1s2.7,0,2.7,0Z"/><path class="g" d="M169.8,390.2v2c-1.2.2-2,0-2.7-1v-1s2.7,0,2.7,0Z"/><path class="g" d="M179.9,390.2v2.7s-1,0-1,0c-1.1-.7-1.2-1.4-1-2.7h2Z"/><rect class="g" x="60" y="349.1" width="1.3" height="3.4"/><rect class="g" x="309.9" y="384.1" width="2.7" height="1.3"/><path class="g" d="M303.9,396.9c-1.1,1-3-.9-2-2s2.7,1.4,2,2Z"/><path class="g" d="M164.4,390.9c1,1.1-.9,3-2,2s1.4-2.7,2-2Z"/><rect class="g" x="217.6" y="368.6" width="1.3" height="2"/><rect class="g" x="64" y="372" width="1.3" height="2"/><path class="g" d="M161,400.3c.7.7-.6,2.1-1.3,1.3s.6-2.1,1.3-1.3Z"/><path class="o" d="M198.1,343.7c-1.3,1.4-1.7,0-2,0h2Z"/><path class="o" d="M174.5,344.4c-.9-.8-1-1.2,0-2v2Z"/><path class="f" d="M333.5,393.6v2s-3.4,0-3.4,0c-.2-2.1,1.7-2.2,3.4-2Z"/><rect class="q" x="174.5" y="102.4" width="1.3" height="2"/><path class="i" d="M227.7,784.5c.4.4,3.6-1.1,4-.7s0,1.8.7,2.4,1.9-.5,2.7,0c4.8,2.2-1,9.1-2.6,11.6s-1,4.3-3.1,4.3c-4.1,0-2.2-5.2-2.3-7.1s-2.2-5.7-2.1-8.1,1.7-2.6,1.4-4.3c-.5-.5-6.2,1.5-7.3.6s-.1-2.3-1.4-3-2.4.7-2.7.4-2.3-6.2-.4-5.4,3.5,1.6,3.7,1.7c.9.6,1.1,2.2,2,2.7,1.7.9,4.5-.3,6.4,1s.8,3.7,1.1,4Z"/><path class="c" d="M176.5,837.7c2.5-.3,9.3-1.9,8.8,2,1.9.1,4.2-2.3,5.1-2.5s6.9-.3,7.2-.2c.7.1-.1,1.7,1.4,1.4s1-2.6,2.4-1.4-.9,2.1,1,2.1,2.4-1.7,4-2,4.4-.2,5.3,0,.4,1.4.8,1.4c1.2,0,4.1-3.6,3.8,1.7s-3,1.7-5.8,1.6-4.3.7-4.7.6c-.8-.2-.7-1.8-1.5-2-2.5-.6-10.5,2.2-13.9,1.4s-.2-1.4-1.5-1.4c-2,0-2.9,1.3-4.7,1.5s-5.9-.4-7.8-.7c.8-1.1.8-2.3,0-3.4ZM213.9,839.7v.7c.4-.2.4-.4,0-.7Z"/><path class="c" d="M204.7,830.7c.2,0,.1-1,.6-1.1.9-.2,5.7-.2,6.5,0,1.4.5.8,2.9,2.4,3.3.3-.8-1-3.1-.7-3.4,2.6-2.2,3.2,5.4,1,5.4s-2.3-1.6-5.4-1.4-3.1,1.4-3.3,1.4c-.5,0-.8-1.6-1.1-1.9-1.4-.9-11.8,1.8-14.7.5v-4c2.8,1.1,6.5-.3,9.1,0s3.3,2.3,5.5,1.2Z"/><path class="c" d="M192,816.1c1.7-5,1.3-2.6,5-2.7s3.4-1.1,3.7-.7-1.4,2.8,3.1,2.1.9-1.3,1.4-1.4,1.3.4,1.9.3c2.2-.5,6.7-2.4,5.7,1,.8-.1,1.1-2.5,2.7-1.3s.4,4.7-.4,4.7c-2-1.8-10,.4-10.4,0s.4-1.8-.4-2.1c-1.3-.4-8.6,1.7-11.3,1.4s-1-1.2-1.1-1.4c-.3.8.5,2-1.7,1.4s-.2-1.2-.8-1.3c-1.1-.3-2.4.1-3.6,0,0,.3.1,1.3,0,1.3-.8.6-9.5-1-11.5,0l-.7-4c1.7.3,11.1-.4,11.5,0s-.8,2.5.7,2.7c.4-2.7,1.2-.7,3.6-1.3s0-2,1.8-1.4c-.6,1.8.4,2.2.7,2.7Z"/><path class="i" d="M200.1,792.5c.9-3,5.1-4.5,7.8-4.7s2.2.6,3.3.6c2.1,0,4.6-2.2,4.4,2-1.5.3-4.5-1.7-5.4.4s1.3.9,2,1.7c-1.6.8-3.1.2-4.7,0l.7,4c0,0-.6.6-1.3.7v-4.7c-.5-.5-3.9,2.3-5.7,2.1s-.1-1.6-1-2.1Z"/><path class="c" d="M185.4,831.5c1,.6,3.7-.4,3.9.5.4,1.6-3.2,1-3.9,2.2-4-1-7.6-.6-11.6-.5,0-1.3-.4-3.4,1.1-3.9s8.8-.2,9.3,0c.9.4.9,1.5,1.2,1.7Z"/><path class="c" d="M281,833.7c-3.2-1.6-12.5,2.3-10.7-3.6s2.8-.3,4.3-.4c4.2,0,7.2-2.5,6.4,4Z"/><path class="c" d="M281,793.9c0,1.6.5,2.3-1.3,2-.4-.1-1.6.6-2.3.5-2.2-.2-4.4-.9-6.7-.5-.8-.2-.2-1.5-.4-2.1,0-1.8.6-1.8,2-2s3,.4,4.3.5,3-.4,3.5-.2c1.2.4.7,1.5,1,1.8Z"/><path class="c" d="M270.2,816.8c0-1.1-.4-3,.7-3.8s7.1-.2,7.4,0c1.1.8.2,3.1,1,3.1.8-6.4,1.6-3.1,2.4.7h-11.5Z"/><path class="c" d="M279,839.7l.7-2.7c2.4-.5.8,2.7,2,4-2-.7-4.4.5-5.7-1.3.1,2-5.3,1.4-5.6.2s0-2,0-2.9c2.9,1.4,9-2,8.8,2.7Z"/><path class="i" d="M97.6,783.2c.4.7.1,3.8,0,4.8l-2.2,4.5c-1.1-1.6-3.8-4.5-1-5,.4-2.3-1.6-1.9-1.9-2.5-2.2-3.9,4.7-2.6,5.1-1.8Z"/><path class="i" d="M167.8,791.9v6.1s-4.7,0-4.7,0c-.3-5.3-.8-5.7,4.7-6.1Z"/><path class="c" d="M212.2,792.5c.3.3.5.3.7,1,.9,4.2-1.2,2.8-4.7,3.1l-.7-4c1.7.2,3.1.8,4.7,0Z"/><path class="c" d="M200.1,792.5c.9.4.4,2,1,2.1,1.8.3,5.2-2.5,5.7-2.1v4.7c-.5,0-1.8-.4-2-.7-.4-.6,1.1-1.8-2.7-1.3s-1.2,1.3-1.7,1.4-1.4-.7-1.6-.7v-3.4c.4,0,1.1-.1,1.3,0Z"/><path class="i" d="M154.3,793.9v2c-3.8,0-7.4,2.7-6.7-3.4l6.7,1.3Z"/><path class="i" d="M231.8,782.4l-.7-7.4c1.4-1.6,6.5,8.3.7,7.4Z"/><path class="i" d="M64,785.8c-.8,2.2,0,8.1-2.7,8.1.3-2.8-1.3-7.6,2.7-8.1Z"/><path class="i" d="M121.3,782.4c.7,3-1.4,1.6-2.9,2.7s-.4,1.3-.5,1.4c-1.8,1.2-2.4-3.4-2-4.7,2.2.5,2.9,2.3,5.4.7Z"/><path class="i" d="M116.6,793.2c.8,3.1-1.5,1.6-2,2.1s.2,2.4,0,2.7c-.3.4-2.5-.2-2.7-1-.3-1.3,4.3-4.2,4.7-3.7Z"/><path class="i" d="M215.6,783.1c0,5.2-7,3.6-3,.7s1.9-.8,3-.7Z"/><path class="j" d="M176.5,837.7c.8,1.1.8,2.3,0,3.4-.4,0-1,.1-1.3,0l-.7-.7c-.2-.4-.8-2.6-.7-2.7.9-.7,2.4,0,2.7,0Z"/><path class="c" d="M215.6,792.5c0,2.2,1.4,5.4-2,4.7.8-1.3-.2-5.3,2-4.7Z"/><path class="i" d="M270.2,793.9c-.4-1.5-1.1-2.8-.7-4.7,2.7-.5,1.7.8,2.7,2.7-1.4.3-2,.3-2,2Z"/><path class="i" d="M162.4,797.9c.6.6-.2,4-2,3.4-1.7-2,.8-4.6,2-3.4Z"/><path class="i" d="M196.1,784.5v1c-1.4,3.6-7.3-3.3,0-1Z"/><path class="i" d="M279.6,795.9c1.8.3,1.4-.4,1.3-2,.6.6,2.3,1.1,2,2.3-.6,2.8-3.2-.3-3.4-.3Z"/><path class="i" d="M159,795.2c-.6.7-3.9-2.9-3.4-3.4,1.4-1.2,4,2.6,3.4,3.4Z"/><path class="i" d="M262.8,788.5c1.3-1.3,4.2,2.1,1.7,2.7s-2.2-2.2-1.7-2.7Z"/><path class="i" d="M299.8,793.9c.7,1.3-1,4.4-2,3.4s.5-4.4,2-3.4Z"/><path class="i" d="M108.5,795.9c.8.8-1.3,2.7-2.7,2-1-1.3,2.3-2.4,2.7-2Z"/><path class="i" d="M222.3,771c-1.2,1-3-.9-2-2s2.7,1.4,2,2Z"/><path class="i" d="M223.7,788.5c1,1.1-.9,3-2,2s1.4-2.7,2-2Z"/><path class="i" d="M202.1,795.2c3.8-.5,2.3.8,2.7,1.3-1.6-.9-3.1,1.1-2.7-1.3Z"/><rect class="i" x="61.3" y="795.2" width="1.3" height="2"/><rect class="i" x="159.7" y="789.2" width="2" height="1.3"/><path class="i" d="M198.8,795.9c-.2,0-.4,0-.7,0v-3.4c.2,0,.5,0,.7,0v3.4Z"/><path class="i" d="M274.9,789.2c.7.7-.6,2.1-1.3,1.3s.6-2.1,1.3-1.3Z"/><path class="i" d="M258.7,791.9c.7.7-.6,2.1-1.3,1.3s.6-2.1,1.3-1.3Z"/><path class="i" d="M122,780.4c.7.7-.6,2.1-1.3,1.3s.6-2.1,1.3-1.3Z"/><path class="i" d="M180.6,795.9c-.2,0-.5,0-.7,0-.3-1.9.9-1.9.7,0Z"/><path class="c" d="M175.2,841.1c-.4-.1-.5-.3-.7-.7l.7.7Z"/><path class="f" d="M175.2,206.2h.7c0,.2,0,.5,0,.7s0,.5,0,.7c-1.6,2.9-1.4.5-3.4,0,0-.4,0-.9,0-1.3h2.7Z"/><path class="c" d="M175.9,206.2h-.7l.7-2c.1.6-.1,1.4,0,2Z"/><path class="k" d="M172.5,202.2c.3.3-.6,1.1-.7.3s.5-.5.7-.3Z"/><path class="d" d="M172.5,207.6c0,2-.8,1.9-.7,0,.2,0,.5,0,.7,0Z"/><path class="h" d="M321.2,420c11.1-2.4,11.9,15.6.6,14-7.8-1.1-7.3-12.5-.6-14Z"/><path class="e" d="M213.9,839.7c.4.2.4.4,0,.7v-.7Z"/></svg>