<svg id="a" data-name="Layer 1" xmlns="http://www.w3.org/2000/svg" width="614.4" height="714" viewBox="0 0 614.4 714" style="cursor: default;">
  <path style="fill: #f30d5c;" d="M212.1,531.2c0,1.2-.4,2.7,1.2,2.9,9.1.1,18.3-.1,27.4,0s1.5.5,1.6.5v165.1H40.8v-168.4h171.3Z"/>
  <path d="M124.8,349.8H40.8v-168.9h201.5v110.8c-12.8-8.2-30.2-.8-33.1,13.9s-.4,1.2-.5,2.4c-1.1,18.2,18.2,29.3,33.6,19.7v22.1s-16.3,0-16.3,0c-20.4-20.3-40.9-40.5-61.2-60.9l-2.3-.6h-37.1c0,.1-.5,1.3-.6,1.5-.5,3.4,0,8.8,0,12.5s0,1,0,1.4c0,15.3,0,30.7,0,46.1Z" style="fill: #f20e68;"/>
  <path d="M40.8,357.5h83.5v10.1s.6-.1.8.2c.3.5.2,1.1.7,1.5s1.3.4,1.9,1c18.7,17.3,35.8,37.2,54.7,54.5.2.1.3.4.5.5s.6.7,1.1.5h58.3s0,.9,0,.9v63.8c0,.5,0,1,0,1.4-.6.5-.6,1,0,1.4,0,.2,0,.3,0,.5s0,.3,0,.5c-2.4.6-2.1,1.9-3.1,2.9-2.7,2.9-9.5,10.3-12.2,12.2s-2.4.7-3.2,1.6-.7,1.9-1.4,3-8.4,8.7-9.6,9.6-1.1.9-1.9.9H42.4c0,0-1.2-1.4-1.2-1.4,0-.2,0-.3,0-.5,1.3-11.6.9-27.6.5-39.6s.5-1.9-1-1.7v-4.8l1-1.7c-.9-34.6,1.2-69.7,0-104.2s.5-1.9-1-1.7c0-3.5-.4-8.2,0-11.5Z" style="fill: #f30d5c;"/>
  <path d="M383.9,384.4c.2,1.1-.5,5.4.5,5.8s4.5,0,4.8,0c1-.3.3-4.6.5-5.8.4-.1,6.4-.1,6.9,0s.9,1.8,1.5,2.4c4.1,4.6,12.9,5.1,17.8,1.4s2.6-3.3,3.1-3.6,6-.4,6.9-.3,1.6,2.5,2.2,3.1c4,3.9,12.3,4.2,16.8.9s2.7-4,2.9-4h11l-1.9,5.8c1.3-.2,4.3.4,5.3-.2s1.3-5,2.7-5.5c5.6.4,12.8-.8,18.2-.1,2.4.3,5.8,5.4,7.9,7l-26.4,26.4c-.4.5-.9.5-1.5.7-3.9.4-9.4-.8-13,.5s-1.1.2-1.5.7l-48,47.8c-4.4.3-9.3-.6-13.4.5l-56.6,56.4-68.8.3c-4.1,2.1-7.8,9.6-12.5,10.1s-5.1,0-7,0-.8-.5-1.6-.5c-9.1,0-18.3.1-27.4,0-1.6-.2-1.1-1.7-1.2-2.9-.1-2.1,0-4.2,0-6.2l30.2-30.7c0-.2,0-.3,0-.5.9,0,1.3-.6,1.9-1.2,4.2-3.8,8.5-8.4,12.5-12.5,14.7-15,29.7-29.9,44.6-44.9,16.8-16.8,33.6-33.8,50.4-50.6l32.1-.2ZM376.7,435.2v4.8h35.3c1.1,0,.7-3.9.7-4.8h-36Z" style="fill: #78f6ff;"/>
  <path d="M40.8,49.4c0-14.4,0-28.8,0-43.2h201.5c0,29.3,0,58.5,0,87.8-1.2-1.6-1.1-4.2-3.6-4.3s-.7,1.4-1.2,1.9-4.8-.3-5.8-.5v2.4c-3.6.5-2.9-1.6-2.9-4.3-2.2-.9-8.1,3.2-9.6,1.9s0-2.6-2.6-1.8-.5,2.5-.8,2.8c-.8.9-5.2,0-6.4,0s-2.6,1.1-3-.3.8-2.8-1.3-2.6-.9,1.1-1.8,1.5c-2,.9-8,2.2-10.1,1.9s-2.8-2.6-3.5-2.8-4.8,2.1-6.4,1.4c0-1.2.5-2.3.4-3.5s-.2-2.5-1.2-2.2-.2,4.6-2.3,5.4-2.9-.7-4.9-.7-4.4.4-5.2.6c-2.3.6-3.6,3.4-4.5,3.7s-6.5.7-6.8.5-.3-1.9-1.3-2.3c-1.7-.5-5.4-.3-7.4-.6-.3-1.5.5-.7,1.1-1,1.3-.5,2.7-1.3,4.1-1.4.5-.6-3.1-2.8-3.6-3.4-1.2,1.1-6.2,1.8-6.8,2.4s-.4,1.2-.7,1.6-1.2.5-1.4,1.1c-.3,1,0,2.4,0,3.5-1.9.6-3.5-2.6-4.1-2.8s-4.8,2.1-6.4,1.4c0-1.2.5-2.3.4-3.5s-.2-2.5-1.2-2.2,0,4.3-2.3,5.4-2.9-.6-4.9-.7-5.9.6-7.6,2-1,1.6-1.5,1.9-7,1.1-7.4.9-.3-1.2-.6-1.6c-.7-.8-2.5-2-2.8-3s1.4-3.9-.8-4-.6,4.6-3.8,4.3-1.7-.9-2.9-1-4.8.4-5.7.6c-2.4.6-3.5,3.5-4.9,3.7s-5.9.6-6.2.5c-.6-.1-.5-1.2-.8-1.7s-.9-.6-1.1-.8c-.3-.4-.9-3.1-1.3-.7s.5,1.9-.7,1.7-1.6-1.3-3.3-1.5-4.4,1.1-5.8,1-1.4-2.3-5.8-1.9-2.8,2.1-4.2,3.3-5.1-2.2-7.4-2.6-2.4.4-3.5-.1c-.1,1,.6,2.3-1,1.9,0-2.4-.2-4.6,0-7s-.5-1-1.2-.7c-1,.4-.8,8.8-.7,10.3,0,2.4,2,4.6-1.9,4.5l-.5-19.7c0-2.2,0-4.5,0-6.7l.5-.2-.5-.2c0-2.6,0-5.1,0-7.7.8-2,.6-4.8.5-7s.5-1.9-1-1.7c0-.3,0-.6,0-1,1.3.7,1.2-3,1-4s-.5-.3-1-.3c0-1.3,0-2.6,0-3.8,1.4.3,1.5-1.2,0-1ZM41.5,42.7v.5c.3-.2.3-.3,0-.5ZM76.3,84.5c-.6.3-3.2.8-3.4,1-.2.3.4,1.7.4,2.2,0,.8-.6,1.8-.4,2.3.3,1,1.8.6,2.5.9s1.2,1.4,2.3,1.3c.7-3-1.7-4.8-1.4-7.7Z" style="fill: #f00d81;"/>
  <path d="M41.3,83l.5,19.7c3.9,0,2-2.1,1.9-4.5s-.2-9.9.7-10.3,1.3-.2,1.2.7c-.2,2.4,0,4.6,0,7,1.5.3.9-.9,1-1.9,1.1.5,2.6,0,3.5.1,2.4.5,5.5,4.3,7.4,2.6s.1-2.9,4.2-3.3,4.2,1.8,5.8,1.9,3.4-1.2,5.8-1,2.2,1.3,3.3,1.5.6-.9.7-1.7c.4-2.4,1,.3,1.3.7s.7.3,1.1.8.3,1.5.8,1.7,5.6-.4,6.2-.5c1.4-.3,2.5-3.1,4.9-3.7s4.8-.7,5.7-.6c1.2,0,2,.9,2.9,1,3.2.2,3.3-4.3,3.8-4.3,2.2,0,.5,2.9.8,4s2,2.3,2.8,3,.4,1.4.6,1.6c.4.3,6.9-.5,7.4-.9s.8-1.3,1.5-1.9c1.7-1.4,5.4-2,7.6-2s2.9,1.6,4.9.7,2-5.3,2.3-5.4c.9-.2,1.2,1.8,1.2,2.2,0,1.3-.5,2.3-.4,3.5,1.6.7,5.5-1.7,6.4-1.4s2.3,3.5,4.1,2.8c.1-1.1-.3-2.5,0-3.5s1-.7,1.4-1.1.3-1.2.7-1.6c.6-.6,5.5-1.3,6.8-2.4.5.5,4.1,2.8,3.6,3.4-1.5.1-2.8.9-4.1,1.4s-1.4-.5-1.1,1c1.9.2,5.7,0,7.4.6s1,2.1,1.3,2.3,6.2-.3,6.8-.5c.9-.3,2.2-3.1,4.5-3.7s4.3-.6,5.2-.6c2,0,2.9,1.5,4.9.7s2-5.4,2.3-5.4c.9-.2,1.2,1.8,1.2,2.2,0,1.3-.5,2.3-.4,3.5,1.6.7,5.5-1.7,6.4-1.4s1.5,2.5,3.5,2.8,8.1-1,10.1-1.9,1-1.4,1.8-1.5c2.1-.2.8,1.1,1.3,2.6s1.9.2,3,.3,5.6.9,6.4,0-.5-2.4.8-2.8c2.6-.8,2.5,1.7,2.6,1.8,1.5,1.4,7.4-2.8,9.6-1.9,0,2.8-.7,4.9,2.9,4.3v-2.4c1,.2,5.4.9,5.8.5s-1.1-2.1,1.2-1.9,2.4,2.8,3.6,4.3c0,.6,0,1.3,0,1.9v71c0,.8,0,1.6,0,2.4-1,1-.3,3-.5,4.3H40.8c0-27.4,0-54.9,0-82.3s.5-5.5.5-8.4Z" style="fill: #f10e7a;"/>
  <path d="M226,349.8c2.2,2.2,4.5,4.5,6.7,6.7,3.2,3.2,6.4,6.4,9.6,9.6,19.5,19.6,38.8,39.4,58.6,58.8.7,1.3.6,8,.5,9.9h-39.8c-2.5-1.8-5.4-6.4-8.1-8.4s-1.3-1.1-1.9-1.2c-2.4-.8-6.2-.8-8.6,0-.2,0-.3,0-.5,0s-.3,0-.5,0c-.5-.8-1.8-.5-2.6-.5-18.9-.2-37.9.2-56.9,0l-56.6-56.8c-.9-1.6-.4-8.8-.5-11.3s0-4.5,0-6.7c0-14.5.2-29,0-43.4s.3-2.1-.5-2.6c0-.5,0-1,0-1.4.8-3,.5-6.7.5-9.8s.3-2.1-.5-2.6c0-.2.5-1.3.6-1.4h37.1c0-.1,2.3.5,2.3.5,20.3,20.4,40.9,40.5,61.2,60.9Z" style="fill: #78f6ff;"/>
  <path d="M242.3,291.7c5.1,3.3,8.7,10.3,9.1,16.3s0,2.7,0,3.8c-.4,6.4-3.6,12.4-9.1,15.8-15.4,9.6-34.7-1.5-33.6-19.7.8-.4.5-1.6.5-2.4,2.9-14.8,20.3-22.1,33.1-13.9ZM242.3,297c-13.3-12.9-34.6.5-29.4,18.1s17.1,16.3,26.4,10.3,2.4-1.9,3-2.5c8.1-7.4,7.7-18.5,0-25.9Z" style="fill: #7aecf7;"/>
  <path d="M40.8,369c1.4-.3.9.7,1,1.7,1.2,34.5-.9,69.6,0,104.2l-1,1.7c0-35.8-.2-71.7,0-107.5Z" style="fill: #f20e68;"/>
  <polygon points="241.8 173.7 242.3 173.7 41.3 174.2 41.3 173.7 241.8 173.7" style="fill: #f20e68;"/>
  <path d="M212.1,524.9H41.5c-.5,0-.3-1.5-.3-1.9l1.2,1.5h168.4c.8-.1,1.3-.6,1.9-1,1.2-.8,8.8-8.4,9.6-9.6s.7-2.2,1.4-3,2.1-.9,3.2-1.6c2.8-1.9,9.5-9.4,12.2-12.2s.7-2.3,3.1-2.9l-30.2,30.7Z" style="fill: #f20e68;"/>
  <path d="M125.2,356.5c0,2.5-.5,9.7.5,11.3l56.6,56.8c-18.9-17.3-35.9-37.2-54.7-54.5-.6-.6-1.5-.6-1.9-1s-.4-1-.7-1.5-.8-.1-.8-.2v-10.1H40.8c0-.3-.2-1,.3-1h84.2Z" style="fill: #f20e68;"/>
  <path d="M232.7,356.5h9.6s0,9.6,0,9.6c-3.2-3.2-6.4-6.4-9.6-9.6Z" style="fill: #f20e68;"/>
  <path d="M40.8,481.3c1.4-.3.9.7,1,1.7.4,12,.8,28-.5,39.6-.7-.7-.5-1.7-.5-2.6-.3-12.9,0-25.8,0-38.6Z" style="fill: #f20e68;"/>
  <path d="M242.3,167v-71c0,23.7.2,47.4,0,71Z" style="fill: #f00d81;"/>
  <path d="M125.2,349.8h-.5c0-15.3,0-30.7,0-46.1.8.5.5,1.8.5,2.6.2,14.5,0,29,0,43.4Z" style="fill: #90437e;"/>
  <path d="M301.3,434.7c0,.2,0,.3,0,.5h-38.7c-.6.2-.8-.2-1.1-.5h39.8Z" style="fill: #8faec2;"/>
  <path d="M440.9,383.9c1.7,1.6-7.8,3.3-8.2.2,2.7,0,5.5.7,8.2-.2Z" style="fill: #7aecf7;"/>
  <path d="M411.4,384.4c.1,0,.6-.9.7-.2,0,1.2-3.2,1.7-4.6,1.7s-3.8-.3-4.6-1.5c2.8,0,5.6,0,8.4,0Z" style="fill: #7aecf7;"/>
  <path d="M400.6,467.4c-4.1,1.1-9.1.2-13.4.5,4.1-1.1,9.1-.2,13.4-.5Z" style="fill: #8faec2;"/>
  <path d="M463,418.4c-3.6,1.3-9,0-13,.5,3.6-1.3,9,0,13-.5Z" style="fill: #7aecf7;"/>
  <path d="M40.8,59.5c1.4-.3.9.7,1,1.7,0,2.1.4,5-.5,7,0-3-.5-5.9-.5-8.6Z" style="fill: #f10e7a;"/>
  <path d="M40.8,54.2c.4,0,.8-.3,1,.3.2,1,.4,4.7-1,4,0-1.4,0-2.9,0-4.3Z" style="fill: #f10e7a;"/>
  <path d="M389.1,390.1c.2-1.1-.5-5.4.5-5.8-.2,1.1.5,5.4-.5,5.8Z" style="fill: #abcad9;"/>
  <path d="M384.3,390.1c-1-.3-.3-4.6-.5-5.8,1,.3.3,4.6.5,5.8Z" style="fill: #abcad9;"/>
  <path d="M242.3,173.7h-.5c.2-1.4-.5-3.3.5-4.3,0,1.4,0,2.9,0,4.3Z" style="fill: #f00d81;"/>
  <path d="M251.4,311.9c0-1.2,0-2.7,0-3.8.8.8.8,3.1,0,3.8Z" style="fill: #abcad9;"/>
  <path d="M40.8,49.4c1.5-.3,1.4,1.3,0,1,0-.3,0-.6,0-1Z" style="fill: #f10e7a;"/>
  <path d="M41.3,76.3c0-.2,0-.3,0-.5l.5.2-.5.2Z" style="fill: #f10e7a;"/>
  <polygon points="41.3 174.2 40.8 173.7 41.3 173.7 41.3 174.2" style="fill: #f00d81;"/>
  <path d="M124.8,302.3c0-3.7-.5-9.1,0-12.5.8.5.5,1.8.5,2.6,0,3.1.4,6.9-.5,9.8Z" style="fill: #90437e;"/>
  <path d="M208.7,308.1c0-1.2.3-1.5.5-2.4,0,.8.3,2-.5,2.4Z" style="fill: #97578c;"/>
  <path d="M241.8,425.1c-19.7-.2-39.4.2-59,0-.2,0-.3-.3-.5-.5,18.9.2,37.9-.2,56.9,0,.8,0,2.1-.3,2.6.5Z" style="fill: #74bcd2;"/>
  <path d="M241.8,425.1c.2,0,.3,0,.5,0v.5h-58.3c-.6.2-.9-.4-1.1-.5,19.7.2,39.4-.2,59,0Z" style="fill: #a60b52;"/>
  <path d="M242.3,490.4v-35.5c0,11.8.3,23.7,0,35.5Z" style="fill: #f20e68;"/>
  <path d="M242.3,493.3c-.6-.5-.6-1,0-1.4,0,.5,0,1,0,1.4Z" style="fill: #f20e68;"/>
  <path d="M76.3,84.5c-.3,2.8,2.2,4.7,1.4,7.7-1.1.1-1.3-.9-2.3-1.3s-2.2.1-2.5-.9.4-1.5.4-2.3-.7-1.9-.4-2.2,2.8-.7,3.4-1Z" style="fill: #f10e7a;"/>
  <path d="M41.5,42.7c.3.2.3.3,0,.5v-.5Z" style="fill: #f10e7a;"/>
  <path d="M251.4,425.1c-2.2-.4-6.2,0-8.6,0,2.4-.8,6.2-.8,8.6,0Z" style="fill: #74bcd2;"/>
  <path d="M242.3,297v25.9c-.6.6-2.1,1.9-3,2.5-9.3,6.1-23.3.2-26.4-10.3-5.2-17.6,16.1-31,29.4-18.1ZM228.7,305.3c-5.1,1.2-3.6,9.9,1.7,9.4s5.7-11.1-1.7-9.4Z" style="fill: #f20e68;"/>
  <path d="M228.7,305.3c7.4-1.7,8.5,8.7,1.7,9.4s-6.8-8.2-1.7-9.4Z" style="fill: #7aecf7;"/>
</svg>

