<svg id="b" data-name="Layer 2" xmlns="http://www.w3.org/2000/svg" width="614.4" height="868.8" viewBox="0 0 614.4 868.8" style="cursor: default;">
  <g id="c" data-name="Layer 1">
    <g>
      
      
      <path d="M242.2,0v38.4c-1.7.1-1.6-2.1-2.4-2.6s-4.9,0-6.2.5c-2.1.7-3,2.8-5.4,2.1s-1-1.4-2.4-1.3-2.3,1.2-3.4,1.4-7.2.7-8.2,0-1.1-1.9-1.7-2.2c-.8-.5-1.7.3-2.6.3-5.9-.3-12.5-1.1-18.3-1s-5.1,1.9-5.5,1.5.2-1.4-.2-1.9-10-.6-11.5-.3-1.1.9-1.7,1.1c-3.9,1.1-3.4-1-4.1-1.2-1.5-.5-1.5,1.4-2,1.5-1.2.1-3.7-2-4.2-1.9s-.9,1-1.6,1.3c-2.9,1.1-9.4,0-12.8,0s-4.2,1.1-5.4.4-.3-1.9-2.3-1.9-1.6,2-3,2.4c-2.6.8-7.2-.8-9.9.6s-.3.9-.7,1c-.9.2-1.9-.2-2.7,0s-1,2.8-2.5,2.9-1.7-1-2.9-1-4,.1-5.2.2-1.2,1.2-1.8,1.4c-2.3.9-4.6-1.2-6.3-.6s-.6,1.4-1,1.4c-1.4.2-2-1.7-2.8-1.5s-.3,2-2.3,1.4-.5-1.9-1.3-1,.7,2.2.5,2.4c-1.3-.8-3.1-.6-4.4-1.1s-2.2-1.7-4.9-1.7c-4.2,0-3.9,3.3-7.2,3.3s-3.9-2.4-5.8-2.5-5.9,1.4-7.5,1.6-1.2.7-1.6.7c-1,0-1.8-1.6-3-1.3.1.6-.3,3.2-.5,3.4-1.1.7-6.1-5.1-3.4,1.9-1.8.7-3.4-1.9-4.1-2-3.1,0-3.5,3-4.8,2.9s-1.1-2.5-2.5-2.9-1.8,1.2-2.8.9-.4-3.2-2.2-2.9c.5,1.3,0,2.3,0,3.4l-2.9-1c0-4.2,0-8.5,0-12.7,0-11.3,0-22.6,0-33.8h201.4Z" style="fill: #ec0e8e;"/><path d="M212,524.8c0,1.1,0,2.2,0,3.4,10.1-.1,20.2.1,30.2,0v165H40.8v-168.4h171.2ZM200.5,566.6c1-3-2.7-3.2-5-3.2s-4.5.7-3,2.7,6.5,0,7.9.4ZM126.1,564.2c-.4,0-1.3-.1-1.4,0l-.5.2.5.7c0,.3,0,.7,0,1s0,.6,0,1c.9.3.8-.4,1-.5s.4,0,.5,0c.4-.2.4-1,.7-1,.3,2.6.9,1,2.2,1s1,0,1.4,0,.6.6,1.6.5,2.6-.9,2.7-1.2c.3-1-1.1-.9-1.6-.7s0,1.2-.8,1c.4-3.4-1-1.4-1.9-1.4s-.9-.5-1.4-.5c-1.3,0-1.3-.3-2.9,0ZM143.4,563.7c-2.1.8-5,0-6.5,1.4-1.1-2.7-1.4.4-1.7,1.9,2.3,0,5.1.1,7.3-.2s1.1-.8,2-.8c1.8,0,1.5,1.4,2,1.5s3.2-.5,4.3-.5c2.6,0,3.4,1.7,3.1-2.9-2.5-.5-.7,1.2-1.9,1.9l-.5-2.4c-1.4.7-4-.2-5,0s-.1,1.3-2,1.5-1.3,0-1.2-1.5ZM132.5,579.9c-.2-.1-.3-.9-.6-1.1s-5.9-.4-6.5-.3c-1.8.3-1.6,3-.4,3.3,2-.7,4.4.3,6.2.1s3-1.8,5.5-.5v-2.9c-1.3-.3-1.1,1.3-1.8,1.4s-2,.1-2.4-.1ZM143.4,578.6c-.2-.2-5.3-.2-5.8.2s-.6,1.3-.5,1.9c.6,3.3,8.7-2,9.1,1.7l1-1.4c1.9,1.7,4.4.8,6.7,1,0-1,.4-2.9-.8-3.3s-6.3,0-6.6,0c-.7.2-.3,1.2-1.5,1.4-2.6.4-1.4-1.1-1.7-1.4ZM200.5,578.6c-2,.7-9.3-1.5-8.1,2.1s6.5.2,8.1.8v-2.9ZM134.8,591.5c-1.9.4-3.3-1.2-5.1-1.3s-3.7.7-5.4.3c0,1.3-.4,2.6,1.2,2.9s5.3.2,6.7,0,3.7-1.1,2.7-1.9ZM151.6,590.1c-1.3.4-4-.1-5,0s-.1,1.3-2,1.5-2.4-3.2-2.9.9c-1.3-3.9-2.2-1-2.4-1s-1.7-3-2.4.5l-1.2-1.4-.5,2.9c2-.7,5.6.5,7.4,0s.6-1.6,2.9-1-.5,2.1,1.7,1.5l.2-2.4c.5,0,0,1.5,1,1.9s4.5.5,4.7.5c1.2-.3,1.3-4.1-.7-3.8l-1,1.9v-1.9ZM200.5,593c0-1,.4-2.3-.8-2.8s-7-.2-7.3.7c-1.1,3.5,6.1,1.2,8.1,2.1ZM200.5,598.7c.2-4.5-.4-2.8-2.7-2.9s-5.1-1-5.5.3c-1.1,3.7,6.3,1.6,8.1,2.6ZM135.1,596.6c-1.8.8-2.9-.6-4.4-.8s-4.8.3-7,0l.8,2.9c2.2-.5,5.3.4,7.3.3s1.2-.8,2.3-.9c5.3-.2,11.4.6,16.8.5s2,.6,3.1.5v-3.4c-1.9-.3-1.5.3-1.4,1.9-2.4-4.1-5.9-.8-8.4-.9s-.7-1-.9-1c-1.6-.4-1,1-1.4,1s0-.8-.5-1c-1.2-.3-2.7.2-3.9.3s-1.3-.4-1.8-.3-.3.8-.4.8Z" style="fill: #f20d57;"/>
      <path d="M124.7,350.2c0,3-.6,9.5,1,11.8l57.2,57c19.7.3,39.6.8,59.4.4v68.6c-10.1,10.2-20.2,20.5-30.2,30.7H40.8v-168.4h83.9ZM124.2,456.7c-.1.3-.2,1.9.3,1.9h4.5c0-.6.1-1.4,0-1.9s-.1-.4-.5-.5c-.6-.1-3.4-.1-3.8,0l-.5.5Z" style="fill: #f30d5c;"/>
      <path d="M40.8,175.6h201c-.1,30.9.1,61.7,0,92.6-1.4.3-.9-.7-1-1.7-.1-4.2-1.3-8.7-1.4-12s.6-1.5.4-2.4-1.6-1-1.9-.8.6,6.9.5,8.2c-.7,0-1.4-.6-2.2-.5s-3.9,3.4-4,4.2c-.1,1.4,2.1,3.5,2.2,4.3s-1,3.4-1.1,3.5c-1.3,1.9-4.6,0-4.8,0-1,.2-.5,2.5-.8,2.8-.6.7-3.6,0-3.8,0s-.6,3.2-.5,3.4c1,1,2-1.4,2.2-1.5.8-.1,2.4.9,3.5.5l-4.8,3.1,1.4,2.1c-.6,0-1.3,0-1.9,0,.4-1.7-2.2-.9-2.9-.7s-3.5,1.4-1.9,2.7c-.4.3-1.4,1-1.9,1.4.2-3.4-2,.2-2.6.5-1.7.7.3-2.1.8-2.6,2.9-2.7,1.7-1.7,3.6-4.6s2.3-.8,1.9-2.4c-.7-2.9-2.7-3.4-5.2-3.2s-.9.7-1.5.7-1.5-.6-1.7-.4-.6,2-.4,2.5c.3,1,2.2,1.5,1.8,2.9s-1.8,1.8-2.1,2.8.3,1.3-.2,2.1c-1.1,1.7-3.6,1.5-3.8,1.7s-.7,3.6-.5,3.8c2.1-.2,2.3-3,4.3-3.6s1.1.6,1.5,1.2c-1.5.2-1.6,1.6-2.4,2.4-1.3,1.4-3.2.8-1.9,3.8-1.2.2-3.3-.4-4.3.2s-.6,1.5-1.3,2.2-4.8,2.9-5.9,3.5-2.4-.1-2.4,1.9,1.2,3.9-.8,1.3-1.5-.7-2.3-1.5-1.9-2.4-2.1-2.7c-.5-.7-.5-2.1-1.2-2.6s-3.2-.9-3.6-.9c0-.5-.2-1.1-.5-1.4,0-1.7,1.9-1.8,2.6-2.9,1.8-2.7.3-4.1-2.6-2.9.3-2.1-.5-3.8-1-5.8,3.9,1.2,1.7-3,2.9-3.8s3.6,1,3.3-2l4.3,1.9c.7-1,0-4,0-4.2s.9-.3,1.3-.9c3.3-4.4.2-8.6-3.1-4s-.8,2.4-1.5,3.3-2.5,3.5-4.1,2.7-.5-2-1.9-1.7c-.2,1.4,1.1,2.8,1,4.1-.2,2.3-4.9,1.6-5.3.4s.6-2,.5-2.7-5.6-4.9,0-4.2c-1.1-4.1-3.4-.2-5.8-.5,0,2.1,2.7,4.5,2.3,6.4s-2.4,2.2-3.5,3.3c-1.9,1.9-.5,3.4-3.6,4.3s-1,0-1.4,0c-.1,1.5,2.8,2.2.5,3.4-.5-.5-1-1-1.4-1.4-1-1-1.5-2.1-2.9-2.9s-1.3-.5-1.4-.5c0-.2-.3-.5-.5-.5-.5-5.5,5.7,1.4,5.8-3.4l-11.5-1.9c-1.3-1.4,3.1-.9,3.6-.9,5.1-.6-3.2-4.7-5.1-1.6s.1,2-.2,2.5c-.8,1.4-6.5,1-8.2,1-4.8,0-10.8-1.4-15.5-.2s-1.2-.1-1,1.1h21.3c1.4,0,.6,3.9,2.6,3.8-3.6,0-7.1-.4-10.6-.5.3-1.4-.7-.9-1.7-1s-2.3,0-3.4,0-1.9-.5-1.7,1c-.3,0-.6,0-1,0,.5-1.6-3-1.4-2.4,0,0,0-.7.4-1.4.5.6-2.5-2.6-1.1-4.3-1.4v1.4c-.8,0-1.6,0-2.4,0s-1.6,0-2.4,0c-.2.5.5,1,.5,1.2v59.7H40.8c0-8.1,0-16.3,0-24.5,1.5.3.9-.7,1-1.7,0-1.6,0-3.2,0-4.8s.5-1.9-1-1.7c0-6.1,0-12.2,0-18.2,1.5.3.9-.7,1-1.7s0-2,0-2.9.5-1.9-1-1.7c0-6.2,0-12.5,0-18.7,1.4.7,1.6-3.9,0-3.4,0-.6,0-1.3,0-1.9,1.4.3,1.5-1.2,0-1,0-2.4,0-4.8,0-7.2,1.4.4,1.5-1.8,0-1.4,0-.6,0-1.3,0-1.9,1.5.3.9-.7,1-1.7.3-6.4.2-13.7,0-20.2s.5-1.9-1-1.7c0-1.3,0-2.6,0-3.8,1.5.3.9-.7,1-1.7.5-11.9.4-25.5,0-37.5s.5-1.9-1-1.7c0-1.4,0-2.9,0-4.3l.5-.2-.5-.2c0-.6,0-1.3,0-1.9ZM151.4,179.6c-2.1-1.2-5.5,1.4-6.8,1.3s-3.2-.9-5.2-1.2-1.4-1.7-2.2,1.1c-.8.2-.3-.9-.7-1-1.4-.4-1.1.8-1.5,1-2.9.7-2.6-1.1-3.3-1.3-1.2-.4-5.3.7-6.9-.1v3.4c2.4-.6,5.3.3,7.5,0s.7-1,.9-1c2.6.2,5.7,1.4,8.7.9s2.6-1.7,4.1-.7.3,1.2.8,1.2c.7.1,2.2-.7,3.3-.7s2.7.7,4.1.7v-3.4c-2.5.9-1.9,0-2.5-.3ZM200.5,182.3c0-1,.4-2.3-.8-2.8s-7.1-.2-7.3.7c-1.2,3.6,6.1,1.4,8.1,2.1ZM127.1,222.1h-2.9v2.4h2.9v-2.4ZM141.5,242.7c-.6-.6-15.1.5-17.3,0,0,.8-.2,2.2.5,2.7s3.4.2,3.6.2c.8-.1,1.3-.9,2.4-1,1.7-.1,10.4.4,10.8,0s0-1.8,0-1.9ZM183.7,269.1c1-1-1.7-3.1-2.4-1.2s2.3,1.3,2.4,1.2ZM164.5,271.5c-.5-.5-1.5.4-1,1s1.5-.4,1-1ZM169.8,275.4c-.2-.3-3.6-.7-3.8-.5-.1,2.7,5.5,2.8,3.8.5ZM169.3,281.1h-1.4s0,1,0,1c.7.1,1.3-.3,1.4-1ZM190.9,284c.7-3.7-4-2.2-1.7-.5s1,.6,1.7.5ZM195.7,283.5h-1v1.4h1v-1.4Z" style="fill: #f20e67;"/>
      <path d="M301.2,428.9c17-17,34.2-33.7,51.1-50.9h31.2c1.7,0-.4,5.6.5,5.8h5.5c-.2-1-1.1-5.8.2-5.8h7c.1,0,.2,1.2.7,1.9,4.1,5.5,14.7,6.1,19.4,1.2s1.5-2.8,2.2-3.1,4.3-.2,5.2,0c2.1.3,3.4,3.6,5.6,4.9,3.6,2.1,10,2.1,13.6,0s4.4-4.9,4.7-4.9h10.3l-1.9,5.8c1-.2,5.3.3,5.7,0s1-5.2,2.3-5.6h19c1.1,1.1,6.6,5.9,6.6,6.9l-.5,1-26.7,26.5c-4.6,1.5-10.2-.3-14.8,1l-47.7,47.8c-4.6.9-9.7-.5-14.2.7l-55.9,55.9-68.3.3c-3.3.5-8.1,8.6-10.8,9.8s-7.1.2-9.1.2c-10.1.1-20.2-.1-30.2,0,0-1.1,0-2.2,0-3.4,0-2.1,0-4.2,0-6.2,10-10.2,20.1-20.5,30.2-30.7,19.6-19.7,39.3-39.4,59-59ZM412.5,428.9h-36v4.8h36v-4.8Z" style="fill: #16083e;"/>
      <path d="M128.5,282.1c.2,0,.3,0,.5,0,10.2.5,20.6.5,31,.5s2.5-.5,3.1-.5.3,0,.5,0,1.3.4,1.4.5l2.9,2.9c.5.5,1,1,1.4,1.4,2.7,2.7,5.4,5.4,8.2,8.2s.3.3.5.5c1.1,1.1,2.2,2.2,3.4,3.4s1.9,1.9,2.9,2.9,1.9,1.9,2.9,2.9,1,1,1.4,1.4l.5.5c.5.5,1,1,1.4,1.4s1,1,1.4,1.4.6.6,1,1l.5.5c.2.2.3.3.5.5,1,1,1.9,1.9,2.9,2.9s.3.3.5.5c.3.3.4.8,1,1,.6.7.9.9,1.4,1.4s.6.6,1,1c.5.5,1,1,1.4,1.4.8.8,1.6,1.6,2.4,2.4s.3.3.5.5c.5.5,1,1,1.4,1.4s.6.6,1,1,.3.3.5.5c.3.3.6.6,1,1,1.6,1.6,3.2,3.2,4.8,4.8s.6.6,1,1l.5.5c.5.5,1,1,1.4,1.4,1,1,1.9,1.9,2.9,2.9s1.3,1.3,1.9,1.9c1.4,1.4,2.9,2.9,4.3,4.3s.3.3.5.5c2.2,2.2,4.5,4.5,6.7,6.7,3.2,3.2,6.4,6.4,9.6,9.6,19.5,19.6,38.8,39.4,58.5,58.7,1.2,2.1,0,7.7.5,10.3h-39.1c-2.3-.4-8-8.8-10.3-9.8s-6.3-.3-8-.3-1.5.5-1.6.5c-19.7.4-39.7,0-59.4-.4l-57.2-57c-1.6-2.3-1-8.7-1-11.8s.5-4.4.5-6.7c.2-19.3-1.3-40.8,0-59.8,0-1,0-1.2,1-1.6.8,0,1.6,0,2.4,0Z" style="fill: #17083e;"/>
      <path d="M43.6,47.5c-.1,3.9,0,7.9,0,11.8s-.8,2.6,0,4.1c2.1-1.2,1.9.5,2.2.5.7,0,1-.8,1.6-.9,4-.8,6.7-.5,10.8,0s1.3.8,2,.8,4,0,4.2,0c.6-.2.6-1.3,1.1-1.4s4.8,0,5.5.1c3.5.3,10.8,1.5,13.5,3.3s.8,1.3,1.6,1.8,4.9,2.1,5.2,2.1c1.9,0,1.6-2,2.9-2s2.8,2.6,4.6,1.9c.6-1.1-1.1-2.6-1-3.1.4-1.8,8.5-1.1,9.1-.2s-1.3,1.6-1,2.4c1.5-.3,2.8,1,4.1,1s1.7-.9,2.8-1c3.3-.5,7.9,1.1,11.5,1s2.6-1.1,3.8-1,1.7,1,2.6,1.3c4,1.1,14.1,2,18,1.1s2.2-1.4,3.9-1.4c4.1,0,11.1,2.4,15.3,1.9s5.1-.7,8.2-.5,6,.9,8.9.8c2.3-5.7,3.7,1.2,4.3,1.6,1.2.8,2.7-1.2,3.9-1.5s6.8-1.2,8.2-.8.6,1.9,2,1.9,1.8-1.2,2.5-1.3c2.2-.4,5.5,1.2,8.5-.2s1.7-1.9,2.4-1.8,2,2,3.5,2.3,4.3,0,5.7.2c1.9.3,3.2,1.4,5.8,1.3s2.8-.9,3.9-1,1.8.5,2.3.5,0-1.3,1.5-1,.5,2.1,2.2,1.9c0,3.4-.4,7.3.5,10.6,0,.6,0,1.3,0,1.9-.8.5-.5,1.8-.5,2.6,0,5.5,0,11,0,16.6,0,8.8,0,17.6,0,26.4-2.1,0-1-3-1.1-4s-.8-1.2-.8-2,.9-3.1.4-4.6c-1.6-.5-.7,2.2-2.1,1.9s-1.5-2.3-2.6-1.9c-.4,1.5-1.7,6.4-2.9,7s-2.7-.5-3.5-.2-4.5,4.2-5,4.3c-1.2.3-2.9-.2-4.2,0-1.1-.1.6-2.7.7-3.2.2-2-1.7-3-1.9-1.8-.7,4.5-2.8.5-5,.6s-2.1,2.4-2.5,2.4c-1.3.2-2.3-.9-3.3-.9-1.6,0-6,1.3-7.2.5s-.9-3.3-.8-3.4c.3-.3,4.4.2,3.8-2.1s-2.3-1-3.3-1.5-1-2.4-2.4-2.2c0,1.2-1.1,3.3-1.9,4.1s-1.8.6-1.9.7c-.9,1,1,2,2.1,1.9s.2-1.9,1.3-.8c.3,1.9-2.9,8.1-5,7.4s-1.2-2.4-3-2.4-1.2,1.1-2,1.3c-1.4.4-4.4.9-6.3,1.4-3.4.8-5.4-.7-4.9-4.2-1.4-.2-3.7,1.7-4.7,0s1.6-3.2-1.8-4.2-.4,2.5-.7,2.9-3.9,0-4.3-.2c-2.1-1.4,2.7-4.3,1.5-5.5s-4-1-4.2-.9-.1,1.3-1.2,1.3c-1.9,0-3.8-1.5-5.3-2.4-2.6,1.9-.3,6.6-4.3,5.8s-1.2-2.7-2-2.9c-1.8.5-4.3-.5-5.7-.4s-2.3,2.5-4.1,1.2-.6-5.3-2.7-5.9-3.4,1.2-4.7,1.2-4.2-1.4-4.8-1.4-1.6,2.9-2,2.9c-1.1.2-1.9-1.3-3.1-1.7-2.1-.9-6.2-1.9-7.4.7s-.1,2.3-.2,2.4c-.1.1-1.5-.2-2.1,0s-.6,1.3-1.1,1.5c-.7.2-1.2-1.2-2.1-1,.4,2.1-1.6,1.5-2.1,2.5s-.2,3.6-.3,3.7-2.8.1-3.1,0c-.5-.1-.3-1-.6-1.4s-1-.5-1.2-.9c-.5-1.8.9-1.6,1.2-2.1s.1-1.5.3-1.8,7.6-1.9,6.1-5.8c-1.7-.6-1.4,1.2-2.2,1.4s-3-.8-4.9,1.1-.5,4.2-2,2.8.7-2-.7-1.9-1.7.9-2.4,1-1.6-.6-2.3-.4-1.1,1.6-2.5,1.4c-1.6-1-.6-4.1-.7-4.3s-2.4-.8-2.7-.8c-2.3-.2-1.5,2.5-2.4,2.8-1.9.5-7.5.5-8.1-1.9-2,.9-4.3,1.5-6.4,2.2s-1.9,0-2.6.3-.6,1.3-1.1,1.4-3.8-.4-4-.6-.4-1.9-.5-2.3c-1.1-.3-1.4,1.2-2.2,1.4s-3.4-.3-3.5-.4c-.3-.3,1.9-4.7-4.8-3.4-.3,1.7,1.5.5,2.4,1.6,1.6,1.9-.8,1.8-1.3,2.7s-.2,4.9-2.3,4.7c-3.6-.3-.3-5.8-2-7.2s-2.1.1-2.9,0-.9-2.2-2.2-1.8c-.7.9.2,3.7-1.4,3.4-.2-2.4,1.1-4.9-2.2-4.8-.6,4.5,0,9.1-.2,13.7s.5,1.9-1,1.7c0-28.3,0-56.6,0-84.9l2.9,1ZM70.5,66.6c.5-.3.9-3.1-.7-2.8s-1.3,4.1.7,2.8ZM129.5,86.3c0-3.6-2.9-1.7-5.3-1.9-.6,3.5,3,2.5,5.3,1.9ZM129.5,102.2c.6-3.5-2.9-2.2-5.3-2.4v2.4s5.3,0,5.3,0Z" style="fill: #f10d77;"/>
      <path d="M40.8,131.4c1.4.3.9-.7,1-1.7.2-4.6-.3-9.2.2-13.7,3.3,0,1.9,2.4,2.2,4.8,1.7.4.8-2.5,1.4-3.4,1.3-.4,1.4,1.7,2.2,1.8s1.6-.9,2.9,0-1.7,6.9,2,7.2,1.8-3.8,2.3-4.7,2.9-.8,1.3-2.7-2.7,0-2.4-1.6c6.7-1.4,4.5,3.1,4.8,3.4s3.3.4,3.5.4c.8-.2,1.1-1.6,2.2-1.4.2.5.4,2.2.5,2.3s3.8.6,4,.6c.5,0,.4-1.1,1.1-1.4s1.7,0,2.6-.3c2.1-.6,4.4-1.3,6.4-2.2.7,2.4,6.2,2.4,8.1,1.9s0-3,2.4-2.8,2.6.7,2.7.8c.1.2-.9,3.3.7,4.3,1.3.2,1.7-1.2,2.5-1.4s1.5.5,2.3.4,1.3-.9,2.4-1,.4,1.6.7,1.9c1.5,1.5,1.5-2.2,2-2.8,1.8-1.9,3.8-.8,4.9-1.1s.6-2,2.2-1.4c1.4,3.9-5.9,5.4-6.1,5.8s0,1.2-.3,1.8-1.7.3-1.2,2.1.8.4,1.2.9.1,1.3.6,1.4,3,0,3.1,0-.2-2.7.3-3.7,2.5-.4,2.1-2.5c.9-.3,1.5,1.1,2.1,1s.5-1.3,1.1-1.5,1.9.2,2.1,0-.1-1.6.2-2.4c1.3-2.6,5.3-1.6,7.4-.7s1.9,1.9,3.1,1.7,1.7-2.9,2-2.9c.6,0,3.3,1.5,4.8,1.4s2.7-1.9,4.7-1.2,2.1,5.5,2.7,5.9c1.7,1.3,3.1-1.1,4.1-1.2s4,1,5.7.4c.8.2.2,2.6,2,2.9,4,.8,1.8-3.9,4.3-5.8,1.5.9,3.4,2.5,5.3,2.4s.9-1.1,1.2-1.3,4.1.7,4.2.9c1.3,1.3-3.5,4.1-1.5,5.5s4.2.4,4.3.2c.3-.3-.7-3.3.7-2.9,3.4,1,1.4,3.6,1.8,4.2,1,1.8,3.3,0,4.7,0-.5,3.5,1.5,5,4.9,4.2s4.9-1,6.3-1.4,1.1-1.3,2-1.3c1.8,0,2.3,2.1,3,2.4,2.1.7,5.3-5.5,5-7.4-1-1.2-.9.7-1.3.8-1.1.1-3-.9-2.1-1.9s1.1,0,1.9-.7,1.9-2.9,1.9-4.1c1.4-.2,1.4,1.7,2.4,2.2s2.9,0,3.3,1.5c.6,2.3-3.5,1.8-3.8,2.1s.4,3.1.8,3.4c1.2.9,5.6-.5,7.2-.5s2,1.2,3.3.9,0-2.3,2.5-2.4,4.3,3.9,5-.6,2.1-.2,1.9,1.8-1.8,3-.7,3.2c1.3-.2,3,.2,4.2,0s4.6-4.2,5-4.3c.9-.3,2.1.9,3.5.2s2.5-5.5,2.9-7c1.1-.3,2,1.8,2.6,1.9,1.5.3.6-2.4,2.1-1.9.4,1.5-.5,3.4-.4,4.6s.8,1.4.8,2c0,.9-1,4,1.1,4v36c-65.6.5-131.3-.7-196.9,0-.8,0-2.1-.3-2.6.5-1.1-.3-1.3-3-1.4-4.1-.4-5.1,0-11.3,0-16.5,1.5.3.9-.7,1-1.7.1-3.4.1-7.2,0-10.6s.5-1.9-1-1.7c0-.8,0-1.6,0-2.4ZM134.3,126.2c0,0,.4-1.2.4-1.3.1-2.3-3-.1-2.3.8s1.8.6,1.9.5ZM129.5,131.4c-.2-1.9,0-1.2,1.1-1.5s4-.8,4.2-.9,0-1.4,0-1.4c0,0-1.1.1-1.5-.1-1.6-.8-2.7-2.4-4.9-2.3s-1.9,2.2-2.9,2.9-2,.3-2.5.9-1.2,4.3-1.2,4.5,2.3,2.3,2.9,1.7-.2-1.3.1-1.8,1.9-.5,1.3-1.5-1.4.3-.9-1c1.5-1,2.8.4,3.4.5-1.5,2.5.9,1,2.1,1s3.1,1.6,2.7-1c-1.2-.1-2.6.1-3.8,0ZM44.6,125.7c-1.5-.5-1.1,2.3-1,3.1s.5,1.3,1.4,1.2l-.5-4.3ZM143.4,125.7h-1.4v1h1.4v-1ZM159.7,126.7c-1.2-1.3-2.1,3.8-.5,2.4s.6-2.2.5-2.4ZM116.1,131c-1.1,0-2.4.2-3.5,0s-2.8-2.7-3.2-.6,4.2,1,2.9,3.6c1.9.2,3.7-.8,3.8-2.9ZM199,131h-1v1.4h1v-1.4ZM136.7,132.9c.5-.5-.9-1.9-1.4-1.4s.9,1.9,1.4,1.4ZM130.5,136.7c-3-.4-2.4,1.6-2.4,3.8,3,.4,2.4-1.6,2.4-3.8ZM125.7,140.6c-1.2-.4-1.1,1.1-1.5,1.3-.9.5-2.9-.7-2.8.8,1.1,1.3,2.9.6,4.3.7v-2.9ZM132.4,144.4c0-.5.9-4.5-.7-3.8,0,2.6-2.3.6-3.6,2.2l1.9.7c.1.6-.6.6-1,1-2,2.4.5,1.7,1.9,1.9s.7.8,1.4.5c0-.5,0-1,0-1.4s0-.6,0-1ZM124.7,143.9c-2,0-3.4.1-2.9,2.4h2.4c0,0,.2.8-.3,1-1.1.3-2.8-.6-2.6,2.1s1.5.6,1.9.8c.1,1-1.7.2-1.9.5s-.1,1.8,0,2.1c.1.5,1.4.3,1.8.8s-.8,2.6.7,3.4c-.6.1-1.5.3-1.9.7-2.1,2.1,2.2,2.3,3.8,2.2v-2.9c-.5,0-1,0-1.4,0,1.8-1.5-.1-3.2,0-3.3s1,0,1.3-.8,0-2.9.1-3.6,0-.3,0-.5l1-1c-.3,0-.6,0-1,0,0-1.3,0-2.6,0-3.8-.3,0-.6,0-1,0ZM128.1,149.7l4.8-1.2-4.8-1.2v2.4ZM132.9,150.6c-2.3.1-5.3-1-4.8,2.4,2.8-.2,4.7,1.1,4.8-2.4ZM128.1,157.4c-1.8,1.9,5.2,3.6,5.8,1.2s-2.4-.7-3.1-.7-2.4-.7-2.7-.5Z" style="fill: #f10d6f;"/>
      <path d="M43.6,47.5c0-1,.5-2.1,0-3.4,1.8-.4,1.2,2.6,2.2,2.9s1.7-1.2,2.8-.9,1.1,2.9,2.5,2.9,1.7-3,4.8-2.9,2.3,2.7,4.1,2c-2.8-7,2.2-1.2,3.4-1.9s.6-2.8.5-3.4c1.2-.2,2.1,1.4,3,1.3s1-.7,1.6-.7c1.6-.3,6.8-1.7,7.5-1.6,1.9,0,3.8,2.4,5.8,2.5,3.3,0,3-3.2,7.2-3.3s3.4,1.2,4.9,1.7,3.1.3,4.4,1.1c.2-.2-.8-2-.5-2.4.8-.9,1,.9,1.3,1,2.1.5,1.8-1.3,2.3-1.4.8-.2,1.5,1.7,2.8,1.5s.4-1.2,1-1.4c1.8-.6,4,1.5,6.3.6s.6-1.4,1.8-1.4,4.2-.3,5.2-.2,1.9,1.1,2.9,1c1.5-.1,1.8-2.8,2.5-2.9s1.8.2,2.7,0,.4-.8.7-1c2.7-1.3,7.3.2,9.9-.6s1-2.3,3-2.4,1.8,1.6,2.3,1.9c1.2.7,4.1-.3,5.4-.4,3.4-.1,9.9,1,12.8,0s1.2-1.2,1.6-1.3,3,2,4.2,1.9.4-1.9,2-1.5.2,2.4,4.1,1.2,1.1-.9,1.7-1.1c1.4-.3,11-.4,11.5.3s.1,1.8.2,1.9c.4.4,4.7-1.5,5.5-1.5,5.8-.1,12.3.6,18.3,1s1.8-.8,2.6-.3.9,1.7,1.7,2.2,6.8.2,8.2,0,2.1-1.4,3.4-1.4,1.6,1.1,2.4,1.3c2.4.8,3.3-1.3,5.4-2.1s5.1-1.2,6.2-.5.7,2.8,2.4,2.6v16.8c-.8.5-.8,2.4,0,2.9v3.4c-.8.5-.5,1.8-.5,2.6,0,3.3,0,6.6,0,9.8-1.7.2-.4-1.6-2.2-1.9s-1.1,1-1.5,1c-.6,0-1.3-.6-2.3-.5s-2,.9-3.9,1-3.9-1-5.8-1.3-4,.2-5.7-.2-2.9-2.2-3.5-2.3-1.6,1.3-2.4,1.8c-3,1.5-6.2-.1-8.5.2s-1.4,1.3-2.5,1.3-1.4-1.8-2-1.9c-1.5-.4-6.7.3-8.2.8s-2.7,2.3-3.9,1.5-2-7.3-4.3-1.6c-2.8,0-6-.6-8.9-.8s-5.4.2-8.2.5c-4.2.4-11.3-1.9-15.3-1.9s-2.5,1.1-3.9,1.4c-3.9.9-14,0-18-1.1s-1.3-1.3-2.6-1.3-2.2,1-3.8,1c-3.6,0-8.2-1.5-11.5-1s-1.8,1-2.8,1-2.6-1.3-4.1-1c-.3-.8,1.4-1.8,1-2.4-.6-.9-8.7-1.6-9.1.2s1.5,2,1,3.1c-1.7.7-3.4-1.9-4.6-1.9s-.9,2-2.9,2-4.8-1.9-5.2-2.1c-.8-.5-.9-1.4-1.6-1.8-2.7-1.8-10-2.9-13.5-3.3s-5.3-.2-5.5-.1c-.5.1-.5,1.2-1.1,1.4s-3.8,0-4.2,0c-.8,0-1.4-.8-2-.8-4.1-.5-6.8-.8-10.8,0s-.8.9-1.6.9,0-1.7-2.2-.5c-.8-1.5,0-2.7,0-4.1,0-3.9-.2-7.9,0-11.8Z" style="fill: #ef0d82;"/>
      <path d="M170.3,283.5c3.1-.9,1.7-2.4,3.6-4.3s3.1-1.2,3.5-3.3-2.4-4.3-2.3-6.4c2.4.2,4.6-3.7,5.8.5-5.5-.8,0,3.8,0,4.2.1.7-.8,1.8-.5,2.7s5.1,1.9,5.3-.4-1.2-2.7-1-4.1c1.4-.3.9,1.2,1.9,1.7,1.6.8,3.2-1.3,4.1-2.7s.6-2.1,1.5-3.3c3.2-4.5,6.3-.3,3.1,4s-1.3.8-1.3.9c-.1.2.7,3.3,0,4.2l-4.3-1.9c.3,2.9-2.4,1.4-3.3,2s1,5-2.9,3.8c.5,1.9,1.3,3.7,1,5.8,2.9-1.2,4.4.1,2.6,2.9s-2.6,1.2-2.6,2.9c0,0-1.6-1-1.7-1-1.9.8,0,1.5,0,1.6.3.5.1,1.2.2,1.3.4.4,1.7-.5,1.9-.5.4,0,3.4.7,3.6.9.7.5.7,1.9,1.2,2.6s1.9,2.6,2.1,2.7c.8.8,1-.2,2.3,1.5,2,2.6.8-.3.8-1.3,0-2.1,1.2-1.3,2.4-1.9s5.3-2.9,5.9-3.5.7-1.8,1.3-2.2c1-.6,3.1,0,4.3-.2-1.3-3,.6-2.5,1.9-3.8,0,2.9,3.4-2.1,2.9,1.4-.6.6-.6.8-1.4,1.4s-.7-.2-.9,0c-.5.7.9,1.8-2.5,1.4.6,1.6.5,3.1.5,4.8s0,.6,0,1c-1.8.6-.5,1.7-.5,1.9.3,11.7,4.2,21.3,16.8,24,0,1.5,1.7,2.2,1.4.5,1.1.1,2.7,0,3.8,0-.6,3.4,3,2.4,3.4-.5.4,0,1,0,1.4,0s.4-.3.5-.5c.4,0,1,0,1.4,0s.4.5,1.1.5c1.2,0,2.1-1.5,3.7-.5v6.2c-.8,1.1-.8,4.1,0,5.3,0,1.6.3,6.2,0,7.2-4.2,0-8.5,0-12.7,0s-2.1-.3-2.6.5h-1c-.2-.2-.3-.3-.5-.5,0-2.2-2.4-3.7-4.3-4.3-.6-.6-1.3-1.3-1.9-1.9,0-.9.8-2.1.3-2.9-.9-1.5-1.6,1.7-3.1,0-.5-.5-1-1-1.4-1.4s-.3-.3-.5-.5c-.3-.3-.6-.6-1-1-.4-.7-1.1-4.1-1.5-4.3s-1.4.5-1.9.5c.5-1.9-.9-3.1-1-1h-.5c-.3-.3-.6-.6-1-1v-.5c.3,0,.9,0,1,0,.7-.9-1.3-1.8-1,0h-.5c-.3-.3-.6-.6-1-1v-.5l.5-1.4-1.4.5h-.5c-.2-.2-.3-.3-.5-.5,0-.5.5-1.1.5-1.4,2.4.8,1.9-1.9,3.8-1.9-1.2,1.4,2.8,7.4,3.4,4.5s-1.7-1.6-1.9-2.5,1-1.6.9-2.2-3.1-2-1.4-4.6c-.9-.1-2.2,0-2.7,1s1.8,2.2,0,2.8c-3.6,1.1-2.3-2.2-3.8-1.8-1.1,1.5-.3,2.3-2.6,1.9s-.6-.4-1-.5c-.5-.5-.9-.7-1.4-1.4s-.4-.8-1-1c-.2-.2-.3-.3-.5-.5-1.1-.9.3-3.6,0-3.8-.9-.8-1.8,1.7-2.9,1-.2-.2-.3-.3-.5-.5s-.3-.3-.5-.5c-.3-.3-.6-.6-1-1,1.3-.4,1-1.8,1-2.9-1.7,0-2.8-.6-2.4,1.4-.5-.5-1-1-1.4-1.4s-.3-.3-.5-.5c-.5-.5-1-1-1.4-1.4v-2.4c3.5-1,1.2,4.1,3.8,2.6s-1.1-2.6-1.3-2.8c-.3-.3-.2-1.5-.8-1.8-1.6-.5-1.6,1.4-1.7,1.4-.3.2-2.2-.1-2.9,0-1-1-1.9-1.9-2.9-2.9-1.4-1.2,1.3-2.8,0-3.6s-2.3.5-3.4.2c-.2-.2-.3-.3-.5-.5l1.4-1.2c-.4-.5-1.3-2.5-1.4-2.6,1.4.1,1.2-.3.5-1.2-2-2.6-4.6-2.4-3.8-6.2s1.5-2.5.9-3.1c-1.4-1.6-2.3,4.9-3.8,4.3-.2-.5-.7-.9-1-1.4ZM186.1,300.3c.6-.6-1.3-3.2-2.4-2.9-.5,1.1,1.4,3.8,2.4,2.9Z" style="fill: #f10e63;"/>
      <path d="M233.1,282.6c.6,0,1.4-.1,1.9,0,.8.2,4.8,1.9,5.8,2.4s1.3.4,1.4.5c12.2,8.5,12.7,28.1,0,36.5-1.4.9-3.6,1.2-4.8,2.4-.4,0-1.1,0-1.4,0s-.4.3-.5.5c-.4,0-1,0-1.4,0-1.2.2-2,.5-3.4.5s-2.7.1-3.8,0-.8-.3-1.4-.5c-12.5-2.7-16.5-12.3-16.8-24,.7-.3.5-1.3.5-1.9s0-.6,0-1l2.9-6.2c.8-.6.9-.9,1.4-1.4s.8-1.3,1-1.4c.5-.5,1.1-1.2,1.4-1.4,4.8-4,11.1-5.2,17.3-4.8ZM242.2,316.6c7.8-7,8.1-18.7,0-25.9s-21.7-6-27.4,4c-10,17.6,11.7,35.9,27.4,21.9Z" style="fill: #2c0941;"/>
      <path d="M40.8,175.6l201.4-.5v110.3c-.2-.1-1-.3-1.4-.5v-.5c.2-.1.7-.3.7-.5.9-3.3.2-11.8.2-15.8.1-30.9-.1-61.7,0-92.6H40.8Z" style="fill: #f10d6f;"/>
      <path d="M126.1,282.1c-.9.5-.9.7-1,1.6-1.3,18.9.2,40.5,0,59.8l-84.4-.5h83.5v-59.7c0-.1-.7-.7-.5-1.2.8,0,1.6,0,2.4,0Z" style="fill: #f10d6f;"/>
      <path d="M241.7,167.9h.5l-200,.5c.5-.8,1.8-.5,2.6-.5,65.6-.7,131.3.5,196.9,0Z" style="fill: #ecdfec;"/>
      <path d="M232.6,350.2h9.6s0,9.6,0,9.6c-3.2-3.2-6.4-6.4-9.6-9.6Z" style="fill: #ed0e62;"/>
      <path d="M40.8,182.3c1.4-.3.9.7,1,1.7.4,11.9.5,25.5,0,37.5s.5,1.9-1,1.7c0-13.6-.1-27.2,0-40.8Z" style="fill: #f10d6f;"/>
      <path d="M242.2,167.9h-.5v-36c0-8.8,0-17.6,0-26.4h.5c0,20.8,0,41.6,0,62.4Z" style="fill: #ef0d82;"/>
      <path d="M40.8,226.9c1.4-.3.9.7,1,1.7.2,6.5.3,13.7,0,20.2s.5,1.9-1,1.7c0-7.8,0-15.7,0-23.5Z" style="fill: #f10d6f;"/>
      <path d="M40.8,133.8c1.4-.3.9.7,1,1.7.1,3.4.1,7.2,0,10.6s.5,1.9-1,1.7c0-4.6,0-9.3,0-13.9Z" style="fill: #f10d77;"/>
      <path d="M412,378c-1.8,2.3-6.9,2.4-8.6,0h8.6Z" style="fill: #2c0941;"/>
      <path d="M242.2,84.4c-.9-3.2-.5-7.2-.5-10.6s0-6.6,0-9.8-.3-2.1.5-2.6c0,7.7,0,15.4,0,23Z" style="fill: #ec0e8e;"/>
      <path d="M440.8,378c-1.7,2.3-4.7,1.9-7.1,1.1s-1.3.3-1.1-1.1h8.2Z" style="fill: #2c0941;"/>
      <path d="M242.2,105.5h-.5c0-5.5,0-11,0-16.6s-.3-2.1.5-2.6c0,6.4,0,12.8,0,19.2Z" style="fill: #ec0e8e;"/>
      <path d="M40.8,310.4c1.4-.3.9.7,1,1.7,0,1.6,0,3.2,0,4.8s.5,1.9-1,1.7c0-2.7,0-5.4,0-8.2Z" style="fill: #f10d6f;"/>
      <path d="M242.2,343c-.2.5-.2.4-.7.5-4.1.5-10.3,0-14.7,0,.5-.8,1.8-.5,2.6-.5,4.2,0,8.5,0,12.7,0Z" style="fill: #ed0e62;"/>
      <path d="M242.2,321.9v2.4c-1.5-1-2.5.4-3.7.5s-1.1-.5-1.1-.5c1.2-1.2,3.4-1.5,4.8-2.4Z" style="fill: #ed0e62;"/>
      <path d="M40.8,285.9c1.4-.3.9.7,1,1.7s0,2,0,2.9.5,1.9-1,1.7c0-2.1,0-4.2,0-6.2Z" style="fill: #f10d6f;"/>
      <path d="M40.8,263.9c1.6-.6,1.4,4.1,0,3.4,0-1.1,0-2.2,0-3.4Z" style="fill: #f10d6f;"/>
      <path d="M242.2,335.8c-.8-1.2-.8-4.2,0-5.3,0,1.8,0,3.5,0,5.3Z" style="fill: #ed0e62;"/>
      <path d="M40.8,252.3c1.5-.4,1.4,1.9,0,1.4,0-.5,0-1,0-1.4Z" style="fill: #f10d6f;"/>
      <path d="M242.2,58c-.8-.5-.8-2.4,0-2.9v2.9Z" style="fill: #ec0e8e;"/>
      <path d="M40.8,261c1.5-.3,1.4,1.3,0,1,0-.3,0-.6,0-1Z" style="fill: #f10d6f;"/>
      <path d="M40.8,178c0-.2,0-.3,0-.5l.5.2-.5.2Z" style="fill: #f10d6f;"/>
      <path d="M135.1,596.6c.1,0,0-.8.4-.8.5,0,1.2.4,1.8.3,1.2,0,2.7-.6,3.9-.3s0,1,.5,1-.1-1.4,1.4-1,0,1,.9,1c2.5,0,6-3.2,8.4.9,0-1.7-.4-2.2,1.4-1.9v3.4c-1.1,0-2-.5-3.1-.5-5.5.1-11.5-.6-16.8-.5s-1.5.8-2.3.9c-2,.1-5-.8-7.3-.3l-.8-2.9c2.2.2,4.9-.3,7,0s2.7,1.7,4.4.8Z" style="fill: #af0f52;"/>
      <path d="M143.4,563.7c0,1.4-.2,1.6,1.2,1.5s1.4-1.4,2-1.5c1-.2,3.6.7,5,0l.5,2.4c1.3-.8-.6-2.5,1.9-1.9.2,4.5-.5,2.8-3.1,2.9s-3.6.6-4.3.5-.2-1.5-2-1.5-1.4.8-2,.8c-2.3.3-5,0-7.3.2.3-1.5.6-4.6,1.7-1.9,1.5-1.4,4.4-.7,6.5-1.4ZM147.7,566.1c.2-2-.7-2-.5,0h.5Z" style="fill: #af0f52;"/>
      <path d="M143.4,578.6c.3.3-.8,1.8,1.7,1.4s.8-1.2,1.5-1.4,6.3,0,6.6,0c1.2.3.7,2.3.8,3.3-2.3-.2-4.9.7-6.7-1l-1,1.4c-.4-3.7-8.6,1.6-9.1-1.7s0-1.6.5-1.9,5.6-.4,5.8-.2Z" style="fill: #af0f52;"/>
      <path d="M151.6,590.1v1.9s1-1.9,1-1.9c1.9-.3,1.9,3.5.7,3.8s-4.5-.4-4.7-.5c-1.1-.4-.5-1.9-1-1.9l-.2,2.4c-2.2.6-1-1.3-1.7-1.5-2.3-.7-2.7.9-2.9,1-1.8.5-5.3-.7-7.4,0l.5-2.9,1.2,1.4c.7-3.5,2.2-.5,2.4-.5s1.1-3,2.4,1c.5-4.1,1.4-.8,2.9-.9s1.5-1.4,2-1.5c1-.2,3.7.3,5,0Z" style="fill: #af0f52;"/>
      <path d="M132.5,579.9c.4.2,2,.3,2.4.1.7-.2.5-1.8,1.8-1.4v2.9c-2.5-1.2-3.8.4-5.5.5s-4.2-.8-6.2-.1c-1.2-.3-1.4-3,.4-3.3s6.2,0,6.5.3.3.9.6,1.1Z" style="fill: #af0f52;"/>
      <path d="M134.8,591.5c1,.8-2.2,1.8-2.7,1.9-1.4.2-5.4.3-6.7,0s-1.2-1.6-1.2-2.9c1.7.4,3.9-.4,5.4-.3s3.2,1.7,5.1,1.3Z" style="fill: #af0f52;"/>
      <path d="M200.5,566.6c-1.5-.5-7.3.4-7.9-.4-1.5-2.1,1.5-2.7,3-2.7,2.3,0,6,.2,5,3.2Z" style="fill: #af0f52;"/>
      <path d="M200.5,578.6v2.9c-1.6-.6-7.6.7-8.1-.8-1.2-3.6,6.1-1.4,8.1-2.1Z" style="fill: #af0f52;"/>
      <path d="M200.5,598.7c-1.8-1-9.2,1.1-8.1-2.6s4.5-.3,5.5-.3c2.3,0,2.9-1.6,2.7,2.9Z" style="fill: #af0f52;"/>
      <path d="M200.5,593c-2-.9-9.3,1.4-8.1-2.1s6.6-.9,7.3-.7c1.1.4.8,1.8.8,2.8Z" style="fill: #af0f52;"/>
      <path d="M130.5,564.6c.9,0,2.3-1.9,1.9,1.4.8.2.2-.8.8-1s1.9-.3,1.6.7c0,.3-2.3,1.2-2.7,1.2-1,.1-1.5-.5-1.6-.5v-1.9Z" style="fill: #af0f52;"/>
      <path d="M129,564.2v2.4c-1.2,0-1.8,1.7-2.2-1-.4,0-.3.7-.7,1v-2.4c1.6-.3,1.6,0,2.9,0Z" style="fill: #af0f52;"/>
      <path d="M130.5,564.6v1.9c-.5,0-1,0-1.4,0v-2.4c.5,0,1.2.5,1.4.5Z" style="fill: #2c0941;"/>
      <path d="M126.1,564.2v2.4c-.1,0-.3,0-.5,0l-1-.5c0-.3,0-.7,0-1s0-.9,0-1c.1-.1,1,0,1.4,0Z" style="fill: #2c0941;"/>
      <path d="M125.7,566.6c-.1,0-.1.7-1,.5,0-.3,0-.7,0-1l1,.5Z" style="fill: #af0f52;"/>
      <path d="M124.7,565.1l-.5-.7.5-.2c0,0,0,.7,0,1Z" style="fill: #af0f52;"/>
      <path d="M301.2,428.9c-19.7,19.6-39.4,39.3-59,59v-68.6c0,0,.8-.5,1.6-.5,1.7,0,6.8-.2,8,.3,2.3,1,8,9.4,10.3,9.8h39.1Z" style="fill: #fefdfe;"/>
      <path d="M128.5,456.2l.5.5c.1.6,0,1.3,0,1.9h-4.5c-.4,0-.4-1.6-.3-1.9s.4-.5.5-.5c.4-.1,3.3-.1,3.8,0Z" style="fill: #16083e;"/>
      <path d="M124.2,456.7l.5-.5s-.5.4-.5.5Z" style="fill: #2c0941;"/>
      <path d="M129,456.7l-.5-.5c.4,0,.4.1.5.5Z" style="fill: #2c0941;"/>
      <path d="M225.9,281.6l-1.4-2.1,4.8-3.1c-1.1.4-2.8-.6-3.5-.5s-1.3,2.4-2.2,1.5.4-3.2.5-3.4,3.2.7,3.8,0-.3-2.6.8-2.8,3.5,1.9,4.8,0,1.1-3.4,1.1-3.5c-.1-.8-2.3-3-2.2-4.3s3.4-4.1,4-4.2,1.4.5,2.2.5c0-1.2-.8-7.9-.5-8.2s1.7,0,1.9.8-.4,1.6-.4,2.4c.1,3.3,1.2,7.7,1.4,12s-.5,1.9,1,1.7c0,4,.7,12.5-.2,15.8s-.5.4-.7.5c-1.7-1.5-3.6-.7-2.4-3.4-.3-.3-3.2.5-3.4,1.4-.5-.1-1.3,0-1.9,0,.3-1.4-.7-.9-1.9-1v-1.9c-1.4,0-3.8.1-3.8,1.9-.5,0-1,0-1.4,0Z" style="fill: #f10e63;"/>
      <path d="M154.9,282.1c-2.1,0-1.2-3.8-2.6-3.8h-21.3c-.2-1.2.2-.9,1-1.1,4.7-1.2,10.7,0,15.5.2s7.4.4,8.2-1-.4-1.6.2-2.5c1.9-3.1,10.2,1,5.1,1.6s-5-.4-3.6.9l11.5,1.9c-.1,4.8-6.3-2.1-5.8,3.4-.5,0-1,0-1.4,0-1.1,0-2.3,0-3.4,0s-1.2-.1-1.4.5c-.6,0-1.3,0-1.9,0Z" style="fill: #f10e63;"/>
      <path d="M213,286.4c-.4-.6.9-2-1.5-1.2s-2.1,3.4-4.3,3.6c-.1-.1.4-3.6.5-3.8.2-.2,2.7,0,3.8-1.7s0-1.4.2-2.1,1.9-2.1,2.1-2.8c.4-1.4-1.5-1.9-1.8-2.9s.3-2.4.4-2.5c.2-.2,1.2.5,1.7.4s1.1-.7,1.5-.7c2.6-.2,4.5.3,5.2,3.2s-1.3,1.5-1.9,2.4c-1.9,2.9-.7,1.9-3.6,4.6s-2.4,3.3-.8,2.6,2.9-3.9,2.6-.5c-.5.4-1.4,1.7-1.4,2.4-.3.3-.9,1-1.4,1.4.3-1.9-1.4-2.3-1.4-2.4Z" style="fill: #f10e63;"/>
      <path d="M151.4,179.6c.6.4,0,1.2,2.5.3v3.4c-1.4,0-2.7-.7-4.1-.7s-2.6.9-3.3.7-.4-1-.8-1.2c-1.4-1-2.6.5-4.1.7-3,.4-6.1-.7-8.7-.9s0,.9-.9,1c-2.1.2-5.1-.6-7.5,0v-3.4c1.6.8,5.7-.3,6.9.1s.4,2.1,3.3,1.3.1-1.3,1.5-1,0,1.2.7,1c.8-2.9,1.3-1.2,2.2-1.1,2,.2,4.2,1.1,5.2,1.2s4.7-2.5,6.8-1.3Z" style="fill: #af0f52;"/>
      <path d="M141.5,242.7c0,0,0,1.8,0,1.9-.4.4-9.2-.1-10.8,0s-1.6.8-2.4,1-3.4,0-3.6-.2c-.7-.5-.4-1.9-.5-2.7,2.2.5,16.7-.6,17.3,0Z" style="fill: #2c0941;"/>
      <path d="M170.3,283.5c.3.5.7.9,1,1.4,1.6,3.6,4,3.9,6.2,6.2s1.1,2.2,1.4,2.6l-1.4,1.2c-2.7-2.7-5.5-5.4-8.2-8.2,2.3-1.1-.6-1.9-.5-3.4.4,0,1.1.1,1.4,0Z" style="fill: #ed0e62;"/>
      <path d="M136.7,281.6c.3,0,.6,0,1,0,2.2,0,4.5,0,6.7,0,3.4,0,6.9.5,10.6.5s1.3,0,1.9,0,1,0,1.4,0c1.1,0,2.7.4,3.4-.5.5,0,1,0,1.4,0v.5c-.6,0-2,.5-3.1.5-10.4,0-20.7,0-31-.5,1.3,0,2.6.1,3.8,0s1.4-.5,1.4-.5c.8,0,1.6,0,2.4,0Z" style="fill: #f10d6f;"/>
      <path d="M225.9,281.6c.5,0,1,0,1.4,0,1.3,0,2.6,0,3.8,0s2.2-.5,1.9,1c-6.1-.4-12.4.8-17.3,4.8,0-.7,1-2,1.4-2.4s1.5-1.1,1.9-1.4c1.3-1,3.1-1.7,4.8-1.9s1.3,0,1.9,0Z" style="fill: #ed0e62;"/>
      <path d="M200.5,182.3c-2.1-.7-9.3,1.5-8.1-2.1s6.7-.9,7.3-.7c1.1.4.8,1.8.8,2.8Z" style="fill: #af0f52;"/>
      <path d="M213,286.4c0,.1,1.7.5,1.4,2.4-.2.2-.5,1-1,1.4.5-3.6-2.9,1.4-2.9-1.4.8-.8.9-2.2,2.4-2.4Z" style="fill: #ed0e62;"/>
      <path d="M219.2,283.5c-1.6-1.2,1.1-2.4,1.9-2.7s3.3-1,2.9.7c-1.7.2-3.5.9-4.8,1.9Z" style="fill: #f10e63;"/>
      <rect x="124.2" y="222.1" width="2.9" height="2.4" style="fill: #2c0941;"/>
      <path d="M169.8,275.4c1.6,2.4-4,2.2-3.8-.5.2-.2,3.6.2,3.8.5Z" style="fill: #f10e63;"/>
      <path d="M137.7,281.6c-.3-1.5.7-.9,1.7-1s2.3,0,3.4,0,1.9-.5,1.7,1c-2.2,0-4.5,0-6.7,0Z" style="fill: #f10e63;"/>
      <path d="M128.5,282.1v-1.4c1.7.3,4.9-1.1,4.3,1.4-1.3.1-2.6,0-3.8,0-.2,0-.3,0-.5,0Z" style="fill: #f10e63;"/>
      <path d="M184.7,294.1c-.2,0-1.5.8-1.9.5s.1-.8-.2-1.3-1.9-.8,0-1.6,1.6.9,1.7,1c.3.4.4,1,.5,1.4Z" style="fill: #ed0e62;"/>
      <path d="M190.9,284c-.7.1-1.1,0-1.7-.5-2.3-1.7,2.4-3.3,1.7.5Z" style="fill: #f10e63;"/>
      <path d="M183.7,269.1c-.1.1-3.1.6-2.4-1.2s3.4.2,2.4,1.2Z" style="fill: #f10e63;"/>
      <path d="M134.3,281.6c-.6-1.4,2.9-1.6,2.4,0-.8,0-1.6,0-2.4,0Z" style="fill: #f10e63;"/>
      <rect x="194.7" y="283.5" width="1" height="1.4" style="fill: #f10e63;"/>
      <path d="M169.3,281.1c-.2.7-.8,1.1-1.4,1v-1s1.4,0,1.4,0Z" style="fill: #f10e63;"/>
      <path d="M164.5,271.5c.5.5-.4,1.5-1,1s.4-1.5,1-1Z" style="fill: #f10e63;"/>
      <path d="M167.9,285.4l-2.9-2.9c1.4.8,1.9,1.9,2.9,2.9Z" style="fill: #f10d6f;"/>
      <path d="M163.6,282.1c-.2,0-.3,0-.5,0v-.5c.2,0,.4.3.5.5Z" style="fill: #ed0e62;"/>
      <rect x="376.5" y="428.9" width="36" height="4.8" style="fill: #fefdfe;"/>
      <path d="M200.5,317.6c2.4.4,1.5-.4,2.6-1.9,1.4-.4.2,2.9,3.8,1.8s-.5-1.8,0-2.8,1.8-1.1,2.7-1c-1.7,2.7,1.3,3.7,1.4,4.6s-1.1,1.2-.9,2.2,2.1,1.6,1.9,2.5c-.6,2.8-4.5-3.2-3.4-4.5-1.9,0-1.4,2.7-3.8,1.9,0-3-1.3-3.2-2.9-1-.5-.5-1-.9-1.4-1.4v-.5Z" style="fill: #f20e67;"/>
      <path d="M204.8,320.5c0,.3-.5,1-.5,1.4-.8-.8-1.6-1.6-2.4-2.4,1.6-2.2,3-2.1,2.9,1Z" style="fill: #ed0e62;"/>
      <path d="M181.3,298.9c-1.1-1.1-2.2-2.2-3.4-3.4,1.1.2,2.5-.8,3.4-.2s-1.4,2.4,0,3.6Z" style="fill: #ed0e62;"/>
      <path d="M190.4,308c-.4-2.1.7-1.4,2.4-1.4,0,1,.3,2.5-1,2.9-.5-.5-1-1-1.4-1.4Z" style="fill: #f20e67;"/>
      <path d="M210.1,327.2c.5,0,1.6-.7,1.9-.5s1.1,3.6,1.5,4.3c-1.6-1.6-3.2-3.2-4.8-4.8h.5c.2.4.5.9,1,1Z" style="fill: #ed0e62;"/>
      <path d="M193.8,311.3c1.1.7,2-1.8,2.9-1s-1.1,3,0,3.8c-1-1-1.9-1.9-2.9-2.9Z" style="fill: #ed0e62;"/>
      <path d="M219.2,336.8c-1-1-1.9-1.9-2.9-2.9,1.5,1.7,2.2-1.5,3.1,0s-.3,2-.3,2.9Z" style="fill: #ed0e62;"/>
      <path d="M225.4,343c-1.4-1.4-2.9-2.9-4.3-4.3,1.9.6,4.3,2.1,4.3,4.3Z" style="fill: #ed0e62;"/>
      <path d="M187.1,301.8v2.9c-1-1-1.9-1.9-2.9-2.9.6-.1,2.5.2,2.9,0Z" style="fill: #ed0e62;"/>
      <path d="M189,306.6l-.5-.5c.2.2.3.3.5.5Z" style="fill: #ed0e62;"/>
      <path d="M193.3,310.9l-.5-.5c.2.2.3.3.5.5Z" style="fill: #ed0e62;"/>
      <path d="M198.1,315.7c-.6-.1-.7-.7-1-1,.5.2.7.6,1,1Z" style="fill: #ed0e62;"/>
      <path d="M200.5,317.6v.5c-.3-.3-.6-.6-1-1,.3,0,.7.4,1,.5Z" style="fill: #ed0e62;"/>
      <path d="M206.2,323.3v.5c-.5-.5-1-1-1.4-1.4h.5l1,1Z" style="fill: #ed0e62;"/>
      <path d="M214.9,332.5l-.5-.5c.2.2.3.3.5.5Z" style="fill: #ed0e62;"/>
      <path d="M207.7,325.3c-.2-.2-.3-.3-.5-.5h.5v.5Z" style="fill: #ed0e62;"/>
      <path d="M129.5,102.2h-5.3s0-2.4,0-2.4c2.4.2,5.8-1.1,5.3,2.4Z" style="fill: #af0f52;"/>
      <path d="M129.5,86.3c-2.3.6-5.8,1.5-5.3-1.9,2.4.2,5.3-1.7,5.3,1.9Z" style="fill: #2c0941;"/>
      <path d="M70.5,66.6c-2,1.2-1.7-2.6-.7-2.8,1.6-.3,1.2,2.5.7,2.8Z" style="fill: #ef0d82;"/>
      <path d="M128.5,131.4c-.6,0-1.9-1.5-3.4-.5-.5,1.3.9.9.9,1,.6,1-1.1,1.2-1.3,1.5-.3.5,0,1.7-.1,1.8-.6.6-2.9-1.6-2.9-1.7s1.1-4.3,1.2-4.5c.4-.6,1.8-.4,2.5-.9s.5-2.8,2.9-2.9,3.3,1.5,4.9,2.3,1.5,0,1.5.1,0,1.4,0,1.4c-.1.2-3.3.6-4.2.9s-1.3-.4-1.1,1.5c-.3,0-.6,0-1,0Z" style="fill: #f10d77;"/>
      <path d="M124.7,143.9c.3,0,.6,0,1,0,0,1.3,0,2.6,0,3.8.3,0,.6,0,1,0l-1,1c0-.3,0-.6,0-1-.9.1-.8,1.1,0,1.4,0,.6,0,3.3-.1,3.6-.3.8-1.3.7-1.3.8-.1.2,1.8,1.8,0,3.3-.2,0-.3,0-.5,0-1.5-.8-.3-3-.7-3.4s-1.6-.2-1.8-.8,0-2,0-2.1c.2-.3,2,.5,1.9-.5-.4-.1-1.9-.3-1.9-.8-.2-2.7,1.4-1.8,2.6-2.1s.3-.9.3-1c.3-.2,2,.6,0-1.2,0-.5.7-.1.9-.3s-.4-.6-.4-.9Z" style="fill: #af0f52;"/>
      <path d="M116.1,131c-.1,2.1-1.9,3.1-3.8,2.9,1.3-2.6-3.2-1.9-2.9-3.6s2.8.5,3.2.6c1.1.3,2.4,0,3.5,0Z" style="fill: #f10d77;"/>
      <path d="M129,144.4c.3-.4,1.1-.3,1-1l-1.9-.7c1.3-1.6,3.6.4,3.6-2.2,1.6-.7.8,3.4.7,3.8h-3.4Z" style="fill: #af0f52;"/>
      <path d="M132.9,150.6c0,3.5-2,2.2-4.8,2.4-.5-3.4,2.5-2.3,4.8-2.4Z" style="fill: #2c0941;"/>
      <path d="M128.1,157.4c.2-.2,2.1.5,2.7.5s3.5-1.1,3.1.7-7.6.7-5.8-1.2Z" style="fill: #af0f52;"/>
      <path d="M123.7,156.9c.2,0,.3,0,.5,0,.5,0,1,0,1.4,0v2.9c-1.6.1-6,0-3.8-2.2s1.3-.6,1.9-.7Z" style="fill: #2c0941;"/>
      <path d="M130.5,136.7c0,2.2.6,4.3-2.4,3.8,0-2.2-.6-4.3,2.4-3.8Z" style="fill: #af0f52;"/>
      <path d="M125.7,140.6v2.9c-1.4-.1-3.2.5-4.3-.7-.1-1.5,1.9-.3,2.8-.8s.3-1.7,1.5-1.3Z" style="fill: #af0f52;"/>
      <polygon points="128.1 149.7 128.1 147.3 132.8 148.5 128.1 149.7" style="fill: #af0f52;"/>
      <path d="M124.7,143.9c0,.3.6.7.4.9s-1-.2-.9.3c1.9,1.8.3,1,0,1.2h-2.4c-.5-2.3.9-2.4,2.9-2.4Z" style="fill: #2c0941;"/>
      <path d="M132.4,144.4c0,.3,0,.6,0,1-.8-.2-1.1.4-1.4,1-1.4-.2-3.9.5-1.9-1.9h3.4Z" style="fill: #2c0941;"/>
      <path d="M129.5,131.4c1.2.1,2.6-.1,3.8,0,.4,2.6-1.4,1-2.7,1s-3.6,1.5-2.1-1c.3,0,.6,0,1,0Z" style="fill: #af0f52;"/>
      <path d="M44.6,125.7l.5,4.3c-.9.1-1.3-.4-1.4-1.2s-.5-3.7,1-3.1Z" style="fill: #f10d77;"/>
      <path d="M134.3,126.2c0,0-1.9-.4-1.9-.5-.7-.9,2.5-3.1,2.3-.8s-.4,1.3-.4,1.3Z" style="fill: #f10d77;"/>
      <path d="M159.7,126.7c.1.2-.4,2.3-.5,2.4-1.7,1.4-.7-3.7.5-2.4Z" style="fill: #f10d77;"/>
      <path d="M136.7,132.9c-.5.5-1.9-1-1.4-1.4s1.9,1,1.4,1.4Z" style="fill: #f10d77;"/>
      <path d="M132.4,145.4c0,.5,0,1,0,1.4-.7.3-1.3-.5-1.4-.5.4-.6.6-1.1,1.4-1Z" style="fill: #af0f52;"/>
      <rect x="198.1" y="131" width="1" height="1.4" style="fill: #f10d77;"/>
      <rect x="142" y="125.7" width="1.4" height="1" style="fill: #f10d77;"/>
      <path d="M125.7,148.7c0,.2,0,.3,0,.5-.8-.4-.9-1.3,0-1.4,0,.3,0,.6,0,1Z" style="fill: #2c0941;"/>
      <path d="M171.2,285c1.6.6,2.4-5.9,3.8-4.3s-.8,2.4-.9,3.1c-.8,3.8,1.8,3.6,3.8,6.2s.9,1.4-.5,1.2c-2.2-2.4-4.6-2.6-6.2-6.2Z" style="fill: #f20e67;"/>
      <path d="M187.1,301.8c.1,0,.1-1.9,1.7-1.4.7.3.5,1.5.8,1.8s4.7.9,1.3,2.8-.3-3.7-3.8-2.6v-.5Z" style="fill: #f20e67;"/>
      <path d="M212,291.7l-2.9,6.2c0-1.7,0-3.2-.5-4.8,3.3.5,1.9-.6,2.5-1.4s.8,0,.9,0Z" style="fill: #ed0e62;"/>
      <path d="M234.1,324.8c-.3,2.9-4,3.9-3.4.5,1.4,0,2.1-.3,3.4-.5Z" style="fill: #ed0e62;"/>
      <path d="M186.1,300.3c-1,1-2.9-1.8-2.4-2.9,1.1-.3,3,2.3,2.4,2.9Z" style="fill: #ed0e62;"/>
      <path d="M226.9,325.3c.2,1.7-1.4,1-1.4-.5.6.1,1.4.5,1.4.5Z" style="fill: #ed0e62;"/>
      <polygon points="205.3 322.4 206.7 321.9 206.2 323.3 205.3 322.4" style="fill: #f20e67;"/>
      <path d="M209.1,326.2c0-2.1,1.4-1,1,1-.4,0-.8-.6-1-1Z" style="fill: #f20e67;"/>
      <path d="M208.6,300.8c0-.3-1.3-1.3.5-1.9,0,.6.2,1.6-.5,1.9Z" style="fill: #ed0e62;"/>
      <path d="M207.7,324.8c-.3-1.8,1.7-.9,1,0s-.7,0-1,0Z" style="fill: #f20e67;"/>
      <path d="M235.5,324.8c0-.2.3-.4.5-.5,0,.2-.3.4-.5.5Z" style="fill: #ed0e62;"/>
      <path d="M242.2,290.7v25.9c-15.7,14-37.4-4.3-27.4-21.9,5.7-10,18.9-11.6,27.4-4ZM226.5,307.4c4.1,4.5,12.5-2.7,6.8-7.5s-11.1,2.8-6.8,7.5Z" style="fill: #ed0e62;"/>
      <path d="M242.2,290.7c8.1,7.2,7.8,19,0,25.9v-25.9Z" style="fill: #ecdfec;"/>
      <path d="M235,282.6c.2-1,3.1-1.7,3.4-1.4-1.2,2.6.7,1.8,2.4,3.4v.5c-1-.5-5-2.2-5.8-2.4Z" style="fill: #ed0e62;"/>
      <path d="M147.7,566.1h-.5c-.2-2,.7-2,.5,0Z" style="fill: #f20d57;"/>
      <path d="M227.3,281.6c0-1.8,2.4-1.9,3.8-1.9v1.9c-1.3,0-2.6,0-3.8,0Z" style="fill: #f20e67;"/>
      <path d="M161.6,281.6c-.7.8-2.3.5-3.4.5v-.5c1.1,0,2.2,0,3.4,0Z" style="fill: #ed0e62;"/>
      <path d="M158.3,281.6v.5c-.5,0-1,0-1.4,0,.2-.6.9-.5,1.4-.5Z" style="fill: #f20e67;"/>
      <path d="M226.5,307.4c-4.3-4.8,2.2-11.4,6.8-7.5s-2.8,12.1-6.8,7.5Z" style="fill: #2c0941;"/>
    </g>
  </g>
</svg>
